<?xml version="1.0" encoding="utf-8"?>
<svg version="1.1" xmlns:xlink="http://www.w3.org/1999/xlink" width="12px" height="12px" viewBox="330 1730.5  12 12" xmlns="http://www.w3.org/2000/svg">
  <path d="M 336 1730.5  C 339.36 1730.5  342 1733.14  342 1736.5  C 342 1739.86  339.36 1742.5  336 1742.5  C 332.64 1742.5  330 1739.86  330 1736.5  C 330 1733.14  332.64 1730.5  336 1730.5  Z " fill-rule="nonzero" fill="#ffffff" stroke="none" />
  <path d="M 336 1731  C 339.08 1731  341.5 1733.42  341.5 1736.5  C 341.5 1739.58  339.08 1742  336 1742  C 332.92 1742  330.5 1739.58  330.5 1736.5  C 330.5 1733.42  332.92 1731  336 1731  Z " stroke-width="1" stroke="#797979" fill="none" />
  <path d="M 336 1739.5  C 334.32 1739.5  333 1738.18  333 1736.5  C 333 1734.82  334.32 1733.5  336 1733.5  C 337.68 1733.5  339 1734.82  339 1736.5  C 339 1738.18  337.68 1739.5  336 1739.5  " fill-rule="nonzero" fill="#797979" stroke="none" />
</svg>