<?xml version="1.0" encoding="utf-8"?>
<svg version="1.1" xmlns:xlink="http://www.w3.org/1999/xlink" width="12px" height="12px" viewBox="330 1701.5  12 12" xmlns="http://www.w3.org/2000/svg">
  <path d="M 336 1701.5  C 339.36 1701.5  342 1704.14  342 1707.5  C 342 1710.86  339.36 1713.5  336 1713.5  C 332.64 1713.5  330 1710.86  330 1707.5  C 330 1704.14  332.64 1701.5  336 1701.5  Z " fill-rule="nonzero" fill="#ffffff" stroke="none" />
  <path d="M 336 1702  C 339.08 1702  341.5 1704.42  341.5 1707.5  C 341.5 1710.58  339.08 1713  336 1713  C 332.92 1713  330.5 1710.58  330.5 1707.5  C 330.5 1704.42  332.92 1702  336 1702  Z " stroke-width="1" stroke="#797979" fill="none" />
  <path d="M 336 1710.5  C 334.32 1710.5  333 1709.18  333 1707.5  C 333 1705.82  334.32 1704.5  336 1704.5  C 337.68 1704.5  339 1705.82  339 1707.5  C 339 1709.18  337.68 1710.5  336 1710.5  " fill-rule="nonzero" fill="#797979" stroke="none" />
</svg>