<?xml version="1.0" encoding="utf-8"?>
<svg version="1.1" xmlns:xlink="http://www.w3.org/1999/xlink" width="12px" height="12px" viewBox="330 1673.5  12 12" xmlns="http://www.w3.org/2000/svg">
  <path d="M 336 1673.5  C 339.36 1673.5  342 1676.14  342 1679.5  C 342 1682.86  339.36 1685.5  336 1685.5  C 332.64 1685.5  330 1682.86  330 1679.5  C 330 1676.14  332.64 1673.5  336 1673.5  Z " fill-rule="nonzero" fill="#ffffff" stroke="none" />
  <path d="M 336 1674  C 339.08 1674  341.5 1676.42  341.5 1679.5  C 341.5 1682.58  339.08 1685  336 1685  C 332.92 1685  330.5 1682.58  330.5 1679.5  C 330.5 1676.42  332.92 1674  336 1674  Z " stroke-width="1" stroke="#797979" fill="none" />
  <path d="M 336 1682.5  C 334.32 1682.5  333 1681.18  333 1679.5  C 333 1677.82  334.32 1676.5  336 1676.5  C 337.68 1676.5  339 1677.82  339 1679.5  C 339 1681.18  337.68 1682.5  336 1682.5  " fill-rule="nonzero" fill="#797979" stroke="none" />
</svg>