<?xml version="1.0" encoding="utf-8"?>
<svg version="1.1" xmlns:xlink="http://www.w3.org/1999/xlink" width="12px" height="12px" viewBox="330 2125.5  12 12" xmlns="http://www.w3.org/2000/svg">
  <path d="M 336 2125.5  C 339.36 2125.5  342 2128.14  342 2131.5  C 342 2134.86  339.36 2137.5  336 2137.5  C 332.64 2137.5  330 2134.86  330 2131.5  C 330 2128.14  332.64 2125.5  336 2125.5  Z " fill-rule="nonzero" fill="#ffffff" stroke="none" />
  <path d="M 336 2126  C 339.08 2126  341.5 2128.42  341.5 2131.5  C 341.5 2134.58  339.08 2137  336 2137  C 332.92 2137  330.5 2134.58  330.5 2131.5  C 330.5 2128.42  332.92 2126  336 2126  Z " stroke-width="1" stroke="#797979" fill="none" />
  <path d="M 336 2134.5  C 334.32 2134.5  333 2133.18  333 2131.5  C 333 2129.82  334.32 2128.5  336 2128.5  C 337.68 2128.5  339 2129.82  339 2131.5  C 339 2133.18  337.68 2134.5  336 2134.5  " fill-rule="nonzero" fill="#797979" stroke="none" />
</svg>