<?xml version="1.0" encoding="utf-8"?>
<svg version="1.1" xmlns:xlink="http://www.w3.org/1999/xlink" width="12px" height="12px" viewBox="330 2180.5  12 12" xmlns="http://www.w3.org/2000/svg">
  <path d="M 336 2180.5  C 339.36 2180.5  342 2183.14  342 2186.5  C 342 2189.86  339.36 2192.5  336 2192.5  C 332.64 2192.5  330 2189.86  330 2186.5  C 330 2183.14  332.64 2180.5  336 2180.5  Z " fill-rule="nonzero" fill="#ffffff" stroke="none" />
  <path d="M 336 2181  C 339.08 2181  341.5 2183.42  341.5 2186.5  C 341.5 2189.58  339.08 2192  336 2192  C 332.92 2192  330.5 2189.58  330.5 2186.5  C 330.5 2183.42  332.92 2181  336 2181  Z " stroke-width="1" stroke="#797979" fill="none" />
  <path d="M 336 2189.5  C 334.32 2189.5  333 2188.18  333 2186.5  C 333 2184.82  334.32 2183.5  336 2183.5  C 337.68 2183.5  339 2184.82  339 2186.5  C 339 2188.18  337.68 2189.5  336 2189.5  " fill-rule="nonzero" fill="#797979" stroke="none" />
</svg>