<?xml version="1.0" encoding="utf-8"?>
<svg version="1.1" xmlns:xlink="http://www.w3.org/1999/xlink" width="12px" height="12px" viewBox="330 2209.5  12 12" xmlns="http://www.w3.org/2000/svg">
  <path d="M 336 2209.5  C 339.36 2209.5  342 2212.14  342 2215.5  C 342 2218.86  339.36 2221.5  336 2221.5  C 332.64 2221.5  330 2218.86  330 2215.5  C 330 2212.14  332.64 2209.5  336 2209.5  Z " fill-rule="nonzero" fill="#ffffff" stroke="none" />
  <path d="M 336 2210  C 339.08 2210  341.5 2212.42  341.5 2215.5  C 341.5 2218.58  339.08 2221  336 2221  C 332.92 2221  330.5 2218.58  330.5 2215.5  C 330.5 2212.42  332.92 2210  336 2210  Z " stroke-width="1" stroke="#797979" fill="none" />
  <path d="M 336 2218.5  C 334.32 2218.5  333 2217.18  333 2215.5  C 333 2213.82  334.32 2212.5  336 2212.5  C 337.68 2212.5  339 2213.82  339 2215.5  C 339 2217.18  337.68 2218.5  336 2218.5  " fill-rule="nonzero" fill="#797979" stroke="none" />
</svg>