<?xml version="1.0" encoding="utf-8"?>
<svg version="1.1" xmlns:xlink="http://www.w3.org/1999/xlink" width="12px" height="12px" viewBox="330 2152.5  12 12" xmlns="http://www.w3.org/2000/svg">
  <path d="M 336 2152.5  C 339.36 2152.5  342 2155.14  342 2158.5  C 342 2161.86  339.36 2164.5  336 2164.5  C 332.64 2164.5  330 2161.86  330 2158.5  C 330 2155.14  332.64 2152.5  336 2152.5  Z " fill-rule="nonzero" fill="#ffffff" stroke="none" />
  <path d="M 336 2153  C 339.08 2153  341.5 2155.42  341.5 2158.5  C 341.5 2161.58  339.08 2164  336 2164  C 332.92 2164  330.5 2161.58  330.5 2158.5  C 330.5 2155.42  332.92 2153  336 2153  Z " stroke-width="1" stroke="#797979" fill="none" />
  <path d="M 336 2161.5  C 334.32 2161.5  333 2160.18  333 2158.5  C 333 2156.82  334.32 2155.5  336 2155.5  C 337.68 2155.5  339 2156.82  339 2158.5  C 339 2160.18  337.68 2161.5  336 2161.5  " fill-rule="nonzero" fill="#797979" stroke="none" />
</svg>