<?xml version="1.0" encoding="utf-8"?>
<svg version="1.1" xmlns:xlink="http://www.w3.org/1999/xlink" width="68px" height="103px" xmlns="http://www.w3.org/2000/svg">
  <g transform="matrix(1 0 0 1 -3939 -1106 )">
    <path d="M 67.15 56.8255681818182  C 67.7166666666667 57.7619318181818  68 58.7958333333333  68 59.9272727272727  C 68 61.4878787878788  67.5041666666667 62.8143939393939  66.5125 63.9068181818182  C 65.5208333333333 64.9992424242424  64.3166666666667 65.5454545454545  62.9 65.5454545454545  C 61.09375 65.5454545454545  59.6770833333333 64.7066287878788  58.65 63.0289772727273  L 46.590625 43.0727272727273  L 44.2 43.0727272727273  L 44.2 50.7977272727273  L 57.321875 74.8505681818182  C 57.640625 75.4357954545455  57.8 76.0795454545455  57.8 76.7818181818182  C 57.8 77.7962121212121  57.4635416666667 78.674053030303  56.790625 79.4153409090909  C 56.1177083333333 80.1566287878788  55.3208333333333 80.5272727272727  54.4 80  L 44 80  L 44 96.4454545454546  C 44.2 98.2401515151515  43.615625 99.78125  42.446875 101.06875  C 41.278125 102.35625  39.8791666666667 103  38.25 103  L 29.75 103  C 28.1208333333333 103  26.721875 102.35625  25.553125 101.06875  C 24.384375 99.78125  23.8 98.2401515151515  24 96.4454545454546  L 24 80  L 13.6 80  C 12.6791666666667 80.5272727272727  11.8822916666667 80.1566287878788  11.209375 79.4153409090909  C 10.5364583333333 78.674053030303  10.2 77.7962121212121  10.2 76.7818181818182  C 10.2 76.0795454545455  10.359375 75.4357954545455  10.678125 74.8505681818182  L 23.8 50.7977272727273  L 23.8 43.0727272727273  L 21.409375 43.0727272727273  L 9.35 63.0289772727273  C 8.32291666666667 64.7066287878788  6.90625 65.5454545454545  5.1 65.5454545454545  C 3.68333333333333 65.5454545454545  2.47916666666667 64.9992424242424  1.4875 63.9068181818182  C 0.495833333333333 62.8143939393939  0 61.4878787878788  0 59.9272727272727  C 0 58.7958333333333  0.283333333333333 57.7619318181818  0.85 56.8255681818182  L 14.45 34.3528409090909  C 17.0354166666667 30.1782196969697  20.1520833333333 28.0909090909091  23.8 28  L 44.2 28  C 47.8479166666667 28.0909090909091  50.9645833333333 30.1782196969697  53.55 34.3528409090909  L 67.15 56.8255681818182  Z M 42.4203125 3.83323863636364  C 44.7401041666667 6.38873106060605  45.9 9.48068181818182  45.9 13.1090909090909  C 45.9 16.7375  44.7401041666667 19.8294507575758  42.4203125 22.3849431818182  C 40.1005208333333 24.9404356060606  37.29375 26.2181818181818  34 26.2181818181818  C 30.70625 26.2181818181818  27.8994791666667 24.9404356060606  25.5796875 22.3849431818182  C 23.2598958333333 19.8294507575758  22.1 16.7375  22.1 13.1090909090909  C 22.1 9.48068181818182  23.2598958333333 6.38873106060605  25.5796875 3.83323863636364  C 27.8994791666667 1.27774621212121  30.70625 0  34 0  C 37.29375 0  40.1005208333333 1.27774621212121  42.4203125 3.83323863636364  Z " fill-rule="nonzero" fill="#d7d7d7" stroke="none" transform="matrix(1 0 0 1 3939 1106 )" />
  </g>
</svg>