<?xml version="1.0" encoding="utf-8"?>
<svg version="1.1" xmlns:xlink="http://www.w3.org/1999/xlink" width="60px" height="103px" xmlns="http://www.w3.org/2000/svg">
  <g transform="matrix(1 0 0 1 -3818 -1105 )">
    <path d="M 56.71875 31.3681818181818  C 58.90625 33.5530303030303  60 36.2060606060606  60 39.3272727272727  L 60 63.6727272727273  C 60 65.2333333333333  59.453125 66.5598484848485  58.359375 67.6522727272727  C 57.265625 68.744696969697  55.9375 69.2909090909091  54.375 69.2909090909091  C 52.8125 69.2909090909091  51.484375 68.744696969697  50.390625 67.6522727272727  C 49.296875 66.5598484848485  48.75 65.2333333333333  48 63.6727272727273  L 48 43.0727272727273  L 45 43.0727272727273  L 45 96.4454545454546  C 45 98.2401515151515  44.35546875 99.78125  43.06640625 101.06875  C 41.77734375 102.35625  40.234375 103  38.4375 103  C 36.640625 103  35.09765625 102.35625  33.80859375 101.06875  C 32.51953125 99.78125  31.875 98.2401515151515  31 96.4454545454546  L 31 69.2909090909091  L 29 69.2909090909091  L 29 96.4454545454546  C 28.125 98.2401515151515  27.48046875 99.78125  26.19140625 101.06875  C 24.90234375 102.35625  23.359375 103  21.5625 103  C 19.765625 103  18.22265625 102.35625  16.93359375 101.06875  C 15.64453125 99.78125  15 98.2401515151515  15 96.4454545454546  L 15 43.0727272727273  L 12 43.0727272727273  L 12 63.6727272727273  C 11.25 65.2333333333333  10.703125 66.5598484848485  9.609375 67.6522727272727  C 8.515625 68.744696969697  7.1875 69.2909090909091  5.625 69.2909090909091  C 4.0625 69.2909090909091  2.734375 68.744696969697  1.640625 67.6522727272727  C 0.546875 66.5598484848485  0 65.2333333333333  0 63.6727272727273  L 0 39.3272727272727  C 0 36.2060606060606  1.09375 33.5530303030303  3.28125 31.3681818181818  C 5.46875 29.1833333333333  8.125 28.0909090909091  11.25 28  L 48.75 28  C 51.875 28.0909090909091  54.53125 29.1833333333333  56.71875 31.3681818181818  Z M 39.287109375 3.83323863636364  C 41.845703125 6.38873106060605  43.125 9.48068181818182  43.125 13.1090909090909  C 43.125 16.7375  41.845703125 19.8294507575758  39.287109375 22.3849431818182  C 36.728515625 24.9404356060606  33.6328125 26.2181818181818  30 26.2181818181818  C 26.3671875 26.2181818181818  23.271484375 24.9404356060606  20.712890625 22.3849431818182  C 18.154296875 19.8294507575758  16.875 16.7375  16.875 13.1090909090909  C 16.875 9.48068181818182  18.154296875 6.38873106060605  20.712890625 3.83323863636364  C 23.271484375 1.27774621212121  26.3671875 0  30 0  C 33.6328125 0  36.728515625 1.27774621212121  39.287109375 3.83323863636364  Z " fill-rule="nonzero" fill="#d7d7d7" stroke="none" transform="matrix(1 0 0 1 3818 1105 )" />
  </g>
</svg>