<?xml version="1.0" encoding="utf-8"?>
<svg version="1.1" xmlns:xlink="http://www.w3.org/1999/xlink" width="62px" height="62px" xmlns="http://www.w3.org/2000/svg">
  <g transform="matrix(1 0 0 1 -1603 -1892 )">
    <path d="M 1634 1892  C 1651.36 1892  1665 1905.64  1665 1923  C 1665 1940.36  1651.36 1954  1634 1954  C 1616.64 1954  1603 1940.36  1603 1923  C 1603 1905.64  1616.64 1892  1634 1892  Z " fill-rule="nonzero" fill="#ffffff" stroke="none" />
    <path d="M 1634 1892.5  C 1651.08 1892.5  1664.5 1905.92  1664.5 1923  C 1664.5 1940.08  1651.08 1953.5  1634 1953.5  C 1616.92 1953.5  1603.5 1940.08  1603.5 1923  C 1603.5 1905.92  1616.92 1892.5  1634 1892.5  Z " stroke-width="1" stroke="#797979" fill="none" />
  </g>
</svg>