<?xml version="1.0" encoding="utf-8"?>
<svg version="1.1" xmlns:xlink="http://www.w3.org/1999/xlink" width="92px" height="52px" xmlns="http://www.w3.org/2000/svg">
  <g transform="matrix(1 0 0 1 -2237 -2174 )">
    <path d="M 2283 2174  C 2308.76 2174  2329 2185.44  2329 2200  C 2329 2214.56  2308.76 2226  2283 2226  C 2257.24 2226  2237 2214.56  2237 2200  C 2237 2185.44  2257.24 2174  2283 2174  Z " fill-rule="nonzero" fill="#ffffff" stroke="none" />
    <path d="M 2283 2174.5  C 2308.48 2174.5  2328.5 2185.72  2328.5 2200  C 2328.5 2214.28  2308.48 2225.5  2283 2225.5  C 2257.52 2225.5  2237.5 2214.28  2237.5 2200  C 2237.5 2185.72  2257.52 2174.5  2283 2174.5  Z " stroke-width="1" stroke="#797979" fill="none" />
  </g>
</svg>