<?xml version="1.0" encoding="utf-8"?>
<svg version="1.1" xmlns:xlink="http://www.w3.org/1999/xlink" width="21px" height="26px" xmlns="http://www.w3.org/2000/svg">
  <g transform="matrix(1 0 0 1 -2047 -2114 )">
    <path d="M 5.83333333333333 8.27272727272727  L 5.83333333333333 11.8181818181818  L 15.1666666666667 11.8181818181818  L 15.1666666666667 8.27272727272727  C 15.1666666666667 6.96780303030303  14.7109375 5.85369318181818  13.7994791666667 4.93039772727273  C 12.8880208333333 4.00710227272727  11.7881944444444 3.54545454545455  10.5 3.54545454545455  C 9.21180555555556 3.54545454545455  8.11197916666667 4.00710227272727  7.20052083333333 4.93039772727273  C 6.2890625 5.85369318181818  5.83333333333333 6.96780303030303  5.83333333333333 8.27272727272727  Z M 20.4895833333333 12.3352272727273  C 20.8298611111111 12.6799242424242  21 13.0984848484848  21 13.5909090909091  L 21 24.2272727272727  C 21 24.719696969697  20.8298611111111 25.1382575757576  20.4895833333333 25.4829545454545  C 20.1493055555556 25.8276515151515  19.7361111111111 26  19.25 26  L 1.75 26  C 1.26388888888889 26  0.850694444444445 25.8276515151515  0.510416666666667 25.4829545454545  C 0.170138888888889 25.1382575757576  0 24.719696969697  0 24.2272727272727  L 0 13.5909090909091  C 0 13.0984848484848  0.170138888888889 12.6799242424242  0.510416666666667 12.3352272727273  C 0.850694444444445 11.9905303030303  1.26388888888889 11.8181818181818  1.75 11.8181818181818  L 2.33333333333333 11.8181818181818  L 2.33333333333333 8.27272727272727  C 2.33333333333333 6.00757575757576  3.13541666666667 4.0625  4.73958333333333 2.4375  C 6.34375 0.8125  8.26388888888889 0  10.5 0  C 12.7361111111111 0  14.65625 0.8125  16.2604166666667 2.4375  C 17.8645833333333 4.0625  18.6666666666667 6.00757575757576  18.6666666666667 8.27272727272727  L 18.6666666666667 11.8181818181818  L 19.25 11.8181818181818  C 19.7361111111111 11.8181818181818  20.1493055555556 11.9905303030303  20.4895833333333 12.3352272727273  Z " fill-rule="nonzero" fill="#ffffff" stroke="none" transform="matrix(1 0 0 1 2047 2114 )" />
  </g>
</svg>