<?xml version="1.0" encoding="utf-8"?>
<svg version="1.1" xmlns:xlink="http://www.w3.org/1999/xlink" width="30px" height="41px" xmlns="http://www.w3.org/2000/svg">
  <g transform="matrix(1 0 0 1 -2264 -2127 )">
    <path d="M 30 8.13149752475248  C 30 8.79960808580858  29.7569444444444 9.37046204620462  29.2708333333333 9.84405940594059  L 21.6666666666667 17.2524752475248  L 21.6666666666667 38.1584158415842  C 21.6666666666667 38.9364686468647  21.3802083333333 39.6045792079208  20.8072916666667 40.1627475247525  C 20.234375 40.7209158415842  19.5486111111111 41  18.75 41  C 17.9513888888889 41  17.265625 40.7209158415842  16.6927083333333 40.1627475247525  C 16.1197916666667 39.6045792079208  15.8333333333333 38.9364686468647  15.8333333333333 38.1584158415842  L 15.8333333333333 28.4158415841584  L 14.1666666666667 28.4158415841584  L 14.1666666666667 38.1584158415842  C 14.1666666666667 38.9364686468647  13.8802083333333 39.6045792079208  13.3072916666667 40.1627475247525  C 12.734375 40.7209158415842  12.0486111111111 41  11.25 41  C 10.4513888888889 41  9.765625 40.7209158415842  9.19270833333333 40.1627475247525  C 8.61979166666667 39.6045792079208  8.33333333333333 38.9364686468647  8.33333333333333 38.1584158415842  L 8.33333333333333 17.2524752475248  L 0.729166666666667 9.84405940594059  C 0.243055555555556 9.37046204620462  0 8.79537953795379  0 8.11881188118812  C 0 7.44224422442244  0.243055555555556 6.86716171617161  0.729166666666667 6.39356435643565  C 1.23263888888889 5.91996699669967  1.82725694444444 5.68316831683168  2.51302083333333 5.68316831683168  C 3.19878472222222 5.68316831683168  3.78472222222222 5.91996699669967  4.27083333333333 6.39356435643565  L 10.2083333333333 12.1782178217822  L 19.7916666666667 12.1782178217822  L 25.7291666666667 6.39356435643565  C 26.2152777777778 5.91996699669967  26.8055555555556 5.68316831683168  27.5 5.68316831683168  C 28.1944444444444 5.68316831683168  28.7847222222222 5.91996699669967  29.2708333333333 6.39356435643565  C 29.7569444444444 6.88407590759076  30 7.46338696369637  30 8.13149752475248  Z M 19.1276041666667 1.66181930693069  C 20.2647569444444 2.76969884488448  20.8333333333333 4.11014851485148  20.8333333333333 5.68316831683168  C 20.8333333333333 7.25618811881188  20.2647569444444 8.59663778877887  19.1276041666667 9.70451732673267  C 17.9904513888889 10.8123968646865  16.6145833333333 11.3663366336634  15 11.3663366336634  C 13.3854166666667 11.3663366336634  12.0095486111111 10.8123968646865  10.8723958333333 9.70451732673267  C 9.73524305555556 8.59663778877887  9.16666666666667 7.25618811881188  9.16666666666667 5.68316831683168  C 9.16666666666667 4.11014851485148  9.73524305555556 2.76969884488448  10.8723958333333 1.66181930693069  C 12.0095486111111 0.553939768976894  13.3854166666667 0  15 0  C 16.6145833333333 0  17.9904513888889 0.553939768976894  19.1276041666667 1.66181930693069  Z " fill-rule="nonzero" fill="#d7d7d7" stroke="none" transform="matrix(1 0 0 1 2264 2127 )" />
  </g>
</svg>