<?xml version="1.0" encoding="utf-8"?>
<svg version="1.1" xmlns:xlink="http://www.w3.org/1999/xlink" width="300px" height="231px" xmlns="http://www.w3.org/2000/svg">
  <g transform="matrix(1 0 0 1 -382 -3169 )">
    <path d="M 382.5 3345.28571428571  C 382.5 3345.28571428571  382.5 3169.5  382.5 3169.5  C 382.5 3169.5  681.5 3169.5  681.5 3169.5  C 681.5 3169.5  681.5 3345.28571428571  681.5 3345.28571428571  C 681.5 3345.28571428571  461.824067896768 3345.28571428571  461.824067896768 3345.28571428571  C 461.824067896768 3345.28571428571  398.024535254437 3396.52741172498  398.024535254437 3396.52741172498  C 398.024535254437 3396.52741172498  432.945821771991 3345.28571428571  432.945821771991 3345.28571428571  C 432.945821771991 3345.28571428571  382.5 3345.28571428571  382.5 3345.28571428571  Z " fill-rule="nonzero" fill="#ffffff" stroke="none" />
    <path d="M 382 3345.78571428571  C 382 3345.78571428571  382 3169  382 3169  C 382 3169  682 3169  682 3169  C 682 3169  682 3345.78571428571  682 3345.78571428571  C 682 3345.78571428571  462 3345.78571428571  462 3345.78571428571  C 462 3345.78571428571  395.722222222222 3399.01785714286  395.722222222222 3399.01785714286  C 395.722222222222 3399.01785714286  432 3345.78571428571  432 3345.78571428571  C 432 3345.78571428571  382 3345.78571428571  382 3345.78571428571  Z M 383 3344.78571428571  C 383 3344.78571428571  433.891643543982 3344.78571428571  433.891643543982 3344.78571428571  C 433.891643543982 3344.78571428571  400.326848286651 3394.0369663071  400.326848286651 3394.0369663071  C 400.326848286651 3394.0369663071  461.648135793536 3344.78571428571  461.648135793536 3344.78571428571  C 461.648135793536 3344.78571428571  681 3344.78571428571  681 3344.78571428571  C 681 3344.78571428571  681 3170  681 3170  C 681 3170  383 3170  383 3170  C 383 3170  383 3344.78571428571  383 3344.78571428571  Z " fill-rule="nonzero" fill="#797979" stroke="none" />
  </g>
</svg>