<?xml version="1.0" encoding="utf-8"?>
<svg version="1.1" xmlns:xlink="http://www.w3.org/1999/xlink" width="300px" height="275px" xmlns="http://www.w3.org/2000/svg">
  <g transform="matrix(1 0 0 1 -2880 -3128 )">
    <path d="M 2880.5 3337.95918367347  C 2880.5 3337.95918367347  2880.5 3128.5  2880.5 3128.5  C 2880.5 3128.5  3179.5 3128.5  3179.5 3128.5  C 3179.5 3128.5  3179.5 3337.95918367347  3179.5 3337.95918367347  C 3179.5 3337.95918367347  2959.7994274644 3337.95918367347  2959.7994274644 3337.95918367347  C 2959.7994274644 3337.95918367347  2895.86994864259 3399.08545267284  2895.86994864259 3399.08545267284  C 2895.86994864259 3399.08545267284  2930.86236244866 3337.95918367347  2930.86236244866 3337.95918367347  C 2930.86236244866 3337.95918367347  2880.5 3337.95918367347  2880.5 3337.95918367347  Z " fill-rule="nonzero" fill="#ffffff" stroke="none" />
    <path d="M 2880 3338.45918367347  C 2880 3338.45918367347  2880 3128  2880 3128  C 2880 3128  3180 3128  3180 3128  C 3180 3128  3180 3338.45918367347  3180 3338.45918367347  C 3180 3338.45918367347  2960 3338.45918367347  2960 3338.45918367347  C 2960 3338.45918367347  2893.72222222222 3401.83078231293  2893.72222222222 3401.83078231293  C 2893.72222222222 3401.83078231293  2930 3338.45918367347  2930 3338.45918367347  C 2930 3338.45918367347  2880 3338.45918367347  2880 3338.45918367347  Z M 2881 3337.45918367347  C 2881 3337.45918367347  2931.72472489733 3337.45918367347  2931.72472489733 3337.45918367347  C 2931.72472489733 3337.45918367347  2898.01767506297 3396.34012303276  2898.01767506297 3396.34012303276  C 2898.01767506297 3396.34012303276  2959.5988549288 3337.45918367347  2959.5988549288 3337.45918367347  C 2959.5988549288 3337.45918367347  3179 3337.45918367347  3179 3337.45918367347  C 3179 3337.45918367347  3179 3129  3179 3129  C 3179 3129  2881 3129  2881 3129  C 2881 3129  2881 3337.45918367347  2881 3337.45918367347  Z " fill-rule="nonzero" fill="#797979" stroke="none" />
  </g>
</svg>