<?xml version="1.0" encoding="utf-8"?>
<svg version="1.1" xmlns:xlink="http://www.w3.org/1999/xlink" width="300px" height="214px" xmlns="http://www.w3.org/2000/svg">
  <g transform="matrix(1 0 0 1 -2137 -1087 )">
    <path d="M 2137.5 1272.69118745332  C 2137.5 1272.69118745332  2137.5 1087.5  2137.5 1087.5  C 2137.5 1087.5  2436.5 1087.5  2436.5 1087.5  C 2436.5 1087.5  2436.5 1272.69118745332  2436.5 1272.69118745332  C 2436.5 1272.69118745332  2216.86876245224 1272.69118745332  2216.86876245224 1272.69118745332  C 2216.86876245224 1272.69118745332  2170.29642819038 1298.94827754336  2170.29642819038 1298.94827754336  C 2170.29642819038 1298.94827754336  2187.9383233858 1272.69118745332  2187.9383233858 1272.69118745332  C 2187.9383233858 1272.69118745332  2137.5 1272.69118745332  2137.5 1272.69118745332  Z " fill-rule="nonzero" fill="#ffffff" stroke="none" />
    <path d="M 2137 1273.19118745332  C 2137 1273.19118745332  2137 1087  2137 1087  C 2137 1087  2437 1087  2437 1087  C 2437 1087  2437 1273.19118745332  2437 1273.19118745332  C 2437 1273.19118745332  2217 1273.19118745332  2217 1273.19118745332  C 2217 1273.19118745332  2168.70588235294 1300.41900452489  2168.70588235294 1300.41900452489  C 2168.70588235294 1300.41900452489  2187 1273.19118745332  2187 1273.19118745332  C 2187 1273.19118745332  2137 1273.19118745332  2137 1273.19118745332  Z M 2138 1272.19118745332  C 2138 1272.19118745332  2188.8766467716 1272.19118745332  2188.8766467716 1272.19118745332  C 2188.8766467716 1272.19118745332  2171.88697402782 1297.47755056183  2171.88697402782 1297.47755056183  C 2171.88697402782 1297.47755056183  2216.73752490449 1272.19118745332  2216.73752490449 1272.19118745332  C 2216.73752490449 1272.19118745332  2436 1272.19118745332  2436 1272.19118745332  C 2436 1272.19118745332  2436 1088  2436 1088  C 2436 1088  2138 1088  2138 1088  C 2138 1088  2138 1272.19118745332  2138 1272.19118745332  Z " fill-rule="nonzero" fill="#797979" stroke="none" />
  </g>
</svg>