<?xml version="1.0" encoding="utf-8"?>
<svg version="1.1" xmlns:xlink="http://www.w3.org/1999/xlink" width="122px" height="167px" xmlns="http://www.w3.org/2000/svg">
  <g transform="matrix(1 0 0 1 -1919 -1102 )">
    <path d="M 122 33.1209777227723  C 122 35.8423061056105  121.011574074074 38.1674917491749  119.034722222222 40.0965346534653  L 88 70.2722772277228  L 88 155.425742574257  C 88.1111111111111 158.594884488449  86.9461805555556 161.316212871287  84.6163194444444 163.589727722772  C 82.2864583333333 165.863242574257  79.4976851851852 167  76.25 167  C 73.0023148148148 167  70.2135416666667 165.863242574257  67.8836805555556 163.589727722772  C 65.5538194444444 161.316212871287  64.3888888888889 158.594884488449  64 155.425742574257  L 64 115.742574257426  L 58 115.742574257426  L 58 155.425742574257  C 57.6111111111111 158.594884488449  56.4461805555556 161.316212871287  54.1163194444444 163.589727722772  C 51.7864583333333 165.863242574257  48.9976851851852 167  45.75 167  C 42.5023148148148 167  39.7135416666667 165.863242574257  37.3836805555556 163.589727722772  C 35.0538194444444 161.316212871287  33.8888888888889 158.594884488449  34 155.425742574257  L 34 70.2722772277228  L 2.96527777777778 40.0965346534653  C 0.988425925925927 38.1674917491749  0 35.8250825082508  0 33.0693069306931  C 0 30.3135313531353  0.988425925925927 27.9711221122112  2.96527777777778 26.0420792079208  C 5.01273148148148 24.1130363036304  7.43084490740741 23.1485148514852  10.2196180555556 23.1485148514852  C 13.0083912037037 23.1485148514852  15.3912037037037 24.1130363036304  17.3680555555556 26.0420792079208  L 41.5138888888889 50  L 80.4861111111111 50  L 104.631944444444 26.0420792079208  C 106.608796296296 24.1130363036304  109.009259259259 23.1485148514852  111.833333333333 23.1485148514852  C 114.657407407407 23.1485148514852  117.05787037037 24.1130363036304  119.034722222222 26.0420792079208  C 121.011574074074 28.0400165016502  122 30.399649339934  122 33.1209777227723  Z M 77.7855902777778 6.76887376237623  C 82.4100115740741 11.281456270627  84.7222222222222 16.7413366336634  84.7222222222222 23.1485148514852  C 84.7222222222222 29.5556930693069  82.4100115740741 35.0155734323432  77.7855902777778 39.5281559405941  C 73.1611689814815 44.0407384488449  67.5659722222222 46.2970297029703  61 46.2970297029703  C 54.4340277777778 46.2970297029703  48.8388310185185 44.0407384488449  44.2144097222222 39.5281559405941  C 39.5899884259259 35.0155734323432  37.2777777777778 29.5556930693069  37.2777777777778 23.1485148514852  C 37.2777777777778 16.7413366336634  39.5899884259259 11.281456270627  44.2144097222222 6.76887376237623  C 48.8388310185185 2.2562912541254  54.4340277777778 0  61 0  C 67.5659722222222 0  73.1611689814815 2.2562912541254  77.7855902777778 6.76887376237623  Z " fill-rule="nonzero" fill="#d7d7d7" stroke="none" transform="matrix(1 0 0 1 1919 1102 )" />
  </g>
</svg>