<?xml version="1.0" encoding="utf-8"?>
<svg version="1.1" xmlns:xlink="http://www.w3.org/1999/xlink" width="300px" height="223px" xmlns="http://www.w3.org/2000/svg">
  <g transform="matrix(1 0 0 1 -2943 -1087 )">
    <path d="M 2943.5 1280.5216579537  C 2943.5 1280.5216579537  2943.5 1087.5  2943.5 1087.5  C 2943.5 1087.5  3242.5 1087.5  3242.5 1087.5  C 3242.5 1087.5  3242.5 1280.5216579537  3242.5 1280.5216579537  C 3242.5 1280.5216579537  3022.86399209699 1280.5216579537  3022.86399209699 1280.5216579537  C 3022.86399209699 1280.5216579537  2976.26550981192 1307.89838021526  2976.26550981192 1307.89838021526  C 2976.26550981192 1307.89838021526  2993.91731004415 1280.5216579537  2993.91731004415 1280.5216579537  C 2993.91731004415 1280.5216579537  2943.5 1280.5216579537  2943.5 1280.5216579537  Z " fill-rule="nonzero" fill="#ffffff" stroke="none" />
    <path d="M 2943 1281.0216579537  C 2943 1281.0216579537  2943 1087  2943 1087  C 2943 1087  3243 1087  3243 1087  C 3243 1087  3243 1281.0216579537  3243 1281.0216579537  C 3243 1281.0216579537  3023 1281.0216579537  3023 1281.0216579537  C 3023 1281.0216579537  2974.70588235294 1309.39457013575  2974.70588235294 1309.39457013575  C 2974.70588235294 1309.39457013575  2993 1281.0216579537  2993 1281.0216579537  C 2993 1281.0216579537  2943 1281.0216579537  2943 1281.0216579537  Z M 2944 1280.0216579537  C 2944 1280.0216579537  2994.83462008829 1280.0216579537  2994.83462008829 1280.0216579537  C 2994.83462008829 1280.0216579537  2977.82513727091 1306.40219029478  2977.82513727091 1306.40219029478  C 2977.82513727091 1306.40219029478  3022.72798419397 1280.0216579537  3022.72798419397 1280.0216579537  C 3022.72798419397 1280.0216579537  3242 1280.0216579537  3242 1280.0216579537  C 3242 1280.0216579537  3242 1088  3242 1088  C 3242 1088  2944 1088  2944 1088  C 2944 1088  2944 1280.0216579537  2944 1280.0216579537  Z " fill-rule="nonzero" fill="#797979" stroke="none" />
  </g>
</svg>