<?xml version="1.0" encoding="utf-8"?>
<svg version="1.1" xmlns:xlink="http://www.w3.org/1999/xlink" width="300px" height="214px" xmlns="http://www.w3.org/2000/svg">
  <g transform="matrix(1 0 0 1 -2140 -1063 )">
    <path d="M 2140.5 1248.69118745332  C 2140.5 1248.69118745332  2140.5 1063.5  2140.5 1063.5  C 2140.5 1063.5  2439.5 1063.5  2439.5 1063.5  C 2439.5 1063.5  2439.5 1248.69118745332  2439.5 1248.69118745332  C 2439.5 1248.69118745332  2219.86876245224 1248.69118745332  2219.86876245224 1248.69118745332  C 2219.86876245224 1248.69118745332  2173.29642819038 1274.94827754336  2173.29642819038 1274.94827754336  C 2173.29642819038 1274.94827754336  2190.9383233858 1248.69118745332  2190.9383233858 1248.69118745332  C 2190.9383233858 1248.69118745332  2140.5 1248.69118745332  2140.5 1248.69118745332  Z " fill-rule="nonzero" fill="#ffffff" stroke="none" />
    <path d="M 2140 1249.19118745332  C 2140 1249.19118745332  2140 1063  2140 1063  C 2140 1063  2440 1063  2440 1063  C 2440 1063  2440 1249.19118745332  2440 1249.19118745332  C 2440 1249.19118745332  2220 1249.19118745332  2220 1249.19118745332  C 2220 1249.19118745332  2171.70588235294 1276.41900452489  2171.70588235294 1276.41900452489  C 2171.70588235294 1276.41900452489  2190 1249.19118745332  2190 1249.19118745332  C 2190 1249.19118745332  2140 1249.19118745332  2140 1249.19118745332  Z M 2141 1248.19118745332  C 2141 1248.19118745332  2191.8766467716 1248.19118745332  2191.8766467716 1248.19118745332  C 2191.8766467716 1248.19118745332  2174.88697402782 1273.47755056183  2174.88697402782 1273.47755056183  C 2174.88697402782 1273.47755056183  2219.73752490449 1248.19118745332  2219.73752490449 1248.19118745332  C 2219.73752490449 1248.19118745332  2439 1248.19118745332  2439 1248.19118745332  C 2439 1248.19118745332  2439 1064  2439 1064  C 2439 1064  2141 1064  2141 1064  C 2141 1064  2141 1248.19118745332  2141 1248.19118745332  Z " fill-rule="nonzero" fill="#797979" stroke="none" />
  </g>
</svg>