<?xml version="1.0" encoding="utf-8"?>
<svg version="1.1" xmlns:xlink="http://www.w3.org/1999/xlink" width="300px" height="223px" xmlns="http://www.w3.org/2000/svg">
  <g transform="matrix(1 0 0 1 -2946 -1063 )">
    <path d="M 2946.5 1256.5216579537  C 2946.5 1256.5216579537  2946.5 1063.5  2946.5 1063.5  C 2946.5 1063.5  3245.5 1063.5  3245.5 1063.5  C 3245.5 1063.5  3245.5 1256.5216579537  3245.5 1256.5216579537  C 3245.5 1256.5216579537  3025.86399209699 1256.5216579537  3025.86399209699 1256.5216579537  C 3025.86399209699 1256.5216579537  2979.26550981192 1283.89838021526  2979.26550981192 1283.89838021526  C 2979.26550981192 1283.89838021526  2996.91731004415 1256.5216579537  2996.91731004415 1256.5216579537  C 2996.91731004415 1256.5216579537  2946.5 1256.5216579537  2946.5 1256.5216579537  Z " fill-rule="nonzero" fill="#ffffff" stroke="none" />
    <path d="M 2946 1257.0216579537  C 2946 1257.0216579537  2946 1063  2946 1063  C 2946 1063  3246 1063  3246 1063  C 3246 1063  3246 1257.0216579537  3246 1257.0216579537  C 3246 1257.0216579537  3026 1257.0216579537  3026 1257.0216579537  C 3026 1257.0216579537  2977.70588235294 1285.39457013575  2977.70588235294 1285.39457013575  C 2977.70588235294 1285.39457013575  2996 1257.0216579537  2996 1257.0216579537  C 2996 1257.0216579537  2946 1257.0216579537  2946 1257.0216579537  Z M 2947 1256.0216579537  C 2947 1256.0216579537  2997.83462008829 1256.0216579537  2997.83462008829 1256.0216579537  C 2997.83462008829 1256.0216579537  2980.82513727091 1282.40219029478  2980.82513727091 1282.40219029478  C 2980.82513727091 1282.40219029478  3025.72798419397 1256.0216579537  3025.72798419397 1256.0216579537  C 3025.72798419397 1256.0216579537  3245 1256.0216579537  3245 1256.0216579537  C 3245 1256.0216579537  3245 1064  3245 1064  C 3245 1064  2947 1064  2947 1064  C 2947 1064  2947 1256.0216579537  2947 1256.0216579537  Z " fill-rule="nonzero" fill="#797979" stroke="none" />
  </g>
</svg>