<?xml version="1.0" encoding="utf-8"?>
<svg version="1.1" xmlns:xlink="http://www.w3.org/1999/xlink" width="56px" height="56px" xmlns="http://www.w3.org/2000/svg">
  <g transform="matrix(1 0 0 1 -3189 -1199 )">
    <path d="M 46.1927083333333 29.640625  C 46.6302083333333 29.203125  46.8489583333333 28.65625  46.8489583333333 28  C 46.8489583333333 27.34375  46.6302083333333 26.796875  46.1927083333333 26.359375  L 42.875 23.0416666666667  L 29.6770833333333 9.84375  C 29.2395833333333 9.40625  28.6927083333333 9.1875  28.0364583333333 9.1875  C 27.3802083333333 9.1875  26.8333333333333 9.40625  26.3958333333333 9.84375  L 23.078125 13.1614583333333  C 22.640625 13.5989583333333  22.421875 14.1458333333333  22.421875 14.8020833333333  C 22.421875 15.4583333333333  22.640625 16.0052083333333  23.078125 16.4427083333333  L 29.96875 24  L 11.6666666666667 24  C 11.0347222222222 23.3333333333333  10.4878472222222 23.5642361111111  10.0260416666667 24.0260416666667  C 9.56423611111111 24.4878472222222  9.33333333333333 25.0347222222222  9.33333333333333 25.6666666666667  L 9.33333333333333 30.3333333333333  C 9.33333333333333 30.9652777777778  9.56423611111111 31.5121527777778  10.0260416666667 31.9739583333333  C 10.4878472222222 32.4357638888889  11.0347222222222 32.6666666666667  11.6666666666667 32  L 29.96875 32  L 23.078125 39.5572916666667  C 22.6163194444444 40.0190972222222  22.3854166666667 40.5659722222222  22.3854166666667 41.1979166666667  C 22.3854166666667 41.8298611111111  22.6163194444444 42.3767361111111  23.078125 42.8385416666667  L 26.3958333333333 46.15625  C 26.8333333333333 46.59375  27.3802083333333 46.8125  28.0364583333333 46.8125  C 28.6927083333333 46.8125  29.2395833333333 46.59375  29.6770833333333 46.15625  L 42.875 32.9583333333333  L 46.1927083333333 29.640625  Z M 52.2447916666667 13.9453125  C 54.7482638888889 18.2352430555556  56 22.9201388888889  56 28  C 56 33.0798611111111  54.7482638888889 37.7647569444444  52.2447916666667 42.0546875  C 49.7413194444445 46.3446180555556  46.3446180555556 49.7413194444444  42.0546875 52.2447916666667  C 37.7647569444445 54.7482638888889  33.0798611111111 56  28 56  C 22.9201388888889 56  18.2352430555556 54.7482638888889  13.9453125 52.2447916666667  C 9.65538194444444 49.7413194444444  6.25868055555556 46.3446180555556  3.75520833333333 42.0546875  C 1.25173611111111 37.7647569444444  0 33.0798611111111  0 28  C 0 22.9201388888889  1.25173611111111 18.2352430555556  3.75520833333333 13.9453125  C 6.25868055555556 9.65538194444444  9.65538194444444 6.25868055555555  13.9453125 3.75520833333333  C 18.2352430555556 1.25173611111111  22.9201388888889 0  28 0  C 33.0798611111111 0  37.7647569444445 1.25173611111111  42.0546875 3.75520833333333  C 46.3446180555556 6.25868055555555  49.7413194444445 9.65538194444444  52.2447916666667 13.9453125  Z " fill-rule="nonzero" fill="#d7d7d7" stroke="none" transform="matrix(1 0 0 1 3189 1199 )" />
  </g>
</svg>