<?xml version="1.0" encoding="utf-8"?>
<svg version="1.1" xmlns:xlink="http://www.w3.org/1999/xlink" width="129px" height="55px" xmlns="http://www.w3.org/2000/svg">
  <g transform="matrix(1 0 0 1 -525 -818 )">
    <path d="M 525 836.857142857143  C 525 826.442630431762  533.442630431762 818  543.857142857143 818  C 543.857142857143 818  635.142857142857 818  635.142857142857 818  C 645.557369568238 818  654 826.442630431762  654 836.857142857143  C 654 847.271655282524  645.557369568238 855.714285714286  635.142857142857 855.714285714286  C 635.142857142857 855.714285714286  564.677272727273 855.714285714286  564.677272727273 855.714285714286  C 564.677272727273 855.714285714286  563.329745596869 872.904761904762  563.329745596869 872.904761904762  C 563.329745596869 872.904761904762  544.386904005086 855.714285714286  544.386904005086 855.714285714286  C 544.386904005086 855.714285714286  543.857142857143 855.714285714286  543.857142857143 855.714285714286  C 533.442630431762 855.714285714286  525 847.271655282524  525 836.857142857143  Z " fill-rule="nonzero" fill="#d7d7d7" stroke="none" />
  </g>
</svg>