<?xml version="1.0" encoding="utf-8"?>
<svg version="1.1" xmlns:xlink="http://www.w3.org/1999/xlink" width="423px" height="145px" xmlns="http://www.w3.org/2000/svg">
  <g transform="matrix(1 0 0 1 -280 -361 )">
    <path d="M 280.5 457.184971098266  C 280.5 457.184971098266  280.5 381  280.5 381  C 280.5 370.2304473783  289.2304473783 361.5  300 361.5  C 300 361.5  683 361.5  683 361.5  C 693.769552621701 361.5  702.5 370.2304473783  702.5 381  C 702.5 381  702.5 457.184971098266  702.5 457.184971098266  C 702.5 467.954523719966  693.769552621701 476.684971098266  683 476.684971098266  C 683 476.684971098266  392.681662453546 476.684971098266  392.681662453546 476.684971098266  C 392.681662453546 476.684971098266  337.135765264419 504.537811482322  337.135765264419 504.537811482322  C 337.135765264419 504.537811482322  351.315615779249 476.684971098266  351.315615779249 476.684971098266  C 351.315615779249 476.684971098266  300 476.684971098266  300 476.684971098266  C 289.2304473783 476.684971098266  280.5 467.954523719966  280.5 457.184971098266  Z " fill-rule="nonzero" fill="#ffffff" stroke="none" />
    <path d="M 280 457.184971098266  C 280 457.184971098266  280 381  280 381  C 280 369.954305003384  288.954305003384 361  300 361  C 300 361  683 361  683 361  C 694.045694996616 361  703 369.954305003384  703 381  C 703 381  703 457.184971098266  703 457.184971098266  C 703 468.230666094882  694.045694996616 477.184971098266  683 477.184971098266  C 683 477.184971098266  392.8 477.184971098266  392.8 477.184971098266  C 392.8 477.184971098266  336 505.666666666667  336 505.666666666667  C 336 505.666666666667  350.5 477.184971098266  350.5 477.184971098266  C 350.5 477.184971098266  300 477.184971098266  300 477.184971098266  C 288.954305003384 477.184971098266  280 468.230666094882  280 457.184971098266  Z M 281 457.184971098266  C 281 467.678381345051  289.506589753215 476.184971098266  300 476.184971098266  C 300 476.184971098266  352.131231558498 476.184971098266  352.131231558498 476.184971098266  C 352.131231558498 476.184971098266  338.271530528838 503.408956297978  338.271530528838 503.408956297978  C 338.271530528838 503.408956297978  392.563324907093 476.184971098266  392.563324907093 476.184971098266  C 392.563324907093 476.184971098266  683 476.184971098266  683 476.184971098266  C 693.493410246785 476.184971098266  702 467.678381345051  702 457.184971098266  C 702 457.184971098266  702 381  702 381  C 702 370.506589753215  693.493410246785 362  683 362  C 683 362  300 362  300 362  C 289.506589753215 362  281 370.506589753215  281 381  C 281 381  281 457.184971098266  281 457.184971098266  Z " fill-rule="nonzero" fill="#797979" stroke="none" />
  </g>
</svg>