<?xml version="1.0" encoding="utf-8"?>
<svg version="1.1" xmlns:xlink="http://www.w3.org/1999/xlink" width="60px" height="60px" xmlns="http://www.w3.org/2000/svg">
  <g transform="matrix(1 0 0 1 -410 -736 )">
    <path d="M 440 738  C 455.68 738  468 750.32  468 766  C 468 781.68  455.68 794  440 794  C 424.32 794  412 781.68  412 766  C 412 750.32  424.32 738  440 738  Z " fill-rule="nonzero" fill="#ffffff" stroke="none" fill-opacity="0" />
    <path d="M 440 737.5  C 455.96 737.5  468.5 750.04  468.5 766  C 468.5 781.96  455.96 794.5  440 794.5  C 424.04 794.5  411.5 781.96  411.5 766  C 411.5 750.04  424.04 737.5  440 737.5  Z " stroke-width="3" stroke="#ec808d" fill="none" />
  </g>
</svg>