<?xml version="1.0" encoding="utf-8"?>
<svg version="1.1" xmlns:xlink="http://www.w3.org/1999/xlink" width="60px" height="60px" xmlns="http://www.w3.org/2000/svg">
  <g transform="matrix(1 0 0 1 -408 -2751 )">
    <path d="M 438 2753  C 453.68 2753  466 2765.32  466 2781  C 466 2796.68  453.68 2809  438 2809  C 422.32 2809  410 2796.68  410 2781  C 410 2765.32  422.32 2753  438 2753  Z " fill-rule="nonzero" fill="#ffffff" stroke="none" fill-opacity="0" />
    <path d="M 438 2752.5  C 453.96 2752.5  466.5 2765.04  466.5 2781  C 466.5 2796.96  453.96 2809.5  438 2809.5  C 422.04 2809.5  409.5 2796.96  409.5 2781  C 409.5 2765.04  422.04 2752.5  438 2752.5  Z " stroke-width="3" stroke="#ec808d" fill="none" />
  </g>
</svg>