<?xml version="1.0" encoding="utf-8"?>
<svg version="1.1" xmlns:xlink="http://www.w3.org/1999/xlink" width="367px" height="257px" xmlns="http://www.w3.org/2000/svg">
  <g transform="matrix(1 0 0 1 -123 -70 )">
    <path d="M 146 73.2246031746032  L 146 175.820634920635  L 244.666666666667 124.828571428571  L 146 73.2246031746032  Z M 55.2341137123746 3.67142857142856  C 89.4656261612784 1.22380952380952  132.220921590487 0  183.5 0  C 206.411928651059 0  228.53966926793 0.30595238095238  249.883221850613 0.91785714285714  C 271.226774433296 1.5297619047619  286.876439985136 2.17566137566136  296.832218506132 2.85555555555555  L 311.765886287625 3.67142857142856  C 311.90226681531 3.67142857142856  313.061501300632 3.77341269841269  315.24358974359 3.97738095238094  C 317.425678186548 4.18134920634922  318.994054254924 4.38531746031747  319.948717948718 4.58928571428573  C 320.903381642512 4.79325396825398  322.505852842809 5.09920634920636  324.75613154961 5.50714285714287  C 327.00641025641 5.91507936507937  328.94983277592 6.45899470899468  330.586399108138 7.13888888888889  C 332.222965440357 7.81878306878305  334.132292827945 8.70264550264546  336.314381270903 9.79047619047618  C 338.496469713861 10.8783068783068  340.610367892977 12.2041005291005  342.65607580825 13.7678571428572  C 344.701783723523 15.3316137566137  346.679301374954 17.1333333333333  348.588628762542 19.1730158730159  C 349.406911928651 19.9888888888889  350.463861018209 21.2466931216931  351.759476031215 22.9464285714286  C 353.055091044222 24.646164021164  355.032608695652 28.623544973545  357.692028985507 34.8785714285714  C 360.351449275362 41.1335978835978  362.158491267187 48.0005291005291  363.113154960981 55.4793650793651  C 364.20419918246 64.1820105820106  365.056577480491 73.4625661375661  365.670289855072 83.3210317460317  C 366.284002229654 93.1794973544973  366.659048680788 100.896296296296  366.795429208473 106.471428571429  L 366 114.630158730159  L 366 142.369841269841  C 366.931809736158 162.086772486772  365.704384986994 181.803703703704  363.113154960981 201.520634920635  C 362.158491267187 208.999470899471  360.453734671126 215.764417989418  357.998885172798 221.815476190476  C 355.544035674471 227.866534391534  353.361947231512 232.047883597884  351.452619843924 234.359523809524  L 348.588628762542 237.826984126984  C 346.679301374954 239.866666666667  344.701783723523 241.668386243386  342.65607580825 243.232142857143  C 340.610367892977 244.795899470899  338.496469713861 246.087698412698  336.314381270903 247.10753968254  C 334.132292827945 248.127380952381  332.222965440357 248.977248677249  330.586399108138 249.657142857143  C 328.94983277592 250.337037037037  327.00641025641 250.880952380952  324.75613154961 251.288888888889  C 322.505852842809 251.696825396825  320.869286510591 252.002777777778  319.846432552954 252.206746031746  C 318.823578595318 252.410714285714  317.255202526942 252.614682539683  315.141304347826 252.818650793651  C 313.027406168711 253.022619047619  311.90226681531 253.124603174603  311.765886287625 253.124603174603  C 277.534373838722 255.708201058201  234.779078409513 257  183.5 257  C 155.269230769231 256.728042328042  130.754830917874 256.286111111111  109.956800445931 255.674206349206  C 89.1587699739874 255.062301587302  75.4866220735786 254.552380952381  68.9403567447046 254.144444444444  L 58.9163879598662 253.328571428571  L 51.5518394648829 252.512698412698  C 46.6421404682274 251.832804232804  42.9257710888146 251.15291005291  40.4027313266444 250.473015873016  C 37.8796915644742 249.793121693122  34.4019881085098 248.365343915344  29.9696209587514 246.189682539683  C 25.5372538089929 244.014021164021  21.6845039018952 241.226455026455  18.4113712374582 237.826984126984  C 17.5930880713489 237.011111111111  16.5361389817912 235.753306878307  15.2405239687848 234.053571428571  C 13.9449089557785 232.353835978836  11.9673913043478 228.376455026455  9.30797101449275 222.121428571429  C 6.64855072463768 215.866402116402  4.84150873281308 208.999470899471  3.88684503901895 201.520634920635  C 2.79580081753995 192.817989417989  1.94342251950948 183.537433862434  1.32971014492754 173.678968253968  C 0.715997770345596 163.820502645503  0.340951319212189 156.103703703704  0.204570791527313 150.528571428571  L 1 142.369841269841  L 1 114.630158730159  C 0.0681902638424377 94.9132275132275  1.29561501300632 75.1962962962963  3.88684503901895 55.4793650793651  C 4.84150873281308 48.0005291005291  6.54626532887402 41.235582010582  9.00111482720178 35.1845238095238  C 11.4559643255295 29.1334656084656  13.6380527684876 24.9521164021164  15.5473801560758 22.6404761904762  L 18.4113712374582 19.1730158730159  C 20.3206986250465 17.1333333333333  22.2982162764771 15.3316137566137  24.3439241917503 13.7678571428572  C 26.3896321070234 12.2041005291005  28.503530286139 10.8783068783068  30.685618729097 9.79047619047618  C 32.867707172055 8.70264550264546  34.7770345596433 7.81878306878305  36.4136008918618 7.13888888888889  C 38.0501672240803 6.45899470899468  39.9935897435897 5.91507936507937  42.2438684503902 5.50714285714287  C 44.4941471571906 5.09920634920636  46.0966183574879 4.79325396825398  47.051282051282 4.58928571428573  C 48.0059457450762 4.38531746031747  49.5743218134523 4.18134920634922  51.7564102564103 3.97738095238094  C 53.9384986993683 3.77341269841269  55.0977331846897 3.67142857142856  55.2341137123746 3.67142857142856  Z " fill-rule="nonzero" fill="#aaaaaa" stroke="none" transform="matrix(1 0 0 1 123 70 )" />
  </g>
</svg>