<?xml version="1.0" encoding="utf-8"?>
<svg version="1.1" xmlns:xlink="http://www.w3.org/1999/xlink" width="92px" height="52px" xmlns="http://www.w3.org/2000/svg">
  <g transform="matrix(1 0 0 1 -1988 -2101 )">
    <path d="M 2034 2101  C 2059.76 2101  2080 2112.44  2080 2127  C 2080 2141.56  2059.76 2153  2034 2153  C 2008.24 2153  1988 2141.56  1988 2127  C 1988 2112.44  2008.24 2101  2034 2101  Z " fill-rule="nonzero" fill="#000000" stroke="none" />
    <path d="M 2034 2101.5  C 2059.48 2101.5  2079.5 2112.72  2079.5 2127  C 2079.5 2141.28  2059.48 2152.5  2034 2152.5  C 2008.52 2152.5  1988.5 2141.28  1988.5 2127  C 1988.5 2112.72  2008.52 2101.5  2034 2101.5  Z " stroke-width="1" stroke="#797979" fill="none" />
  </g>
</svg>