<?xml version="1.0" encoding="utf-8"?>
<svg version="1.1" xmlns:xlink="http://www.w3.org/1999/xlink" width="37px" height="20px" xmlns="http://www.w3.org/2000/svg">
  <g transform="matrix(1 0 0 1 -777 -1818 )">
    <path d="M 15.5887276785714 10.5844155844156  L 0.929129464285714 19.8051948051948  C 0.667596726190476 19.969696969697  0.447358630952381 20.025974025974  0.268415178571429 19.974025974026  C 0.0894717261904762 19.9220779220779  0 19.7835497835498  0 19.5584415584416  L 0 0.441558441558441  C 0 0.216450216450215  0.0894717261904762 0.0779220779220768  0.268415178571429 0.0259740259740249  C 0.447358630952381 -0.0259740259740271  0.667596726190476 0.0303030303030294  0.929129464285714 0.194805194805194  L 15.5887276785714 9.41558441558442  C 15.7126116071429 9.49350649350649  15.8020833333333 9.57575757575757  15.8571428571429 9.66233766233766  L 15.8571428571429 0.441558441558441  C 15.8571428571429 0.216450216450215  15.9466145833333 0.0779220779220768  16.1255580357143 0.0259740259740249  C 16.3045014880952 -0.0259740259740271  16.5247395833333 0.0303030303030294  16.7862723214286 0.194805194805194  L 31.4458705357143 9.41558441558442  C 31.5697544642857 9.49350649350649  31.6592261904762 9.57575757575757  31.7142857142857 9.66233766233766  L 31.7142857142857 0.857142857142856  C 31.7142857142857 0.63203463203463  31.8450520833333 0.437229437229436  32.1065848214286 0.272727272727273  C 32.3681175595238 0.108225108225106  32.6778273809524 0.0259740259740249  33.0357142857143 0.0259740259740249  L 35.6785714285714 0.0259740259740249  C 36.0364583333333 0.0259740259740249  36.3461681547619 0.108225108225106  36.6077008928571 0.272727272727273  C 36.8692336309524 0.437229437229436  37 0.63203463203463  37 0.857142857142856  L 37 19.1428571428571  C 37 19.3679653679654  36.8692336309524 19.5627705627706  36.6077008928571 19.7272727272727  C 36.3461681547619 19.8917748917749  36.0364583333333 19.974025974026  35.6785714285714 19.974025974026  L 33.0357142857143 19.974025974026  C 32.6778273809524 19.974025974026  32.3681175595238 19.8917748917749  32.1065848214286 19.7272727272727  C 31.8450520833333 19.5627705627706  31.7142857142857 19.3679653679654  31.7142857142857 19.1428571428571  L 31.7142857142857 10.3376623376623  C 31.6592261904762 10.4242424242424  31.5697544642857 10.5064935064935  31.4458705357143 10.5844155844156  L 16.7862723214286 19.8051948051948  C 16.5247395833333 19.969696969697  16.3045014880952 20.025974025974  16.1255580357143 19.974025974026  C 15.9466145833333 19.9220779220779  15.8571428571429 19.7835497835498  15.8571428571429 19.5584415584416  L 15.8571428571429 10.3376623376623  C 15.8020833333333 10.4242424242424  15.7126116071429 10.5064935064935  15.5887276785714 10.5844155844156  Z " fill-rule="nonzero" fill="#aaaaaa" stroke="none" transform="matrix(1 0 0 1 777 1818 )" />
  </g>
</svg>