<?xml version="1.0" encoding="utf-8"?>
<svg version="1.1" xmlns:xlink="http://www.w3.org/1999/xlink" width="24px" height="26px" xmlns="http://www.w3.org/2000/svg">
  <g transform="matrix(1 0 0 1 -710 -571 )">
    <path d="M 15.6041666666667 0.40625  C 15.8680555555556 0.677083333333329  16 0.997807017543856  16 1.36842105263158  L 16 24.6315789473684  C 16 25.0021929824561  15.8680555555556 25.3229166666667  15.6041666666667 25.59375  C 15.3402777777778 25.8645833333333  15.0277777777778 26  14.6666666666667 26  C 14.3055555555556 26  13.9930555555556 25.8645833333333  13.7291666666667 25.59375  L 6.79166666666667 18.4736842105263  L 1.33333333333333 18.4736842105263  C 0.972222222222222 18.4736842105263  0.659722222222222 18.3382675438597  0.395833333333333 18.0674342105263  C 0.131944444444444 17.796600877193  0 17.4758771929825  0 17.1052631578947  L 0 8.89473684210526  C 0 8.52412280701754  0.131944444444444 8.20339912280701  0.395833333333333 7.93256578947369  C 0.659722222222222 7.66173245614035  0.972222222222222 7.52631578947369  1.33333333333333 7.52631578947369  L 6.79166666666667 7.52631578947369  L 13.7291666666667 0.40625  C 13.9930555555556 0.135416666666665  14.3055555555556 0  14.6666666666667 0  C 15.0277777777778 0  15.3402777777778 0.135416666666665  15.6041666666667 0.40625  Z M 23.1145833333333 9.96381578947369  C 23.7048611111111 10.9046052631579  24 11.9166666666667  24 13  C 24 14.0833333333333  23.7048611111111 15.0918311403509  23.1145833333333 16.0254934210526  C 22.5243055555556 16.9591557017544  21.7430555555556 17.625548245614  20.7708333333333 18.0246710526316  C 20.6319444444444 18.0959429824561  20.4583333333333 18.1315789473684  20.25 18.1315789473684  C 19.8888888888889 18.1315789473684  19.5763888888889 17.999725877193  19.3125 17.7360197368421  C 19.0486111111111 17.4723135964912  18.9166666666667 17.1480263157895  18.9166666666667 16.7631578947368  C 18.9166666666667 16.4638157894737  19 16.2108004385965  19.1666666666667 16.0041118421053  C 19.3333333333333 15.797423245614  19.5347222222222 15.6192434210526  19.7708333333333 15.4695723684211  C 20.0069444444445 15.3199013157895  20.2430555555556 15.155975877193  20.4791666666667 14.9777960526316  C 20.7152777777778 14.7996162280702  20.9166666666667 14.5430372807018  21.0833333333333 14.2080592105263  C 21.25 13.8730811403509  21.3333333333333 13.4703947368421  21.3333333333333 13  C 21.3333333333333 12.5296052631579  21.25 12.1269188596491  21.0833333333333 11.7919407894737  C 20.9166666666667 11.4569627192982  20.7152777777778 11.2003837719298  20.4791666666667 11.0222039473684  C 20.2430555555556 10.844024122807  20.0069444444445 10.6800986842105  19.7708333333333 10.5304276315789  C 19.5347222222222 10.3807565789474  19.3333333333333 10.202576754386  19.1666666666667 9.99588815789474  C 19 9.78919956140351  18.9166666666667 9.53618421052631  18.9166666666667 9.23684210526316  C 18.9166666666667 8.85197368421052  19.0486111111111 8.52768640350877  19.3125 8.2639802631579  C 19.5763888888889 8.00027412280702  19.8888888888889 7.86842105263158  20.25 7.86842105263158  C 20.4583333333333 7.86842105263158  20.6319444444444 7.90405701754386  20.7708333333333 7.97532894736842  C 21.7430555555556 8.36019736842105  22.5243055555556 9.02302631578947  23.1145833333333 9.96381578947369  Z " fill-rule="nonzero" fill="#d7d7d7" stroke="none" transform="matrix(1 0 0 1 710 571 )" />
  </g>
</svg>