<?xml version="1.0" encoding="utf-8"?>
<svg version="1.1" xmlns:xlink="http://www.w3.org/1999/xlink" width="68px" height="65px" xmlns="http://www.w3.org/2000/svg">
  <g transform="matrix(1 0 0 1 -484 -2783 )">
    <path d="M 65.7115384615385 23.3049779458097  C 67.2371794871795 23.5507246376812  68 24.1787439613527  68 25.1890359168242  C 68 25.78975005251  67.6458333333333 26.4450745641672  66.9375 27.1550094517958  L 52.1033653846154 41.6540642722117  L 55.6177884615385 62.1329552614997  C 55.6450320512821 62.3240915773997  55.6586538461538 62.5971434572569  55.6586538461538 62.9521109010712  C 55.6586538461538 63.5255198487713  55.515625 64.0101869355178  55.2295673076923 64.4061121613106  C 54.9435096153846 64.8020373871036  54.5280448717949 65  53.9831730769231 65  C 53.4655448717949 65  52.9206730769231 64.8361688720857  52.3485576923077 64.5085066162571  L 34 54.8424700693132  L 15.6514423076923 64.5085066162571  C 15.0520833333333 64.8361688720857  14.5072115384615 65  14.0168269230769 65  C 13.4447115384615 65  13.015625 64.8020373871036  12.7295673076923 64.4061121613106  C 12.4435096153846 64.0101869355178  12.3004807692308 63.5255198487713  12.3004807692308 62.9521109010712  C 12.3004807692308 62.7882797731569  12.3277243589744 62.5152278932997  12.3822115384615 62.1329552614997  L 15.8966346153846 41.6540642722117  L 1.02163461538462 27.1550094517958  C 0.340544871794872 26.4177693761815  0 25.7624448645243  0 25.1890359168242  C 0 24.1787439613527  0.762820512820513 23.5507246376812  2.28846153846154 23.3049779458097  L 22.8028846153846 20.3150598613737  L 31.9975961538462 1.67926906112161  C 32.5152243589744 0.559756353707201  33.1826923076923 0  34 0  C 34.8173076923077 0  35.4847756410256 0.559756353707201  36.0024038461538 1.67926906112161  L 45.1971153846154 20.3150598613737  L 65.7115384615385 23.3049779458097  Z " fill-rule="nonzero" fill="#aaaaaa" stroke="none" transform="matrix(1 0 0 1 484 2783 )" />
  </g>
</svg>