<?xml version="1.0" encoding="utf-8"?>
<svg version="1.1" xmlns:xlink="http://www.w3.org/1999/xlink" width="49px" height="47px" xmlns="http://www.w3.org/2000/svg">
  <g transform="matrix(1 0 0 1 -566 -2802 )">
    <path d="M 35.6015625 41.2545683679899  L 33.4813701923077 28.7863894139887  L 42.4921875 19.9905482041588  L 30.0655048076923 18.1543793320731  L 24.5 6.84120982986767  L 18.9344951923077 18.1543793320731  L 6.5078125 19.9905482041588  L 15.5186298076923 28.7863894139887  L 13.3689903846154 41.2545683679899  L 24.5 35.3610586011342  L 35.6015625 41.2545683679899  Z M 47.3509615384615 16.8512917454316  C 48.4503205128205 17.0289855072464  49 17.4830917874396  49 18.2136105860113  C 49 18.6479731148918  48.7447916666667 19.1218231463978  48.234375 19.6351606805293  L 37.5450721153846 30.1190926275992  L 40.0775240384615 44.9269061121613  C 40.0971554487179 45.0651123713506  40.1069711538462 45.262549884478  40.1069711538462 45.5192186515438  C 40.1069711538462 46.5064062171813  39.7045272435898 47  38.8996394230769 47  C 38.5266426282051 47  38.1340144230769 46.8815374921235  37.7217548076923 46.6446124763705  L 24.5 39.6553245116572  L 11.2782451923077 46.6446124763705  C 10.8463541666667 46.8815374921235  10.4537259615385 47  10.1003605769231 47  C 9.68810096153846 47  9.37890625 46.8568578029826  9.17277644230769 46.5705734089477  C 8.96664663461539 46.2842890149128  8.86358173076923 45.9338374291115  8.86358173076923 45.5192186515438  C 8.86358173076923 45.4007561436673  8.88321314102564 45.2033186305398  8.92247596153846 44.9269061121613  L 11.4549278846154 30.1190926275992  L 0.736177884615385 19.6351606805293  C 0.245392628205128 19.1020793950851  0 18.6282293635791  0 18.2136105860113  C 0 17.4830917874396  0.549679487179487 17.0289855072464  1.64903846153846 16.8512917454316  L 16.4314903846154 14.6893509766856  L 23.0570913461538 1.21424070573409  C 23.4300881410256 0.404746901911361  23.9110576923077 0  24.5 0  C 25.0889423076923 0  25.5699118589744 0.404746901911361  25.9429086538462 1.21424070573409  L 32.5685096153846 14.6893509766856  L 47.3509615384615 16.8512917454316  Z " fill-rule="nonzero" fill="#aaaaaa" stroke="none" transform="matrix(1 0 0 1 566 2802 )" />
  </g>
</svg>