<?xml version="1.0" encoding="utf-8"?>
<svg version="1.1" xmlns:xlink="http://www.w3.org/1999/xlink" width="24px" height="24px" xmlns="http://www.w3.org/2000/svg">
  <defs>
    <mask fill="white" id="clip116">
      <path d="M 9 18  C 3.95999999999998 18  0 14.04  0 9  C 0 3.96000000000001  3.95999999999998 0  9 0  C 11.52 0  13.77 0.990000000000009  15.39 2.61000000000001  C 17.01 4.22999999999999  18 6.47999999999999  18 9  C 18 14.04  14.04 18  9 18  Z " fill-rule="evenodd" />
    </mask>
    <filter x="392px" y="473px" width="24px" height="24px" filterUnits="userSpaceOnUse" id="filter117">
      <feOffset dx="0" dy="0" in="SourceAlpha" result="shadowOffsetInner" />
      <feGaussianBlur stdDeviation="1.5" in="shadowOffsetInner" result="shadowGaussian" />
      <feComposite in2="shadowGaussian" operator="atop" in="SourceAlpha" result="shadowComposite" />
      <feColorMatrix type="matrix" values="0 0 0 0 0.0823529411764706  0 0 0 0 0.83921568627451  0 0 0 0 0.729411764705882  0 0 0 0.349019607843137 0  " in="shadowComposite" />
    </filter>
    <g id="widget118">
      <path d="M 9 18  C 3.95999999999998 18  0 14.04  0 9  C 0 3.96000000000001  3.95999999999998 0  9 0  C 11.52 0  13.77 0.990000000000009  15.39 2.61000000000001  C 17.01 4.22999999999999  18 6.47999999999999  18 9  C 18 14.04  14.04 18  9 18  Z " fill-rule="nonzero" fill="#0099ff" stroke="none" transform="matrix(1 0 0 1 395 476 )" />
      <path d="M 9 18  C 3.95999999999998 18  0 14.04  0 9  C 0 3.96000000000001  3.95999999999998 0  9 0  C 11.52 0  13.77 0.990000000000009  15.39 2.61000000000001  C 17.01 4.22999999999999  18 6.47999999999999  18 9  C 18 14.04  14.04 18  9 18  Z " stroke-width="2" stroke="#0099ff" fill="none" transform="matrix(1 0 0 1 395 476 )" mask="url(#clip116)" />
    </g>
  </defs>
  <g transform="matrix(1 0 0 1 -392 -473 )">
    <use xlink:href="#widget118" filter="url(#filter117)" />
    <use xlink:href="#widget118" />
  </g>
</svg>