<?xml version="1.0" encoding="utf-8"?>
<svg version="1.1" xmlns:xlink="http://www.w3.org/1999/xlink" width="31px" height="42px" xmlns="http://www.w3.org/2000/svg">
  <g transform="matrix(1 0 0 1 -300 -248 )">
    <path d="M 31 8.32982673267325  C 31 9.01423267326732  30.7488425925926 9.59900990099004  30.2465277777778 10.0841584158416  L 22.3888888888889 17.6732673267327  L 22.3888888888889 20.4  L 22 21  L 22 39.089108910891  C 22.3888888888889 39.8861386138614  22.0928819444445 40.5705445544555  21.5008680555555 41.1423267326732  C 20.9088541666667 41.714108910891  20.2002314814815 42  19.375 42  C 18.5497685185185 42  17.8411458333333 41.714108910891  17.2491319444445 41.1423267326732  C 16.6571180555555 40.5705445544555  16.3611111111111 39.8861386138614  16.3611111111111 39.089108910891  L 16.3611111111111 29.1089108910891  L 14.6388888888889 29.1089108910891  L 14.6388888888889 39.089108910891  C 14.6388888888889 39.8861386138614  14.3428819444445 40.5705445544555  13.7508680555555 41.1423267326732  C 13.1588541666667 41.714108910891  12.4502314814815 42  11.625 42  C 10.7997685185185 42  10.0911458333333 41.714108910891  9.49913194444446 41.1423267326732  C 8.90711805555554 40.5705445544555  8.61111111111112 39.8861386138614  9 39.089108910891  L 9 17.6732673267327  L 0.753472222222211 10.0841584158416  C 0.251157407407415 9.59900990099004  0 9.00990099009905  0 8.31683168316831  C 0 7.62376237623757  0.251157407407415 7.03465346534658  0.753472222222211 6.54950495049507  C 1.27372685185184 6.06435643564355  1.88816550925925 5.82178217821779  2.59678819444446 5.82178217821779  C 3.30541087962963 5.82178217821779  3.91087962962963 6.06435643564355  4.41319444444446 6.54950495049507  L 10.5486111111111 12.4752475247525  L 20.4513888888889 12.4752475247525  L 26.5868055555555 6.54950495049507  C 27.0891203703704 6.06435643564355  27.6990740740741 5.82178217821779  28.4166666666667 5.82178217821779  C 29.1342592592593 5.82178217821779  29.744212962963 6.06435643564355  30.2465277777778 6.54950495049507  C 30.7488425925926 7.05198019801978  31 7.64542079207918  31 8.32982673267325  Z M 19.7651909722222 1.70235148514857  C 20.9402488425926 2.83725247524749  21.5277777777778 4.21039603960389  21.5277777777778 5.82178217821779  C 21.5277777777778 7.43316831683169  20.9402488425926 8.80631188118809  19.7651909722222 9.94121287128714  C 18.5901331018518 11.0761138613862  17.1684027777778 11.6435643564356  15.5 11.6435643564356  C 13.8315972222222 11.6435643564356  12.4098668981482 11.0761138613862  11.2348090277778 9.94121287128714  C 10.0597511574074 8.80631188118809  9.47222222222221 7.43316831683169  9.47222222222221 5.82178217821779  C 9.47222222222221 4.21039603960389  10.0597511574074 2.83725247524749  11.2348090277778 1.70235148514857  C 12.4098668981482 0.567450495049525  13.8315972222222 0  15.5 0  C 17.1684027777778 0  18.5901331018518 0.567450495049525  19.7651909722222 1.70235148514857  Z " fill-rule="nonzero" fill="#d7d7d7" stroke="none" transform="matrix(1 0 0 1 300 248 )" />
  </g>
</svg>