<?xml version="1.0" encoding="utf-8"?>
<svg version="1.1" xmlns:xlink="http://www.w3.org/1999/xlink" width="18px" height="18px" preserveAspectRatio="xMinYMid meet" viewBox="1577 585  18 16" xmlns="http://www.w3.org/2000/svg">
  <path d="M 249.5 238  L 249.5 145  A 5 5 0 0 0 244.5 140.5 L 55 140.5  A 5 5 0 0 1 50.5 135.5 L 50.5 35  A 5 5 0 0 1 55.5 30.5 L 2315 30.5  A 5 5 0 0 1 2320.5 35.5 L 2320.5 605  A 5 5 0 0 1 2315.5 610.5 L 1591 610.5  A 5 5 0 0 1 1586.5 605.5 L 1586.5 592  " stroke-width="1" stroke-dasharray="1,1" stroke="#ff0000" fill="none" />
  <path d="M 1581 593  L 1592 593  L 1592 592  L 1581 592  L 1581 593  Z " fill-rule="nonzero" fill="#ff0000" stroke="none" />
</svg>