<?xml version="1.0" encoding="utf-8"?>
<svg version="1.1" xmlns:xlink="http://www.w3.org/1999/xlink" width="26px" height="10px" preserveAspectRatio="xMinYMid meet" viewBox="1575 476  26 8" xmlns="http://www.w3.org/2000/svg">
  <path d="M 187.5 238  L 187.5 145  A 5 5 0 0 0 182.5 140.5 L 55 140.5  A 5 5 0 0 1 50.5 135.5 L 50.5 35  A 5 5 0 0 1 55.5 30.5 L 1575 30.5  A 5 5 0 0 1 1580.5 35.5 L 1580.5 475  A 5 5 0 0 0 1585.5 480.5 L 1591 480.5  A 5 5 0 0 0 1596.5 475.5 L 1596.5 463  " stroke-width="1" stroke-dasharray="1,1" stroke="#ff0000" fill="none" />
  <path d="M 1591 464  L 1602 464  L 1602 463  L 1591 463  L 1591 464  Z " fill-rule="nonzero" fill="#ff0000" stroke="none" />
</svg>