<?xml version="1.0" encoding="utf-8"?>
<svg version="1.1" xmlns:xlink="http://www.w3.org/1999/xlink" width="29px" height="28px" xmlns="http://www.w3.org/2000/svg">
  <g transform="matrix(1 0 0 1 -368 -228 )">
    <path d="M 28.7094188376753 24.9275362318841  C 28.9031396125584 25.1207729468599  29 25.3429951690821  29 25.5942028985507  C 29 25.8454106280193  28.9031396125584 26.0676328502416  28.7094188376753 26.2608695652174  L 27.2565130260521 27.7101449275362  C 27.062792251169 27.9033816425121  26.8400133600534 28  26.5881763527054 28  C 26.3363393453574 28  26.1135604542418 27.9033816425121  25.9198396793587 27.7101449275362  L 14.5 16.3188405797102  L 3.08016032064128 27.7101449275362  C 2.88643954575819 27.9033816425121  2.66366065464262 28  2.41182364729459 28  C 2.15998663994656 28  1.93720774883099 27.9033816425121  1.7434869739479 27.7101449275362  L 0.290581162324649 26.2608695652174  C 0.0968603874415521 26.0676328502416  0 25.8454106280193  0 25.5942028985507  C 0 25.3429951690821  0.0968603874415521 25.1207729468599  0.290581162324649 24.9275362318841  L 13.8316633266533 11.4202898550725  C 14.0253841015364 11.2270531400966  14.248162992652 11.1304347826087  14.5 11.1304347826087  C 14.751837007348 11.1304347826087  14.9746158984636 11.2270531400966  15.1683366733467 11.4202898550725  L 28.7094188376753 24.9275362318841  Z M 28.7094188376753 13.7971014492754  C 28.9031396125584 13.9903381642512  29 14.2125603864734  29 14.463768115942  C 29 14.7149758454106  28.9031396125584 14.9371980676328  28.7094188376753 15.1304347826087  L 27.2565130260521 16.5797101449275  C 27.062792251169 16.7729468599034  26.8400133600534 16.8695652173913  26.5881763527054 16.8695652173913  C 26.3363393453574 16.8695652173913  26.1135604542418 16.7729468599034  25.9198396793587 16.5797101449275  L 14.5 5.18840579710144  L 3.08016032064128 16.5797101449275  C 2.88643954575819 16.7729468599034  2.66366065464262 16.8695652173913  2.41182364729459 16.8695652173913  C 2.15998663994656 16.8695652173913  1.93720774883099 16.7729468599034  1.7434869739479 16.5797101449275  L 0.290581162324649 15.1304347826087  C 0.0968603874415521 14.9371980676328  0 14.7149758454106  0 14.463768115942  C 0 14.2125603864734  0.0968603874415521 13.9903381642512  0.290581162324649 13.7971014492754  L 13.8316633266533 0.28985507246378  C 14.0253841015364 0.0966183574879267  14.248162992652 0  14.5 0  C 14.751837007348 0  14.9746158984636 0.0966183574879267  15.1683366733467 0.28985507246378  L 28.7094188376753 13.7971014492754  Z " fill-rule="nonzero" fill="#ffffff" stroke="none" transform="matrix(1 0 0 1 368 228 )" />
  </g>
</svg>