<?xml version="1.0" encoding="utf-8"?>
<svg version="1.1" xmlns:xlink="http://www.w3.org/1999/xlink" width="34px" height="28px" xmlns="http://www.w3.org/2000/svg">
  <g transform="matrix(1 0 0 1 -1397 -29 )">
    <path d="M 13.8341836734694 25.6046875  C 13.8197278911564 25.6848958333333  13.8341836734694 25.7833333333333  13.8775510204082 25.9  C 13.8775510204082 25.9583333333333  13.8847789115646 26.1041666666667  13.8992346938776 26.3375  C 13.9136904761904 26.5708333333333  13.9173044217687 26.7640625  13.9100765306123 26.9171875  C 13.9028486394559 27.0703125  13.8811649659865 27.2416666666667  13.8450255102041 27.43125  C 13.8088860544217 27.6208333333333  13.7366071428571 27.7630208333333  13.6281887755101 27.8578125  C 13.5197704081634 27.9526041666667  13.3715986394559 28  13.1836734693877 28  L 6.24489795918362 28  C 4.52465986394554 28  3.05378401360554 27.3838541666667  1.83227040816337 26.1515625  C 0.610756802721198 24.9192708333333  0 23.4354166666667  0 21.7  L 0 6.30000000000001  C 0 4.56458333333333  0.610756802721198 3.08072916666666  1.83227040816337 1.84843749999999  C 3.05378401360554 0.61614583333332  4.52465986394554 0  6.24489795918362 0  L 13.1836734693877 0  C 13.3715986394559 0  13.5342261904761 0.0692708333333201  13.6715561224489 0.207812499999989  C 13.8088860544217 0.346354166666657  13.8775510204082 0.510416666666657  13.8775510204082 0.699999999999989  C 13.8775510204082 0.758333333333326  13.8847789115646 0.904166666666669  13.8992346938776 1.13749999999999  C 13.9136904761904 1.37083333333334  13.9173044217687 1.56406250000001  13.9100765306123 1.71718749999999  C 13.9028486394559 1.87031250000001  13.8811649659865 2.04166666666666  13.8450255102041 2.23124999999999  C 13.8088860544217 2.42083333333332  13.7366071428571 2.56302083333333  13.6281887755101 2.65781250000001  C 13.5197704081634 2.75260416666666  13.3715986394559 2.80000000000001  13.1836734693877 2.80000000000001  L 6.24489795918362 2.80000000000001  C 5.2908163265306 2.80000000000001  4.47406462585036 3.14270833333333  3.79464285714289 3.828125  C 3.11522108843542 4.51354166666667  2.77551020408168 5.33750000000001  3 6.30000000000001  L 3 21.7  C 2.77551020408168 22.6625  3.11522108843542 23.4864583333333  3.79464285714289 24.171875  C 4.47406462585036 24.8572916666667  5.2908163265306 25.2  6.24489795918362 25.2  L 12.4897959183672 25.2  L 12.7283163265306 25.2  L 13.0102040816328 25.2  C 13.0102040816328 25.2  13.093324829932 25.2072916666667  13.2595663265306 25.221875  C 13.4258078231292 25.2364583333333  13.5089285714287 25.2583333333333  13.5089285714287 25.2875  C 13.5089285714287 25.3166666666667  13.5667517006802 25.3567708333333  13.6823979591836 25.4078125  C 13.798044217687 25.4588541666667  13.8486394557824 25.5244791666667  13.8341836734694 25.6046875  Z M 33.5880102040817 13.015625  C 33.8626700680272 13.2927083333333  34 13.6208333333333  34 14  C 34 14.3791666666667  33.8626700680272 14.7072916666667  33.5880102040817 14.984375  L 21.7920918367347 26.884375  C 21.5174319727892 27.1614583333333  21.1921768707482 27.3  20.8163265306123 27.3  C 20.4404761904761 27.3  20.1152210884354 27.1614583333333  19.8405612244899 26.884375  C 19.5659013605443 26.6072916666667  19.4285714285713 26.2791666666667  19.4285714285713 25.9  L 19.4285714285713 19.6  L 9.71428571428578 19.6  C 9.33843537414964 19.6  9.01318027210891 19.4614583333333  8.73852040816337 19.184375  C 8.4638605442176 18.9072916666667  8.32653061224482 18.5791666666667  8.32653061224482 18.2  L 8.32653061224482 9.80000000000001  C 8.32653061224482 9.42083333333332  8.4638605442176 9.09270833333332  8.73852040816337 8.81562500000001  C 9.01318027210891 8.53854166666667  9.33843537414964 8.40000000000001  9.71428571428578 8.40000000000001  L 19.4285714285713 8.40000000000001  L 19.4285714285713 2.09999999999999  C 19.4285714285713 1.72083333333333  19.5659013605443 1.39270833333333  19.8405612244899 1.11562499999999  C 20.1152210884354 0.838541666666657  20.4404761904761 0.699999999999989  20.8163265306123 0.699999999999989  C 21.1921768707482 0.699999999999989  21.5174319727892 0.838541666666657  21.7920918367347 1.11562499999999  L 33.5880102040817 13.015625  Z " fill-rule="nonzero" fill="#d7d7d7" stroke="none" transform="matrix(1 0 0 1 1397 29 )" />
  </g>
</svg>