<?xml version="1.0" encoding="utf-8"?>
<svg version="1.1" xmlns:xlink="http://www.w3.org/1999/xlink" width="29px" height="24px" xmlns="http://www.w3.org/2000/svg">
  <g transform="matrix(1 0 0 1 -34 -30 )">
    <path d="M 28.6412760416667 19.55625  C 28.8804253472222 19.79375  29 20.075  29 20.4  L 29 22.8  C 29 23.125  28.8804253472222 23.40625  28.6412760416667 23.64375  C 28.4021267361111 23.88125  28.1189236111111 24  27.7916666666667 24  L 1.20833333333333 24  C 0.881076388888886 24  0.597873263888886 23.88125  0.358723958333329 23.64375  C 0.119574652777771 23.40625  0 23.125  0 22.8  L 0 20.4  C 0 20.075  0.119574652777771 19.79375  0.358723958333329 19.55625  C 0.597873263888886 19.31875  0.881076388888886 19.2  1.20833333333333 19  L 27.7916666666667 19  C 28.1189236111111 19.2  28.4021267361111 19.31875  28.6412760416667 19.55625  Z M 28.6412760416667 9.95625  C 28.8804253472222 10.19375  29 10.475  29 10.8  L 29 13.2  C 29 13.525  28.8804253472222 13.80625  28.6412760416667 14.04375  C 28.4021267361111 14.28125  28.1189236111111 14.4  27.7916666666667 14  L 1.20833333333333 14  C 0.881076388888886 14.4  0.597873263888886 14.28125  0.358723958333329 14.04375  C 0.119574652777771 13.80625  0 13.525  0 13.2  L 0 10.8  C 0 10.475  0.119574652777771 10.19375  0.358723958333329 9.95625  C 0.597873263888886 9.71875  0.881076388888886 9.59999999999999  1.20833333333333 10  L 27.7916666666667 10  C 28.1189236111111 9.59999999999999  28.4021267361111 9.71875  28.6412760416667 9.95625  Z M 28.6412760416667 0.356250000000003  C 28.8804253472222 0.59375  29 0.875  29 1.2  L 29 3.59999999999999  C 29 3.925  28.8804253472222 4.20625  28.6412760416667 4.44374999999999  C 28.4021267361111 4.68124999999999  28.1189236111111 4.8  27.7916666666667 5  L 1.20833333333333 5  C 0.881076388888886 4.8  0.597873263888886 4.68124999999999  0.358723958333329 4.44374999999999  C 0.119574652777771 4.20625  0 3.925  0 3.59999999999999  L 0 1.2  C 0 0.875  0.119574652777771 0.59375  0.358723958333329 0.356250000000003  C 0.597873263888886 0.118750000000006  0.881076388888886 0  1.20833333333333 0  L 27.7916666666667 0  C 28.1189236111111 0  28.4021267361111 0.118750000000006  28.6412760416667 0.356250000000003  Z " fill-rule="nonzero" fill="#999999" stroke="none" transform="matrix(1 0 0 1 34 30 )" />
  </g>
</svg>