<?xml version="1.0" encoding="utf-8"?>
<svg version="1.1" xmlns:xlink="http://www.w3.org/1999/xlink" width="22px" height="34px" xmlns="http://www.w3.org/2000/svg">
  <g transform="matrix(1 0 0 1 0 -305 )">
    <path d="M 13.0269151138716 16.2164328657315  C 13.1787439613527 16.4435537742153  13.2546583850931 16.7047428189711  13.2546583850931 16.9999999999999  C 13.2546583850931 17.2952571810289  13.1787439613527 17.5564462257847  13.0269151138716 17.7835671342685  L 2.4140786749482 33.6593186372746  C 2.2622498274672 33.8864395457581  2.08764665286407 34  1.89026915113874 34  C 1.69289164941341 34  1.51828847481022 33.8864395457581  1.36645962732916 33.6593186372746  L 0.227743271221527 31.9559118236474  C 0.075914423740528 31.7287909151636  0 31.4676018704074  0 31.1723446893787  C 0 30.87708750835  0.075914423740528 30.6158984635938  0.227743271221527 30.3887775551102  L 9.17805383022773 16.9999999999999  L 0.227743271221527 3.61122244488979  C 0.075914423740528 3.38410153640621  0 3.12291249165003  0 2.82765531062131  C 0 2.53239812959259  0.075914423740528 2.27120908483636  0.227743271221527 2.04408817635266  L 1.36645962732916 0.340681362725377  C 1.51828847481022 0.113560454241963  1.69289164941341 0  1.89026915113874 0  C 2.08764665286407 0  2.2622498274672 0.113560454241963  2.4140786749482 0.340681362725377  L 13.0269151138716 16.2164328657315  Z M 21.7722567287785 16.2164328657315  C 21.9240855762595 16.4435537742153  22 16.7047428189711  22 16.9999999999999  C 22 17.2952571810289  21.9240855762595 17.5564462257847  21.7722567287785 17.7835671342685  L 11.1594202898551 33.6593186372746  C 11.0075914423741 33.8864395457581  10.8329882677709 34  10.6356107660456 34  C 10.4382332643203 34  10.263630089717 33.8864395457581  10.111801242236 33.6593186372746  L 8.97308488612839 31.9559118236474  C 8.82125603864733 31.7287909151636  8.74534161490686 31.4676018704074  8.74534161490686 31.1723446893787  C 8.74534161490686 30.87708750835  8.82125603864733 30.6158984635938  8.97308488612839 30.3887775551102  L 17.9233954451346 16.9999999999999  L 8.97308488612839 3.61122244488979  C 8.82125603864733 3.38410153640621  8.74534161490686 3.12291249165003  8.74534161490686 2.82765531062131  C 8.74534161490686 2.53239812959259  8.82125603864733 2.27120908483636  8.97308488612839 2.04408817635266  L 10.111801242236 0.340681362725377  C 10.263630089717 0.113560454241963  10.4382332643203 0  10.6356107660456 0  C 10.8329882677709 0  11.0075914423741 0.113560454241963  11.1594202898551 0.340681362725377  L 21.7722567287785 16.2164328657315  Z " fill-rule="nonzero" fill="#ffcc00" stroke="none" transform="matrix(1 0 0 1 0 305 )" />
  </g>
</svg>