<?xml version="1.0" encoding="utf-8"?>
<svg version="1.1" xmlns:xlink="http://www.w3.org/1999/xlink" width="31px" height="31px" xmlns="http://www.w3.org/2000/svg">
  <g transform="matrix(1 0 0 1 -1339 -26 )">
    <path d="M 25.4498697916667 28.45703125  C 25.7055121527778 28.2379092261905  25.8333333333333 27.9784226190476  25.8333333333333 27.6785714285714  C 25.8333333333333 27.3787202380952  25.7055121527778 27.1192336309524  25.4498697916667 26.9001116071429  C 25.1942274305557 26.6809895833333  24.8914930555557 26.5714285714286  24.5416666666667 26.5714285714286  C 24.1918402777778 26.5714285714286  23.8891059027778 26.6809895833333  23.6334635416667 26.9001116071429  C 23.3778211805557 27.1192336309524  23.25 27.3787202380952  23.25 27.6785714285714  C 23.25 27.9784226190476  23.3778211805557 28.2379092261905  23.6334635416667 28.45703125  C 23.8891059027778 28.6761532738095  24.1918402777778 28.7857142857143  24.5416666666667 28.7857142857143  C 24.8914930555557 28.7857142857143  25.1942274305557 28.6761532738095  25.4498697916667 28.45703125  Z M 27.7708333333333 17.5672433035714  C 28.2013888888889 16.4312686011905  28.4166666666667 15.3962053571429  28.4166666666667 14.4620535714286  C 28.4166666666667 12.2823660714286  27.2931857638889 11.1925223214286  25.0462239583333 11.1925223214286  C 24.6963975694443 11.1925223214286  24.3196614583333 11.2213541666667  23.916015625 11.2790178571429  C 23.7007378472222 10.9330357142857  23.3475477430557 10.6591331845238  22.8564453125 10.4573102678571  C 22.3653428819443 10.2554873511905  21.8708767361111 10.1545758928571  21.373046875 10.1545758928571  C 20.8752170138889 10.1545758928571  20.4110243055557 10.2583705357143  19.98046875 10.4659598214286  C 19.3077256944443 9.85472470238095  18.5071614583333 9.54910714285714  17.5787760416667 9.54910714285714  C 17.2424045138889 9.54910714285714  16.8690321180557 9.60677083333333  16.4586588541667 9.72209821428571  C 16.0482855902778 9.83742559523809  15.7287326388889 9.98158482142857  15.5 10.1545758928571  L 15.5 4.42857142857143  C 15.5 3.82886904761905  15.2443576388889 3.30989583333333  14.7330729166667 2.87165178571428  C 14.2217881944443 2.43340773809523  13.6163194444443 2.21428571428572  12.9166666666667 2.21428571428572  C 12.23046875 2.21428571428572  11.6283637152778 2.43917410714285  11.1103515625 2.88895089285715  C 10.5923394097222 3.33872767857143  10.3333333333333 3.85193452380952  10.3333333333333 4.42857142857143  L 10.3333333333333 14.3928571428571  C 10.0642361111111 14.3928571428571  9.73795572916674 14.3063616071429  9.3544921875 14.1333705357143  C 8.97102864583326 13.9603794642857  8.60101996527783 13.7700892857143  8.24446614583326 13.5625  C 7.88791232638891 13.3549107142857  7.43044704861109 13.1646205357143  6.8720703125 12.9916294642857  C 6.31369357638891 12.8186383928571  5.74522569444434 12.7321428571429  5.16666666666674 12.7321428571429  C 4.26519097222217 12.7321428571429  3.60926649305566 12.9887462797619  3.19889322916674 13.501953125  C 2.78851996527783 14.0151599702381  2.58333333333326 14.6811755952381  2.58333333333326 15.5  C 2.58333333333326 15.7767857142857  3.51844618055566 16.2957589285714  5.388671875 17.0569196428571  C 5.98068576388891 17.3337053571429  6.41796875 17.5470610119048  6.70052083333326 17.6969866071429  C 7.56163194444434 18.1582961309524  8.537109375 18.8041294642857  9.626953125 19.6344866071429  C 10.716796875 20.4533110119048  11.4299045138889 21.0357142857143  11.7662760416667 21.3816964285714  C 12.533203125 22.1774553571429  12.9166666666667 22.9847470238095  12.9166666666667 23.8035714285714  L 12.9166666666667 24  L 25.8333333333333 24  L 25.8333333333333 23.8035714285714  C 25.8333333333333 22.9732142857143  26.0486111111111 22.0102306547619  26.4791666666667 20.9146205357143  C 26.9097222222222 19.8190104166667  27.3402777777778 18.7032180059524  27.7708333333333 17.5672433035714  Z M 29.3753255208333 10.4486607142857  C 30.4584418402778 11.4404761904762  31 12.7494419642857  31 14.3755580357143  C 31 15.9094122023809  30.5358072916667 17.7661830357143  29.607421875 19.9458705357143  C 28.8135850694443 21.8372395833333  28.4166666666667 23.1231398809524  28.4166666666667 23.8035714285714  L 28.4166666666667 28.7857142857143  C 28.4166666666667 29.3969494047619  28.1643880208333 29.9188058035714  27.6598307291667 30.3512834821429  C 27.1552734375 30.7837611607143  26.5464409722222 31  25.8333333333333 31  L 12.9166666666667 31  C 12.2035590277778 31  11.5947265625 30.7837611607143  11.0901692708333 30.3512834821429  C 10.5856119791667 29.9188058035714  10.3333333333333 29.3969494047619  10.3333333333333 28.7857142857143  L 10.3333333333333 23.8035714285714  C 10.3333333333333 23.6882440476191  10.3030598958333 23.5642671130952  10.2425130208333 23.431640625  C 10.1819661458333 23.2990141369048  10.0877821180557 23.1635044642857  9.9599609375 23.0251116071429  C 9.83213975694434 22.88671875  9.71104600694434 22.7569754464286  9.5966796875 22.6358816964286  C 9.48231336805566 22.5147879464286  9.33094618055566 22.3763950892857  9.142578125 22.220703125  C 8.95421006944434 22.0650111607143  8.8095703125 21.9468005952381  8.70865885416674 21.8660714285714  C 8.60774739583326 21.7853422619048  8.46310763888891 21.67578125  8.27473958333326 21.5373883928571  C 8.08637152777783 21.3989955357143  7.97200520833326 21.3182663690476  7.931640625 21.2952008928571  C 6.93598090277783 20.5455729166667  6.06814236111109 19.9689360119048  5.328125 19.5652901785714  C 5.04557291666674 19.4153645833333  4.62847222222217 19.2250744047619  4.07682291666674 18.9944196428571  C 3.52517361111109 18.7637648809524  3.04079861111109 18.5504092261905  2.62369791666674 18.3543526785714  C 2.20659722222217 18.1582961309524  1.78276909722217 17.9247581845238  1.35221354166674 17.6537388392857  C 0.921657986111086 17.3827194940476  0.588650173611086 17.0655691964286  0.353190104166742 16.7022879464286  C 0.117730034722172 16.3390066964286  0 15.938244047619  0 15.5  C 0 14.0584077380952  0.450737847222172 12.8676525297619  1.35221354166674 11.927734375  C 2.25368923611109 10.9878162202381  3.52517361111109 10.5178571428571  5.16666666666674 10.5178571428571  C 6.08159722222217 10.5178571428571  6.94270833333326 10.6447172619048  7.75 10.8984375  L 7.75 4.42857142857143  C 7.75 3.22916666666667  8.26128472222217 2.19122023809523  9.28385416666674 1.31473214285715  C 10.3064236111111 0.438244047619051  11.5106336805557 0  12.896484375 0  C 14.3092447916667 0  15.5269097222222 0.435360863095241  16.5494791666667 1.30608258928572  C 17.5720486111111 2.17680431547619  18.0833333333333 3.21763392857143  18.0833333333333 4.42857142857143  L 18.0833333333333 7.35212053571429  C 18.9175347222222 7.39825148809524  19.7180989583333 7.61160714285714  20.4850260416667 7.9921875  C 20.767578125 7.95758928571429  21.0568576388889 7.94029017857143  21.3528645833333 7.94029017857143  C 22.7118055555557 7.94029017857143  23.9092881944443 8.28627232142857  24.9453125 8.97823660714286  C 26.8155381944443 8.96670386904762  28.2922092013889 9.45684523809524  29.3753255208333 10.4486607142857  Z " fill-rule="nonzero" fill="#a1a1a1" stroke="none" transform="matrix(1 0 0 1 1339 26 )" />
  </g>
</svg>