<?xml version="1.0" encoding="utf-8"?>
<svg version="1.1" xmlns:xlink="http://www.w3.org/1999/xlink" width="22px" height="35px" xmlns="http://www.w3.org/2000/svg">
  <g transform="matrix(1 0 0 1 -231 -312 )">
    <path d="M 13.0269151138717 31.2825651302605  C 13.1787439613527 31.5163660654642  13.2546583850932 31.7852371409485  13.2546583850932 32.0891783567135  C 13.2546583850932 32.3931195724783  13.1787439613527 32.6619906479625  13.0269151138717 32.8957915831662  L 11.888198757764 34.6492985971944  C 11.736369910283 34.8830995323982  11.5617667356797 35  11.3643892339544 35  C 11.1670117322292 35  10.9924085576259 34.8830995323982  10.840579710145 34.6492985971944  L 0.227743271221584 18.306613226453  C 0.075914423740528 18.0728122912492  0 17.8039412157648  0 17.5  C 0 17.1960587842352  0.075914423740528 16.9271877087508  0.227743271221584 16.693386773547  L 10.840579710145 0.350701402805669  C 10.9924085576259 0.116900467601852  11.1670117322292 0  11.3643892339544 0  C 11.5617667356797 0  11.736369910283 0.116900467601852  11.888198757764 0.350701402805669  L 13.0269151138717 2.10420841683373  C 13.1787439613527 2.33800935203743  13.2546583850932 2.60688042752162  13.2546583850932 2.91082164328645  C 13.2546583850932 3.21476285905152  13.1787439613527 3.48363393453582  13.0269151138717 3.71743486973946  L 4.07660455486541 17.5  L 13.0269151138717 31.2825651302605  Z M 21.7722567287784 31.2825651302605  C 21.9240855762595 31.5163660654642  22 31.7852371409485  22 32.0891783567135  C 22 32.3931195724783  21.9240855762595 32.6619906479625  21.7722567287784 32.8957915831662  L 20.6335403726708 34.6492985971944  C 20.4817115251898 34.8830995323982  20.3071083505866 35  20.1097308488613 35  C 19.912353347136 35  19.7377501725329 34.8830995323982  19.5859213250518 34.6492985971944  L 8.97308488612828 18.306613226453  C 8.82125603864733 18.0728122912492  8.74534161490681 17.8039412157648  8.74534161490681 17.5  C 8.74534161490681 17.1960587842352  8.82125603864733 16.9271877087508  8.97308488612828 16.693386773547  L 19.5859213250518 0.350701402805669  C 19.7377501725329 0.116900467601852  19.912353347136 0  20.1097308488613 0  C 20.3071083505866 0  20.4817115251898 0.116900467601852  20.6335403726708 0.350701402805669  L 21.7722567287784 2.10420841683373  C 21.9240855762595 2.33800935203743  22 2.60688042752162  22 2.91082164328645  C 22 3.21476285905152  21.9240855762595 3.48363393453582  21.7722567287784 3.71743486973946  L 12.8219461697722 17.5  L 21.7722567287784 31.2825651302605  Z " fill-rule="nonzero" fill="#ffcc00" stroke="none" transform="matrix(1 0 0 1 231 312 )" />
  </g>
</svg>