<?xml version="1.0" encoding="utf-8"?>
<svg version="1.1" xmlns:xlink="http://www.w3.org/1999/xlink" width="24px" height="22px" xmlns="http://www.w3.org/2000/svg">
  <g transform="matrix(1 0 0 1 -1010 -733 )">
    <path d="M 22.8932951153927 0  C 23.3698767766909 0  23.7046186578411 0.203125  23.8975207588428 0.609375  C 24.0904228598445 1.03645833333326  24.0109925829613 1.40104166666663  23.6592299281938 1.703125  L 15 9.40625  L 15 21  C 15.2679885346176 21.4375  15.0467184775864 21.7447916666666  14.6041783635235 21.921875  C 14.4566649921692 21.9739583333333  14.3148252120209 22  14.1786590230784 22  C 13.8722850979582 22  13.6169734936911 21.9010416666666  13.4127242102775 21.703125  L 9.05540616412054 17.703125  C 8.83980969829508 17.5052083333333  8.73201146538236 17.2708333333334  8.73201146538236 17  L 8.73201146538236 9.40625  L 0.340770071806219 1.703125  C -0.0109925829613076 1.40104166666663  -0.0904228598444661 1.03645833333326  0.102479241157198 0.609375  C 0.295381342158862 0.203125  0.630123223309056 0  1.10670488460732 0  L 22.8932951153927 0  Z " fill-rule="nonzero" fill="#bcbcbc" stroke="none" transform="matrix(1 0 0 1 1010 733 )" />
  </g>
</svg>