<?xml version="1.0" encoding="utf-8"?>
<svg version="1.1" xmlns:xlink="http://www.w3.org/1999/xlink" width="497px" height="10px" preserveAspectRatio="xMinYMid meet" viewBox="518 578  497 8" xmlns="http://www.w3.org/2000/svg">
  <path d="M 890 440  L 890 445  A 5 5 0 0 0 895 450 L 1005 450  A 5 5 0 0 1 1010 455 L 1010 577  A 5 5 0 0 1 1005 582 L 528 582  A 5 5 0 0 0 523 587 L 523 629  " stroke-width="2" stroke-dasharray="6,2" stroke="#0099cc" fill="none" />
  <path d="M 527.292893218813 623.892893218813  L 523 628.185786437627  L 518.707106781187 623.892893218813  L 517.292893218813 625.307106781187  L 522.292893218813 630.307106781187  L 523 631.014213562373  L 523.707106781187 630.307106781187  L 528.707106781187 625.307106781187  L 527.292893218813 623.892893218813  Z " fill-rule="nonzero" fill="#0099cc" stroke="none" />
</svg>