<?xml version="1.0" encoding="utf-8"?>
<svg version="1.1" xmlns:xlink="http://www.w3.org/1999/xlink" width="77px" height="77px" xmlns="http://www.w3.org/2000/svg">
  <g transform="matrix(1 0 0 1 -83 -116 )">
    <path d="M 121.5 116  C 143.06 116  160 132.94  160 154.5  C 160 176.06  143.06 193  121.5 193  C 99.94 193  83 176.06  83 154.5  C 83 132.94  99.94 116  121.5 116  Z " fill-rule="nonzero" fill="#ffffff" stroke="none" />
    <path d="M 121.5 116.5  C 142.78 116.5  159.5 133.22  159.5 154.5  C 159.5 175.78  142.78 192.5  121.5 192.5  C 100.22 192.5  83.5 175.78  83.5 154.5  C 83.5 133.22  100.22 116.5  121.5 116.5  Z " stroke-width="1" stroke="#797979" fill="none" />
  </g>
</svg>