<?xml version="1.0" encoding="utf-8"?>
<svg version="1.1" xmlns:xlink="http://www.w3.org/1999/xlink" width="10px" height="15px" preserveAspectRatio="xMidYMin meet" viewBox="1141 378  8 15" xmlns="http://www.w3.org/2000/svg">
  <path d="M 1145 378  L 1145 383  A 5 5 0 0 0 1150 388 L 1256 388  A 5 5 0 0 1 1261 393 L 1261 825  A 5 5 0 0 1 1256 830 L 999 830  A 5 5 0 0 0 994 835 L 994 844  " stroke-width="2" stroke-dasharray="6,2" stroke="#0099cc" fill="none" />
  <path d="M 998.292893218813 838.892893218813  L 994 843.185786437627  L 989.707106781187 838.892893218813  L 988.292893218813 840.307106781187  L 993.292893218813 845.307106781187  L 994 846.014213562373  L 994.707106781187 845.307106781187  L 999.707106781187 840.307106781187  L 998.292893218813 838.892893218813  Z " fill-rule="nonzero" fill="#0099cc" stroke="none" />
</svg>