<?xml version="1.0" encoding="utf-8"?>
<svg version="1.1" xmlns:xlink="http://www.w3.org/1999/xlink" width="30px" height="22px" xmlns="http://www.w3.org/2000/svg">
  <g transform="matrix(1 0 0 1 -600 -596 )">
    <path d="M 29.3470982142858 0.635937500000011  C 29.7823660714286 0.830729166666686  30 1.16874999999999  30 1.65000000000003  L 30 20.35  C 30 20.83125  29.7823660714286 21.1692708333333  29.3470982142858 21.3640625  C 29.2020089285714 21.4213541666667  29.0625 21.45  28.9285714285714 21.45  C 28.6272321428572 21.45  28.3761160714286 21.3411458333333  28.1752232142858 21.1234375  L 21.4285714285714 14.196875  L 21.4285714285714 17.05  C 21.4285714285714 18.4135416666667  20.95703125 19.5794270833333  20.0139508928572 20.54765625  C 19.0708705357142 21.5158854166667  17.9352678571428 22  16.6071428571428 22  L 4.82142857142856 22  C 3.49330357142856 22  2.35770089285722 21.5158854166667  1.41462053571422 20.54765625  C 0.471540178571445 19.5794270833333  0 18.4135416666667  0 17.05  L 0 4.94999999999999  C 0 3.58645833333333  0.471540178571445 2.42057291666669  1.41462053571422 1.45234375000001  C 2.35770089285722 0.484114583333337  3.49330357142856 0  4.82142857142856 0  L 16.6071428571428 0  C 17.9352678571428 0  19.0708705357142 0.484114583333337  20.0139508928572 1.45234375000001  C 20.95703125 2.42057291666669  21.4285714285714 3.58645833333333  21.4285714285714 4.94999999999999  L 21.4285714285714 7.78593749999999  L 28.1752232142858 0.876562500000034  C 28.3761160714286 0.658854166666686  28.6272321428572 0.550000000000011  28.9285714285714 0.550000000000011  C 29.0625 0.550000000000011  29.2020089285714 0.578645833333326  29.3470982142858 0.635937500000011  Z " fill-rule="nonzero" fill="#e4e4e4" stroke="none" transform="matrix(1 0 0 1 600 596 )" />
  </g>
</svg>