<?xml version="1.0" encoding="utf-8"?>
<svg version="1.1" xmlns:xlink="http://www.w3.org/1999/xlink" width="40px" height="40px" xmlns="http://www.w3.org/2000/svg">
  <g transform="matrix(1 0 0 1 -1256 -943 )">
    <path d="M 28.828125 24.1666666666666  C 28.828125 24.3923611111111  28.7413194444446 24.5920138888889  28.5677083333335 24.765625  L 24.765625 28.5677083333334  C 24.5920138888889 28.7413194444445  24.3923611111111 28.828125  24.1666666666665 28.828125  C 23.9409722222222 28.828125  23.7413194444446 28.7413194444445  23.5677083333335 28.5677083333334  L 20 25  L 16.4322916666665 28.5677083333334  C 16.2586805555554 28.7413194444445  16.0590277777778 28.828125  15.8333333333335 28.828125  C 15.6076388888889 28.828125  15.4079861111111 28.7413194444445  15.234375 28.5677083333334  L 11.4322916666665 24.765625  C 11.2586805555554 24.5920138888889  11.171875 24.3923611111111  11.171875 24.1666666666666  C 11.171875 23.9409722222223  11.2586805555554 23.7413194444445  11.4322916666665 23.5677083333334  L 15 20  L 11.4322916666665 16.4322916666666  C 11.2586805555554 16.2586805555555  11.171875 16.0590277777778  11.171875 15.8333333333334  C 11.171875 15.6076388888889  11.2586805555554 15.4079861111111  11.4322916666665 15.234375  L 15.234375 11.4322916666666  C 15.4079861111111 11.2586805555555  15.6076388888889 11.171875  15.8333333333335 11.171875  C 16.0590277777778 11.171875  16.2586805555554 11.2586805555555  16.4322916666665 11.4322916666666  L 20 15  L 23.5677083333335 11.4322916666666  C 23.7413194444446 11.2586805555555  23.9409722222222 11.171875  24.1666666666665 11.171875  C 24.3923611111111 11.171875  24.5920138888889 11.2586805555555  24.765625 11.4322916666666  L 28.5677083333335 15.234375  C 28.7413194444446 15.4079861111111  28.828125 15.6076388888889  28.828125 15.8333333333334  C 28.828125 16.0590277777778  28.7413194444446 16.2586805555555  28.5677083333335 16.4322916666666  L 25 20  L 28.5677083333335 23.5677083333334  C 28.7413194444446 23.7413194444445  28.828125 23.9409722222223  28.828125 24.1666666666666  Z M 32.265625 27.109375  C 33.5329861111111 24.9392361111111  34.1666666666665 22.5694444444445  34.1666666666665 20  C 34.1666666666665 17.4305555555555  33.5329861111111 15.0607638888889  32.265625 12.890625  C 30.9982638888889 10.7204861111111  29.2795138888889 9.00173611111109  27.109375 7.734375  C 24.9392361111111 6.46701388888891  22.5694444444446 5.83333333333337  20 5.83333333333337  C 17.4305555555554 5.83333333333337  15.0607638888889 6.46701388888891  12.890625 7.734375  C 10.7204861111111 9.00173611111109  9.00173611111109 10.7204861111111  7.734375 12.890625  C 6.46701388888891 15.0607638888889  5.83333333333348 17.4305555555555  5.83333333333348 20  C 5.83333333333348 22.5694444444445  6.46701388888891 24.9392361111111  7.734375 27.109375  C 9.00173611111109 29.2795138888889  10.7204861111111 30.9982638888889  12.890625 32.265625  C 15.0607638888889 33.5329861111111  17.4305555555554 34.1666666666666  20 34.1666666666666  C 22.5694444444446 34.1666666666666  24.9392361111111 33.5329861111111  27.109375 32.265625  C 29.2795138888889 30.9982638888889  30.9982638888889 29.2795138888889  32.265625 27.109375  Z M 37.3177083333335 9.9609375  C 39.1059027777778 13.0251736111111  40 16.3715277777778  40 20  C 40 23.6284722222223  39.1059027777778 26.9748263888889  37.3177083333335 30.0390625  C 35.5295138888889 33.1032986111111  33.1032986111111 35.5295138888889  30.0390625 37.3177083333334  C 26.9748263888889 39.1059027777778  23.6284722222222 40  20 40  C 16.3715277777778 40  13.0251736111111 39.1059027777778  9.9609375 37.3177083333334  C 6.89670138888891 35.5295138888889  4.47048611111109 33.1032986111111  2.68229166666652 30.0390625  C 0.894097222222172 26.9748263888889  0 23.6284722222223  0 20  C 0 16.3715277777778  0.894097222222172 13.0251736111111  2.68229166666652 9.9609375  C 4.47048611111109 6.89670138888891  6.89670138888891 4.47048611111109  9.9609375 2.68229166666663  C 13.0251736111111 0.894097222222172  16.3715277777778 0  20 0  C 23.6284722222222 0  26.9748263888889 0.894097222222172  30.0390625 2.68229166666663  C 33.1032986111111 4.47048611111109  35.5295138888889 6.89670138888891  37.3177083333335 9.9609375  Z " fill-rule="nonzero" fill="#bcbcbc" stroke="none" transform="matrix(1 0 0 1 1256 943 )" />
  </g>
</svg>