<?xml version="1.0" encoding="utf-8"?>
<svg version="1.1" xmlns:xlink="http://www.w3.org/1999/xlink" width="22px" height="22px" xmlns="http://www.w3.org/2000/svg">
  <g transform="matrix(1 0 0 1 -878 -298 )">
    <path d="M 15.85546875 13.2916666666667  C 15.85546875 13.4157986111111  15.8077256944443 13.5256076388889  15.7122395833333 13.62109375  L 13.62109375 15.7122395833333  C 13.5256076388889 15.8077256944445  13.4157986111111 15.85546875  13.2916666666667 15.85546875  C 13.1675347222222 15.85546875  13.0577256944443 15.8077256944445  12.9622395833333 15.7122395833333  L 11 13.75  L 9.03776041666674 15.7122395833333  C 8.94227430555566 15.8077256944445  8.83246527777783 15.85546875  8.70833333333326 15.85546875  C 8.58420138888891 15.85546875  8.47439236111109 15.8077256944445  8.37890625 15.7122395833333  L 6.28776041666674 13.62109375  C 6.19227430555566 13.5256076388889  6.14453125 13.4157986111111  6.14453125 13.2916666666667  C 6.14453125 13.1675347222222  6.19227430555566 13.0577256944445  6.28776041666674 12.9622395833333  L 8.25 11  L 6.28776041666674 9.03776041666669  C 6.19227430555566 8.94227430555554  6.14453125 8.83246527777777  6.14453125 8.70833333333331  C 6.14453125 8.58420138888891  6.19227430555566 8.47439236111109  6.28776041666674 8.37890625  L 8.37890625 6.28776041666669  C 8.47439236111109 6.19227430555554  8.58420138888891 6.14453125  8.70833333333326 6.14453125  C 8.83246527777783 6.14453125  8.94227430555566 6.19227430555554  9.03776041666674 6.28776041666669  L 11 8.25  L 12.9622395833333 6.28776041666669  C 13.0577256944443 6.19227430555554  13.1675347222222 6.14453125  13.2916666666667 6.14453125  C 13.4157986111111 6.14453125  13.5256076388889 6.19227430555554  13.62109375 6.28776041666669  L 15.7122395833333 8.37890625  C 15.8077256944443 8.47439236111109  15.85546875 8.58420138888891  15.85546875 8.70833333333331  C 15.85546875 8.83246527777777  15.8077256944443 8.94227430555554  15.7122395833333 9.03776041666669  L 13.75 11  L 15.7122395833333 12.9622395833333  C 15.8077256944443 13.0577256944445  15.85546875 13.1675347222222  15.85546875 13.2916666666667  Z M 17.74609375 14.91015625  C 18.4431423611111 13.7165798611111  18.7916666666667 12.4131944444445  18.7916666666667 11  C 18.7916666666667 9.58680555555554  18.4431423611111 8.28342013888891  17.74609375 7.08984375  C 17.0490451388889 5.89626736111109  16.1037326388889 4.95095486111109  14.91015625 4.25390625  C 13.7165798611111 3.55685763888891  12.4131944444443 3.20833333333331  11 3.20833333333331  C 9.58680555555566 3.20833333333331  8.28342013888891 3.55685763888891  7.08984375 4.25390625  C 5.89626736111109 4.95095486111109  4.95095486111109 5.89626736111109  4.25390625 7.08984375  C 3.55685763888891 8.28342013888891  3.20833333333326 9.58680555555554  3.20833333333326 11  C 3.20833333333326 12.4131944444445  3.55685763888891 13.7165798611111  4.25390625 14.91015625  C 4.95095486111109 16.1037326388889  5.89626736111109 17.0490451388889  7.08984375 17.74609375  C 8.28342013888891 18.4431423611111  9.58680555555566 18.7916666666667  11 18.7916666666667  C 12.4131944444443 18.7916666666667  13.7165798611111 18.4431423611111  14.91015625 17.74609375  C 16.1037326388889 17.0490451388889  17.0490451388889 16.1037326388889  17.74609375 14.91015625  Z M 20.5247395833333 5.478515625  C 21.5082465277778 7.16384548611109  22 9.00434027777777  22 11  C 22 12.9956597222222  21.5082465277778 14.8361545138889  20.5247395833333 16.521484375  C 19.5412326388889 18.2068142361111  18.2068142361111 19.5412326388889  16.521484375 20.5247395833333  C 14.8361545138889 21.5082465277778  12.9956597222222 22  11 22  C 9.00434027777783 22  7.16384548611109 21.5082465277778  5.478515625 20.5247395833333  C 3.79318576388891 19.5412326388889  2.45876736111109 18.2068142361111  1.47526041666674 16.521484375  C 0.491753472222172 14.8361545138889  0 12.9956597222222  0 11  C 0 9.00434027777777  0.491753472222172 7.16384548611109  1.47526041666674 5.478515625  C 2.45876736111109 3.79318576388891  3.79318576388891 2.45876736111109  5.478515625 1.47526041666669  C 7.16384548611109 0.491753472222229  9.00434027777783 0  11 0  C 12.9956597222222 0  14.8361545138889 0.491753472222229  16.521484375 1.47526041666669  C 18.2068142361111 2.45876736111109  19.5412326388889 3.79318576388891  20.5247395833333 5.478515625  Z " fill-rule="nonzero" fill="#bcbcbc" stroke="none" transform="matrix(1 0 0 1 878 298 )" />
  </g>
</svg>