<?xml version="1.0" encoding="utf-8"?>
<svg version="1.1" xmlns:xlink="http://www.w3.org/1999/xlink" width="423px" height="145px" xmlns="http://www.w3.org/2000/svg">
  <g transform="matrix(1 0 0 1 -1836 -453 )">
    <path d="M 1836.5 549.184971098266  C 1836.5 549.184971098266  1836.5 473  1836.5 473  C 1836.5 462.2304473783  1845.2304473783 453.5  1856 453.5  C 1856 453.5  2239 453.5  2239 453.5  C 2249.7695526217 453.5  2258.5 462.2304473783  2258.5 473  C 2258.5 473  2258.5 549.184971098266  2258.5 549.184971098266  C 2258.5 559.954523719966  2249.7695526217 568.684971098266  2239 568.684971098266  C 2239 568.684971098266  1948.68166245355 568.684971098266  1948.68166245355 568.684971098266  C 1948.68166245355 568.684971098266  1893.13576526442 596.537811482322  1893.13576526442 596.537811482322  C 1893.13576526442 596.537811482322  1907.31561577925 568.684971098266  1907.31561577925 568.684971098266  C 1907.31561577925 568.684971098266  1856 568.684971098266  1856 568.684971098266  C 1845.2304473783 568.684971098266  1836.5 559.954523719966  1836.5 549.184971098266  Z " fill-rule="nonzero" fill="#ffffff" stroke="none" />
    <path d="M 1836 549.184971098266  C 1836 549.184971098266  1836 473  1836 473  C 1836 461.954305003384  1844.95430500338 453  1856 453  C 1856 453  2239 453  2239 453  C 2250.04569499662 453  2259 461.954305003384  2259 473  C 2259 473  2259 549.184971098266  2259 549.184971098266  C 2259 560.230666094882  2250.04569499662 569.184971098266  2239 569.184971098266  C 2239 569.184971098266  1948.8 569.184971098266  1948.8 569.184971098266  C 1948.8 569.184971098266  1892 597.666666666667  1892 597.666666666667  C 1892 597.666666666667  1906.5 569.184971098266  1906.5 569.184971098266  C 1906.5 569.184971098266  1856 569.184971098266  1856 569.184971098266  C 1844.95430500338 569.184971098266  1836 560.230666094882  1836 549.184971098266  Z M 1837 549.184971098266  C 1837 559.678381345051  1845.50658975321 568.184971098266  1856 568.184971098266  C 1856 568.184971098266  1908.1312315585 568.184971098266  1908.1312315585 568.184971098266  C 1908.1312315585 568.184971098266  1894.27153052884 595.408956297978  1894.27153052884 595.408956297978  C 1894.27153052884 595.408956297978  1948.56332490709 568.184971098266  1948.56332490709 568.184971098266  C 1948.56332490709 568.184971098266  2239 568.184971098266  2239 568.184971098266  C 2249.49341024679 568.184971098266  2258 559.678381345051  2258 549.184971098266  C 2258 549.184971098266  2258 473  2258 473  C 2258 462.506589753215  2249.49341024679 454  2239 454  C 2239 454  1856 454  1856 454  C 1845.50658975321 454  1837 462.506589753215  1837 473  C 1837 473  1837 549.184971098266  1837 549.184971098266  Z " fill-rule="nonzero" fill="#797979" stroke="none" />
  </g>
</svg>