<?xml version="1.0" encoding="utf-8"?>
<svg version="1.1" xmlns:xlink="http://www.w3.org/1999/xlink" width="60px" height="60px" xmlns="http://www.w3.org/2000/svg">
  <g transform="matrix(1 0 0 1 -3545 -950 )">
    <path d="M 3575 952  C 3590.68 952  3603 964.32  3603 980  C 3603 995.68  3590.68 1008  3575 1008  C 3559.32 1008  3547 995.68  3547 980  C 3547 964.32  3559.32 952  3575 952  Z " fill-rule="nonzero" fill="#ffffff" stroke="none" fill-opacity="0" />
    <path d="M 3575 951.5  C 3590.96 951.5  3603.5 964.04  3603.5 980  C 3603.5 995.96  3590.96 1008.5  3575 1008.5  C 3559.04 1008.5  3546.5 995.96  3546.5 980  C 3546.5 964.04  3559.04 951.5  3575 951.5  Z " stroke-width="3" stroke="#95f204" fill="none" />
  </g>
</svg>