<?xml version="1.0" encoding="utf-8"?>
<svg version="1.1" xmlns:xlink="http://www.w3.org/1999/xlink" width="60px" height="60px" xmlns="http://www.w3.org/2000/svg">
  <g transform="matrix(1 0 0 1 -445 -647 )">
    <path d="M 475 649  C 490.68 649  503 661.32  503 677  C 503 692.68  490.68 705  475 705  C 459.32 705  447 692.68  447 677  C 447 661.32  459.32 649  475 649  Z " fill-rule="nonzero" fill="#ffffff" stroke="none" fill-opacity="0" />
    <path d="M 475 648.5  C 490.96 648.5  503.5 661.04  503.5 677  C 503.5 692.96  490.96 705.5  475 705.5  C 459.04 705.5  446.5 692.96  446.5 677  C 446.5 661.04  459.04 648.5  475 648.5  Z " stroke-width="3" stroke="#95f204" fill="none" />
  </g>
</svg>