<?xml version="1.0" encoding="utf-8"?>
<svg version="1.1" xmlns:xlink="http://www.w3.org/1999/xlink" width="10px" height="26px" preserveAspectRatio="xMidYMin meet" viewBox="4034 1307  8 26" xmlns="http://www.w3.org/2000/svg">
  <path d="M 4048 1312  L 4043 1312  A 5 5 0 0 0 4038 1317 L 4038 1323  A 5 5 0 0 1 4033 1328 L 3403 1328  A 5 5 0 0 1 3398 1323 L 3398 1136  A 5 5 0 0 0 3393 1131 L 3378 1131  " stroke-width="2" stroke-dasharray="6,2" stroke="#0099cc" fill="none" />
  <path d="M 3383.10710678119 1135.29289321881  L 3378.81421356237 1131  L 3383.10710678119 1126.70710678119  L 3381.69289321881 1125.29289321881  L 3376.69289321881 1130.29289321881  L 3375.98578643763 1131  L 3376.69289321881 1131.70710678119  L 3381.69289321881 1136.70710678119  L 3383.10710678119 1135.29289321881  Z " fill-rule="nonzero" fill="#0099cc" stroke="none" />
</svg>