<?xml version="1.0" encoding="utf-8"?>
<svg version="1.1" xmlns:xlink="http://www.w3.org/1999/xlink" width="20px" height="20px" preserveAspectRatio="xMinYMid meet" viewBox="3552 1129  20 18" xmlns="http://www.w3.org/2000/svg">
  <path d="M 3163 1110  L 3168 1110  A 5 5 0 0 0 3173 1105 L 3173 1015  A 5 5 0 0 1 3178 1010 L 3516 1010  A 5 5 0 0 1 3521 1015 L 3521 1133  A 5 5 0 0 0 3526 1138 L 3562 1138  " stroke-width="2" stroke-dasharray="6,2" stroke="#0099cc" fill="none" />
  <path d="M 3556.89289321881 1133.70710678119  L 3561.18578643763 1138  L 3556.89289321881 1142.29289321881  L 3558.30710678119 1143.70710678119  L 3563.30710678119 1138.70710678119  L 3564.01421356237 1138  L 3563.30710678119 1137.29289321881  L 3558.30710678119 1132.29289321881  L 3556.89289321881 1133.70710678119  Z " fill-rule="nonzero" fill="#0099cc" stroke="none" />
</svg>