<?xml version="1.0" encoding="utf-8"?>
<svg version="1.1" xmlns:xlink="http://www.w3.org/1999/xlink" width="523px" height="56px" xmlns="http://www.w3.org/2000/svg">
  <g transform="matrix(1 0 0 1 -45 -1447 )">
    <path d="M 0.5 0  L 0.5 53.7620578778135  C 0 54.4553054662379  1.54295585412667 55  3.50671785028791 55.5  L 518.493282149712 55.5  C 520.457044145873 55  522 54.4553054662379  522.5 53.7620578778135  L 522.5 0  L 0.5 0  Z " fill-rule="nonzero" fill="#ffffff" stroke="none" transform="matrix(1 0 0 1 45 1447 )" />
    <path d="M 0.5 0  L 0.5 53.7620578778135  C 0 54.4553054662379  1.54295585412667 55  3.50671785028791 55.5  L 518.493282149712 55.5  C 520.457044145873 55  522 54.4553054662379  522.5 53.7620578778135  L 522.5 0  " stroke-width="1" stroke="#ebebeb" fill="none" transform="matrix(1 0 0 1 45 1447 )" />
  </g>
</svg>