<?xml version="1.0" encoding="utf-8"?>
<svg version="1.1" xmlns:xlink="http://www.w3.org/1999/xlink" width="300px" height="231px" xmlns="http://www.w3.org/2000/svg">
  <g transform="matrix(1 0 0 1 -385 -241 )">
    <path d="M 385.5 417.285714285714  C 385.5 417.285714285714  385.5 241.5  385.5 241.5  C 385.5 241.5  684.5 241.5  684.5 241.5  C 684.5 241.5  684.5 417.285714285714  684.5 417.285714285714  C 684.5 417.285714285714  464.824067896768 417.285714285714  464.824067896768 417.285714285714  C 464.824067896768 417.285714285714  401.024535254437 468.527411724977  401.024535254437 468.527411724977  C 401.024535254437 468.527411724977  435.945821771991 417.285714285714  435.945821771991 417.285714285714  C 435.945821771991 417.285714285714  385.5 417.285714285714  385.5 417.285714285714  Z " fill-rule="nonzero" fill="#ffffff" stroke="none" />
    <path d="M 385 417.785714285714  C 385 417.785714285714  385 241  385 241  C 385 241  685 241  685 241  C 685 241  685 417.785714285714  685 417.785714285714  C 685 417.785714285714  465 417.785714285714  465 417.785714285714  C 465 417.785714285714  398.722222222222 471.017857142858  398.722222222222 471.017857142858  C 398.722222222222 471.017857142858  435 417.785714285714  435 417.785714285714  C 435 417.785714285714  385 417.785714285714  385 417.785714285714  Z M 386 416.785714285714  C 386 416.785714285714  436.891643543982 416.785714285714  436.891643543982 416.785714285714  C 436.891643543982 416.785714285714  403.326848286651 466.036966307096  403.326848286651 466.036966307096  C 403.326848286651 466.036966307096  464.648135793536 416.785714285714  464.648135793536 416.785714285714  C 464.648135793536 416.785714285714  684 416.785714285714  684 416.785714285714  C 684 416.785714285714  684 242  684 242  C 684 242  386 242  386 242  C 386 242  386 416.785714285714  386 416.785714285714  Z " fill-rule="nonzero" fill="#797979" stroke="none" />
  </g>
</svg>