<?xml version="1.0" encoding="utf-8"?>
<svg version="1.1" xmlns:xlink="http://www.w3.org/1999/xlink" width="15px" height="10px" preserveAspectRatio="xMinYMid meet" viewBox="1139 555  15 8" xmlns="http://www.w3.org/2000/svg">
  <path d="M 1139 559  L 1144 559  A 5 5 0 0 0 1149 554 L 1149 399  A 5 5 0 0 1 1154 394 L 1705 394  A 5 5 0 0 0 1710 389 L 1710 229  A 5 5 0 0 1 1715 224 L 1726 224  " stroke-width="2" stroke-dasharray="6,2" stroke="#0099cc" fill="none" />
  <path d="M 1720.89289321881 219.707106781187  L 1725.18578643763 224  L 1720.89289321881 228.292893218813  L 1722.30710678119 229.707106781187  L 1727.30710678119 224.707106781187  L 1728.01421356237 224  L 1727.30710678119 223.292893218813  L 1722.30710678119 218.292893218813  L 1720.89289321881 219.707106781187  Z " fill-rule="nonzero" fill="#0099cc" stroke="none" />
</svg>