<?xml version="1.0" encoding="utf-8"?>
<svg version="1.1" xmlns:xlink="http://www.w3.org/1999/xlink" width="125px" height="126px" xmlns="http://www.w3.org/2000/svg">
  <g transform="matrix(1 0 0 1 -461 -2394 )">
    <path d="M 523.5 2394  C 558.5 2394  586 2421.72  586 2457  C 586 2492.28  558.5 2520  523.5 2520  C 488.5 2520  461 2492.28  461 2457  C 461 2421.72  488.5 2394  523.5 2394  Z " fill-rule="nonzero" fill="#ffffff" stroke="none" fill-opacity="0" />
    <path d="M 523.5 2394.5  C 558.22 2394.5  585.5 2422  585.5 2457  C 585.5 2492  558.22 2519.5  523.5 2519.5  C 488.78 2519.5  461.5 2492  461.5 2457  C 461.5 2422  488.78 2394.5  523.5 2394.5  Z " stroke-width="1" stroke="#797979" fill="none" />
  </g>
</svg>