<?xml version="1.0" encoding="utf-8"?>
<svg version="1.1" xmlns:xlink="http://www.w3.org/1999/xlink" width="92px" height="121px" xmlns="http://www.w3.org/2000/svg">
  <g transform="matrix(1 0 0 1 -4375 -3260 )">
    <path d="M 4421 3260  C 4446.76 3260  4467 3286.62  4467 3320.5  C 4467 3354.38  4446.76 3381  4421 3381  C 4395.24 3381  4375 3354.38  4375 3320.5  C 4375 3286.62  4395.24 3260  4421 3260  Z " fill-rule="nonzero" fill="#ffffff" stroke="none" />
    <path d="M 4421 3260.5  C 4446.48 3260.5  4466.5 3286.9  4466.5 3320.5  C 4466.5 3354.1  4446.48 3380.5  4421 3380.5  C 4395.52 3380.5  4375.5 3354.1  4375.5 3320.5  C 4375.5 3286.9  4395.52 3260.5  4421 3260.5  Z " stroke-width="1" stroke="#797979" fill="none" />
  </g>
</svg>