<?xml version="1.0" encoding="utf-8"?>
<svg version="1.1" xmlns:xlink="http://www.w3.org/1999/xlink" width="18px" height="18px" xmlns="http://www.w3.org/2000/svg">
  <g transform="matrix(1 0 0 1 -99 -119 )">
    <path d="M 10.9741586538461 7.02584134615392  C 11.0426682692307 7.09435096153857  11.076923076923 7.17548076923072  11.076923076923 7.26923076923089  L 11.076923076923 7.96153846153848  C 11.076923076923 8.0552884615384  11.0426682692307 8.1364182692308  10.9741586538461 8.20492788461544  C 10.9056490384614 8.27343750000009  10.8245192307693 8.30769230769241  10.7307692307691 8.30769230769241  L 8.30769230769241 8.30769230769241  L 8.30769230769241 10.7307692307691  C 8.30769230769241 10.8245192307693  8.27343750000009 10.9056490384614  8.20492788461544 10.9741586538461  C 8.1364182692308 11.0426682692307  8.0552884615384 11.076923076923  7.96153846153848 11.076923076923  L 7.26923076923089 11.076923076923  C 7.17548076923072 11.076923076923  7.09435096153857 11.0426682692307  7.02584134615392 10.9741586538461  C 6.95733173076928 10.9056490384614  6.92307692307696 10.8245192307693  6.92307692307696 10.7307692307691  L 6.92307692307696 8.30769230769241  L 4.5 8.30769230769241  C 4.40625000000009 8.30769230769241  4.32512019230768 8.27343750000009  4.25661057692304 8.20492788461544  C 4.1881009615384 8.1364182692308  4.15384615384608 8.0552884615384  4.15384615384608 7.96153846153848  L 4.15384615384608 7.26923076923089  C 4.15384615384608 7.17548076923072  4.1881009615384 7.09435096153857  4.25661057692304 7.02584134615392  C 4.32512019230768 6.95733173076928  4.40625000000009 6.92307692307696  4.5 6.92307692307696  L 6.92307692307696 6.92307692307696  L 6.92307692307696 4.5  C 6.92307692307696 4.40625000000009  6.95733173076928 4.32512019230768  7.02584134615392 4.25661057692304  C 7.09435096153857 4.1881009615384  7.17548076923072 4.15384615384608  7.26923076923089 4.15384615384608  L 7.96153846153848 4.15384615384608  C 8.0552884615384 4.15384615384608  8.1364182692308 4.1881009615384  8.20492788461544 4.25661057692304  C 8.27343750000009 4.32512019230768  8.30769230769241 4.40625000000009  8.30769230769241 4.5  L 8.30769230769241 6.92307692307696  L 10.7307692307691 6.92307692307696  C 10.8245192307693 6.92307692307696  10.9056490384614 6.95733173076928  10.9741586538461 7.02584134615392  Z M 11.0390625 11.0390625  C 11.9873798076923 10.0907451923077  12.4615384615385 8.9495192307692  12.4615384615385 7.61538461538456  C 12.4615384615385 6.28124999999991  11.9873798076923 5.14002403846143  11.0390625 4.19170673076937  C 10.0907451923077 3.24338942307705  8.9495192307692 2.76923076923063  7.61538461538456 2.76923076923063  C 6.28124999999991 2.76923076923063  5.14002403846143 3.24338942307705  4.19170673076937 4.19170673076937  C 3.24338942307705 5.14002403846143  2.76923076923063 6.28124999999991  2.76923076923063 7.61538461538456  C 2.76923076923063 8.9495192307692  3.24338942307705 10.0907451923077  4.19170673076937 11.0390625  C 5.14002403846143 11.9873798076923  6.28124999999991 12.4615384615385  7.61538461538456 12.4615384615385  C 8.9495192307692 12.4615384615385  10.0907451923077 11.9873798076923  11.0390625 11.0390625  Z M 17.5997596153846 15.641826923077  C 17.8665865384614 15.9086538461538  18 16.2331730769232  18 16.6153846153846  C 18 16.9975961538462  17.8647836538461 17.3239182692306  17.5943509615385 17.5943509615385  C 17.3239182692309 17.8647836538461  16.9975961538462 18  16.6153846153846 18  C 16.2259615384615 18  15.9014423076924 17.8629807692307  15.641826923077 17.5889423076924  L 11.9314903846154 13.889423076923  C 10.6406249999999 14.7836538461538  9.20192307692295 15.2307692307691  7.61538461538456 15.2307692307691  C 6.58413461538473 15.2307692307691  5.59795673076911 15.0306490384615  4.65685096153848 14.6304086538461  C 3.71574519230759 14.2301682692309  2.90444711538456 13.6893028846154  2.22295673076937 13.0078125  C 1.54146634615392 12.3263221153846  1.00060096153848 11.5150240384615  0.600360576923038 10.5739182692309  C 0.200120192307594 9.6328125  0 8.64663461538464  0 7.61538461538456  C 0 6.58413461538447  0.200120192307594 5.59795673076911  0.600360576923038 4.65685096153848  C 1.00060096153848 3.71574519230759  1.54146634615392 2.90444711538456  2.22295673076937 2.22295673076937  C 2.90444711538456 1.54146634615392  3.71574519230759 1.00060096153848  4.65685096153848 0.600360576923038  C 5.59795673076911 0.200120192307594  6.58413461538473 0  7.61538461538456 0  C 8.64663461538464 0  9.6328125 0.200120192307594  10.5739182692309 0.600360576923038  C 11.5150240384615 1.00060096153848  12.3263221153846 1.54146634615392  13.0078125 2.22295673076937  C 13.6893028846154 2.90444711538456  14.2301682692309 3.71574519230759  14.6304086538461 4.65685096153848  C 15.0306490384615 5.59795673076911  15.2307692307691 6.58413461538447  15.2307692307691 7.61538461538456  C 15.2307692307691 9.20192307692295  14.7836538461538 10.6406249999999  13.889423076923 11.9314903846154  L 17.5997596153846 15.641826923077  Z " fill-rule="nonzero" fill="#333333" stroke="none" transform="matrix(1 0 0 1 99 119 )" />
  </g>
</svg>