<?xml version="1.0" encoding="utf-8"?>
<svg version="1.1" xmlns:xlink="http://www.w3.org/1999/xlink" width="28px" height="10px" preserveAspectRatio="xMinYMid meet" viewBox="1035 1176  28 8" xmlns="http://www.w3.org/2000/svg">
  <path d="M 133.5 1037  L 133.5 1015  A 5 5 0 0 0 128.5 1010.5 L 85 1010.5  A 5 5 0 0 1 80.5 1005.5 L 80.5 865  A 5 5 0 0 1 85 860.5 L 228 860.5  A 3 3 0 0 1 231 857.5 A 3 3 0 0 1 234 860.5 L 1035 860.5  A 5 5 0 0 1 1040.5 865 L 1040.5 927  A 3 3 0 0 1 1043.5 930 A 3 3 0 0 1 1040.5 933 L 1040.5 1175  A 5 5 0 0 0 1045.5 1180.5 L 1053 1180.5  A 5 5 0 0 0 1058.5 1175.5 L 1058.5 1156  " stroke-width="1" stroke-dasharray="1,1" stroke="#ff0000" fill="none" />
  <path d="M 1053 1157  L 1064 1157  L 1064 1156  L 1053 1156  L 1053 1157  Z " fill-rule="nonzero" fill="#ff0000" stroke="none" />
</svg>