<?xml version="1.0" encoding="utf-8"?>
<svg version="1.1" xmlns:xlink="http://www.w3.org/1999/xlink" width="10px" height="190px" preserveAspectRatio="xMidYMin meet" viewBox="1076 255  8 190" xmlns="http://www.w3.org/2000/svg">
  <path d="M 1066.5 64  L 1066.5 45  A 5 5 0 0 1 1071.5 40.5 L 1077 40.5  A 5 5 0 0 1 1082.5 45.5 L 1082.5 259  A 1 1 0 0 1 1081.5 260.5 A 1 1 0 0 0 1080.5 261.5 L 1080.5 435  A 5 5 0 0 0 1085.5 440.5 L 1093 440.5  A 5 5 0 0 0 1098.5 435.5 L 1098.5 417  " stroke-width="1" stroke-dasharray="1,1" stroke="#ff0000" fill="none" />
  <path d="M 1093 418  L 1104 418  L 1104 417  L 1093 417  L 1093 418  Z " fill-rule="nonzero" fill="#ff0000" stroke="none" />
</svg>