<?xml version="1.0" encoding="utf-8"?>
<svg version="1.1" xmlns:xlink="http://www.w3.org/1999/xlink" width="23px" height="18px" xmlns="http://www.w3.org/2000/svg">
  <g transform="matrix(1 0 0 1 -878 -335 )">
    <path d="M 6.21205357142856 13.4488636363636  C 6.45163690476193 13.6875  6.57142857142856 13.9772727272727  6.57142857142856 14.3181818181818  L 6.57142857142856 16.7727272727273  C 6.57142857142856 17.1136363636364  6.45163690476193 17.4034090909091  6.21205357142856 17.6420454545454  C 5.97247023809518 17.8806818181818  5.68154761904759 18  5.33928571428567 18  L 1.23214285714289 18  C 0.889880952380963 18  0.598958333333371 17.8806818181818  0.359375 17.6420454545454  C 0.119791666666629 17.4034090909091  0 17.1136363636364  0 16.7727272727273  L 0 14.3181818181818  C 0 13.9772727272727  0.119791666666629 13.6875  0.359375 13.4488636363636  C 0.598958333333371 13.2102272727273  0.889880952380963 13.0909090909091  1.23214285714289 13.0909090909091  L 5.33928571428567 13.0909090909091  C 5.68154761904759 13.0909090909091  5.97247023809518 13.2102272727273  6.21205357142856 13.4488636363636  Z M 6.21205357142856 6.90340909090907  C 6.45163690476193 7.14204545454544  6.57142857142856 7.43181818181819  6.57142857142856 7.77272727272725  L 6.57142857142856 10.2272727272727  C 6.57142857142856 10.5681818181818  6.45163690476193 10.8579545454546  6.21205357142856 11.0965909090909  C 5.97247023809518 11.3352272727273  5.68154761904759 11.4545454545454  5.33928571428567 11.4545454545454  L 1.23214285714289 11.4545454545454  C 0.889880952380963 11.4545454545454  0.598958333333371 11.3352272727273  0.359375 11.0965909090909  C 0.119791666666629 10.8579545454546  0 10.5681818181818  0 10.2272727272727  L 0 7.77272727272725  C 0 7.43181818181819  0.119791666666629 7.14204545454544  0.359375 6.90340909090907  C 0.598958333333371 6.66477272727275  0.889880952380963 6.54545454545456  1.23214285714289 6.54545454545456  L 5.33928571428567 6.54545454545456  C 5.68154761904759 6.54545454545456  5.97247023809518 6.66477272727275  6.21205357142856 6.90340909090907  Z M 22.640625 13.4488636363636  C 22.8802083333334 13.6875  23 13.9772727272727  23 14.3181818181818  L 23 16.7727272727273  C 23 17.1136363636364  22.8802083333334 17.4034090909091  22.640625 17.6420454545454  C 22.4010416666666 17.8806818181818  22.110119047619 18  21.7678571428571 18  L 9.44642857142856 18  C 9.10416666666663 18  8.81324404761904 17.8806818181818  8.57366071428567 17.6420454545454  C 8.33407738095241 17.4034090909091  8.21428571428567 17.1136363636364  8.21428571428567 16.7727272727273  L 8.21428571428567 14.3181818181818  C 8.21428571428567 13.9772727272727  8.33407738095241 13.6875  8.57366071428567 13.4488636363636  C 8.81324404761904 13.2102272727273  9.10416666666663 13.0909090909091  9.44642857142856 13  L 21.7678571428571 13  C 22.110119047619 13.0909090909091  22.4010416666666 13.2102272727273  22.640625 13.4488636363636  Z M 6.21205357142856 0.357954545454533  C 6.45163690476193 0.596590909090907  6.57142857142856 0.886363636363626  6.57142857142856 1.22727272727272  L 6.57142857142856 3.68181818181819  C 6.57142857142856 4.02272727272725  6.45163690476193 4.3125  6.21205357142856 4.55113636363637  C 5.97247023809518 4.78977272727275  5.68154761904759 4.90909090909093  5.33928571428567 4.90909090909093  L 1.23214285714289 4.90909090909093  C 0.889880952380963 4.90909090909093  0.598958333333371 4.78977272727275  0.359375 4.55113636363637  C 0.119791666666629 4.3125  0 4.02272727272725  0 3.68181818181819  L 0 1.22727272727272  C 0 0.886363636363626  0.119791666666629 0.596590909090907  0.359375 0.357954545454533  C 0.598958333333371 0.119318181818187  0.889880952380963 0  1.23214285714289 0  L 5.33928571428567 0  C 5.68154761904759 0  5.97247023809518 0.119318181818187  6.21205357142856 0.357954545454533  Z M 22.640625 6.90340909090907  C 22.8802083333334 7.14204545454544  23 7.43181818181819  23 7.77272727272725  L 23 10.2272727272727  C 23 10.5681818181818  22.8802083333334 10.8579545454546  22.640625 11.0965909090909  C 22.4010416666666 11.3352272727273  22.110119047619 11.4545454545454  21.7678571428571 11.4545454545454  L 9.44642857142856 11.4545454545454  C 9.10416666666663 11.4545454545454  8.81324404761904 11.3352272727273  8.57366071428567 11.0965909090909  C 8.33407738095241 10.8579545454546  8.21428571428567 10.5681818181818  8.21428571428567 10.2272727272727  L 8.21428571428567 7.77272727272725  C 8.21428571428567 7.43181818181819  8.33407738095241 7.14204545454544  8.57366071428567 6.90340909090907  C 8.81324404761904 6.66477272727275  9.10416666666663 6.54545454545456  9.44642857142856 6.54545454545456  L 21.7678571428571 6.54545454545456  C 22.110119047619 6.54545454545456  22.4010416666666 6.66477272727275  22.640625 6.90340909090907  Z M 22.640625 0.357954545454533  C 22.8802083333334 0.596590909090907  23 0.886363636363626  23 1.22727272727272  L 23 3.68181818181819  C 23 4.02272727272725  22.8802083333334 4.3125  22.640625 4.55113636363637  C 22.4010416666666 4.78977272727275  22.110119047619 4.90909090909093  21.7678571428571 5  L 9.44642857142856 5  C 9.10416666666663 4.90909090909093  8.81324404761904 4.78977272727275  8.57366071428567 4.55113636363637  C 8.33407738095241 4.3125  8.21428571428567 4.02272727272725  8.21428571428567 3.68181818181819  L 8.21428571428567 1.22727272727272  C 8.21428571428567 0.886363636363626  8.33407738095241 0.596590909090907  8.57366071428567 0.357954545454533  C 8.81324404761904 0.119318181818187  9.10416666666663 0  9.44642857142856 0  L 21.7678571428571 0  C 22.110119047619 0  22.4010416666666 0.119318181818187  22.640625 0.357954545454533  Z " fill-rule="nonzero" fill="#c9c9c9" stroke="none" transform="matrix(1 0 0 1 878 335 )" />
  </g>
</svg>