<?xml version="1.0" encoding="utf-8"?>
<svg version="1.1" xmlns:xlink="http://www.w3.org/1999/xlink" width="37px" height="19px" xmlns="http://www.w3.org/2000/svg">
  <g transform="matrix(1 0 0 1 -787 -73 )">
    <path d="M 15.5887276785714 10.0551948051948  L 0.929129464285714 18.8149350649351  C 0.667596726190476 18.9712121212121  0.447358630952381 19.0246753246753  0.268415178571429 18.9753246753247  C 0.0894717261904762 18.925974025974  0 18.7943722943723  0 18.5805194805195  L 0 0.419480519480519  C 0 0.205627705627704  0.0894717261904762 0.074025974025973  0.268415178571429 0.0246753246753236  C 0.447358630952381 -0.0246753246753257  0.667596726190476 0.0287878787878779  0.929129464285714 0.185064935064935  L 15.5887276785714 8.94480519480519  C 15.7126116071429 9.01883116883117  15.8020833333333 9.0969696969697  15.8571428571429 9.17922077922078  L 15.8571428571429 0.419480519480519  C 15.8571428571429 0.205627705627704  15.9466145833333 0.074025974025973  16.1255580357143 0.0246753246753236  C 16.3045014880952 -0.0246753246753257  16.5247395833333 0.0287878787878779  16.7862723214286 0.185064935064935  L 31.4458705357143 8.94480519480519  C 31.5697544642857 9.01883116883117  31.6592261904762 9.0969696969697  31.7142857142857 9.17922077922078  L 31.7142857142857 0.814285714285714  C 31.7142857142857 0.600432900432899  31.8450520833333 0.415367965367964  32.1065848214286 0.25909090909091  C 32.3681175595238 0.102813852813851  32.6778273809524 0.0246753246753236  33.0357142857143 0.0246753246753236  L 35.6785714285714 0.0246753246753236  C 36.0364583333333 0.0246753246753236  36.3461681547619 0.102813852813851  36.6077008928571 0.25909090909091  C 36.8692336309524 0.415367965367964  37 0.600432900432899  37 0.814285714285714  L 37 18.1857142857143  C 37 18.3995670995671  36.8692336309524 18.584632034632  36.6077008928571 18.7409090909091  C 36.3461681547619 18.8971861471861  36.0364583333333 18.9753246753247  35.6785714285714 18.9753246753247  L 33.0357142857143 18.9753246753247  C 32.6778273809524 18.9753246753247  32.3681175595238 18.8971861471861  32.1065848214286 18.7409090909091  C 31.8450520833333 18.584632034632  31.7142857142857 18.3995670995671  31.7142857142857 18.1857142857143  L 31.7142857142857 9.82077922077922  C 31.6592261904762 9.9030303030303  31.5697544642857 9.98116883116883  31.4458705357143 10.0551948051948  L 16.7862723214286 18.8149350649351  C 16.5247395833333 18.9712121212121  16.3045014880952 19.0246753246753  16.1255580357143 18.9753246753247  C 15.9466145833333 18.925974025974  15.8571428571429 18.7943722943723  15.8571428571429 18.5805194805195  L 15.8571428571429 9.82077922077922  C 15.8020833333333 9.9030303030303  15.7126116071429 9.98116883116883  15.5887276785714 10.0551948051948  Z " fill-rule="nonzero" fill="#aaaaaa" stroke="none" transform="matrix(1 0 0 1 787 73 )" />
  </g>
</svg>