<?xml version="1.0" encoding="utf-8"?>
<svg version="1.1" xmlns:xlink="http://www.w3.org/1999/xlink" width="21px" height="18px" xmlns="http://www.w3.org/2000/svg">
  <g transform="matrix(1 0 0 1 -50 -127 )">
    <path d="M 12.8031850961538 7.02584134615392  C 12.8831129807692 7.09435096153857  12.9230769230769 7.17548076923072  12.9230769230769 7.26923076923089  L 12.9230769230769 7.96153846153848  C 12.9230769230769 8.0552884615384  12.8831129807692 8.1364182692308  12.8031850961538 8.20492788461544  C 12.7232572115383 8.27343750000009  12.6286057692308 8.30769230769241  12.5192307692306 8.30769230769241  L 9.69230769230781 8.30769230769241  L 9.69230769230781 10.7307692307691  C 9.69230769230781 10.8245192307693  9.6523437500001 10.9056490384614  9.57241586538468 10.9741586538461  C 9.49248798076927 11.0426682692307  9.39783653846146 11.076923076923  9.28846153846156 11.076923076923  L 8.48076923076937 11.076923076923  C 8.37139423076917 11.076923076923  8.27674278846166 11.0426682692307  8.19681490384625 10.9741586538461  C 8.11688701923083 10.9056490384614  8.07692307692312 10.8245192307693  8.07692307692312 10.7307692307691  L 8.07692307692312 8.30769230769241  L 5.25 8.30769230769241  C 5.1406250000001 8.30769230769241  5.04597355769229 8.27343750000009  4.96604567307688 8.20492788461544  C 4.88611778846146 8.1364182692308  4.84615384615375 8.0552884615384  4.84615384615375 7.96153846153848  L 4.84615384615375 7.26923076923089  C 4.84615384615375 7.17548076923072  4.88611778846146 7.09435096153857  4.96604567307688 7.02584134615392  C 5.04597355769229 6.95733173076928  5.1406250000001 6.92307692307696  5.25 6.92307692307696  L 8.07692307692312 6.92307692307696  L 8.07692307692312 4.5  C 8.07692307692312 4.40625000000009  8.11688701923083 4.32512019230768  8.19681490384625 4.25661057692304  C 8.27674278846166 4.1881009615384  8.37139423076917 4.15384615384608  8.48076923076937 4.15384615384608  L 9.28846153846156 4.15384615384608  C 9.39783653846146 4.15384615384608  9.49248798076927 4.1881009615384  9.57241586538468 4.25661057692304  C 9.6523437500001 4.32512019230768  9.69230769230781 4.40625000000009  9.69230769230781 4.5  L 9.69230769230781 6.92307692307696  L 12.5192307692306 6.92307692307696  C 12.6286057692308 6.92307692307696  12.7232572115383 6.95733173076928  12.8031850961538 7.02584134615392  Z M 12.87890625 11.0390625  C 13.9852764423077 10.0907451923077  14.5384615384616 8.9495192307692  14.5384615384616 7.61538461538456  C 14.5384615384616 6.28124999999991  13.9852764423077 5.14002403846143  12.87890625 4.19170673076937  C 11.7725360576923 3.24338942307705  10.4411057692307 2.76923076923063  8.88461538461532 2.76923076923063  C 7.3281249999999 2.76923076923063  5.99669471153834 3.24338942307705  4.89032451923093 4.19170673076937  C 3.78395432692322 5.14002403846143  3.23076923076907 6.28124999999991  3.23076923076907 7.61538461538456  C 3.23076923076907 8.9495192307692  3.78395432692322 10.0907451923077  4.89032451923093 11.0390625  C 5.99669471153834 11.9873798076923  7.3281249999999 12.4615384615385  8.88461538461532 12.4615384615385  C 10.4411057692307 12.4615384615385  11.7725360576923 11.9873798076923  12.87890625 11.0390625  Z M 20.5330528846153 15.641826923077  C 20.8443509615383 15.9086538461538  21 16.2331730769232  21 16.6153846153846  C 21 16.9975961538462  20.8422475961538 17.3239182692306  20.5267427884616 17.5943509615385  C 20.2112379807694 17.8647836538461  19.8305288461539 18  19.3846153846153 18  C 18.9302884615384 18  18.5516826923078 17.8629807692307  18.2487980769231 17.5889423076924  L 13.9200721153847 13.889423076923  C 12.4140624999999 14.7836538461538  10.7355769230768 15.2307692307691  8.88461538461532 15.2307692307691  C 7.68149038461551 15.2307692307691  6.53094951923063 15.0306490384615  5.43299278846156 14.6304086538461  C 4.33503605769219 14.2301682692309  3.38852163461532 13.6893028846154  2.59344951923093 13.0078125  C 1.79837740384625 12.3263221153846  1.16736778846156 11.5150240384615  0.700420673076877 10.5739182692309  C 0.233473557692193 9.6328125  0 8.64663461538464  0 7.61538461538456  C 0 6.58413461538447  0.233473557692193 5.59795673076911  0.700420673076877 4.65685096153848  C 1.16736778846156 3.71574519230759  1.79837740384625 2.90444711538456  2.59344951923093 2.22295673076937  C 3.38852163461532 1.54146634615392  4.33503605769219 1.00060096153848  5.43299278846156 0.600360576923038  C 6.53094951923063 0.200120192307594  7.68149038461551 0  8.88461538461532 0  C 10.0877403846154 0  11.23828125 0.200120192307594  12.3362379807694 0.600360576923038  C 13.4341947115384 1.00060096153848  14.3807091346153 1.54146634615392  15.17578125 2.22295673076937  C 15.9708533653847 2.90444711538456  16.6018629807694 3.71574519230759  17.0688100961538 4.65685096153848  C 17.5357572115384 5.59795673076911  17.7692307692306 6.58413461538447  17.7692307692306 7.61538461538456  C 17.7692307692306 9.20192307692295  17.2475961538461 10.6406249999999  16.2043269230769 11.9314903846154  L 20.5330528846153 15.641826923077  Z " fill-rule="nonzero" fill="#333333" stroke="none" transform="matrix(1 0 0 1 50 127 )" />
  </g>
</svg>