<?xml version="1.0" encoding="utf-8"?>
<svg version="1.1" xmlns:xlink="http://www.w3.org/1999/xlink" width="18px" height="18px" preserveAspectRatio="xMinYMid meet" viewBox="1184 568  18 16" xmlns="http://www.w3.org/2000/svg">
  <path d="M 676.5 440  L 676.5 395  A 5 5 0 0 1 681.5 390.5 L 1165 390.5  A 5 5 0 0 1 1170.5 395 L 1170.5 527  A 3 3 0 0 1 1173.5 530 A 3 3 0 0 1 1170.5 533 L 1170.5 595  A 5 5 0 0 0 1175.5 600.5 L 1188 600.5  A 5 5 0 0 0 1193.5 595.5 L 1193.5 575  " stroke-width="1" stroke-dasharray="1,1" stroke="#ff0000" fill="none" />
  <path d="M 1188 576  L 1199 576  L 1199 575  L 1188 575  L 1188 576  Z " fill-rule="nonzero" fill="#ff0000" stroke="none" />
</svg>