<?xml version="1.0" encoding="utf-8"?>
<svg version="1.1" xmlns:xlink="http://www.w3.org/1999/xlink" width="523px" height="62px" xmlns="http://www.w3.org/2000/svg">
  <g transform="matrix(1 0 0 1 -21 -1807 )">
    <path d="M 0.5 0  L 0.5 59.6270096463022  C 0 60.3958842443731  1.54295585412667 61  3.50671785028791 61.5  L 518.493282149712 61.5  C 520.457044145873 61  522 60.3958842443731  522.5 59.6270096463022  L 522.5 0  L 0.5 0  Z " fill-rule="nonzero" fill="#ffffff" stroke="none" transform="matrix(1 0 0 1 21 1807 )" />
    <path d="M 0.5 0  L 0.5 59.6270096463022  C 0 60.3958842443731  1.54295585412667 61  3.50671785028791 61.5  L 518.493282149712 61.5  C 520.457044145873 61  522 60.3958842443731  522.5 59.6270096463022  L 522.5 0  " stroke-width="1" stroke="#ebebeb" fill="none" transform="matrix(1 0 0 1 21 1807 )" />
  </g>
</svg>