<?xml version="1.0" encoding="utf-8"?>
<svg version="1.1" xmlns:xlink="http://www.w3.org/1999/xlink" width="523px" height="54px" xmlns="http://www.w3.org/2000/svg">
  <g transform="matrix(1 0 0 1 -588 -1353 )">
    <path d="M 0.5 0  L 0.5 51.8070739549837  C 0 52.4751125401929  1.54295585412672 53  3.50671785028794 53.5  L 518.493282149712 53.5  C 520.457044145873 53  522 52.4751125401929  522.5 51.8070739549837  L 522.5 0  L 0.5 0  Z " fill-rule="nonzero" fill="#ffffff" stroke="none" transform="matrix(1 0 0 1 588 1353 )" />
    <path d="M 0.5 0  L 0.5 51.8070739549837  C 0 52.4751125401929  1.54295585412672 53  3.50671785028794 53.5  L 518.493282149712 53.5  C 520.457044145873 53  522 52.4751125401929  522.5 51.8070739549837  L 522.5 0  " stroke-width="1" stroke="#ebebeb" fill="none" transform="matrix(1 0 0 1 588 1353 )" />
  </g>
</svg>