<?xml version="1.0" encoding="utf-8"?>
<svg version="1.1" xmlns:xlink="http://www.w3.org/1999/xlink" width="23px" height="10px" preserveAspectRatio="xMinYMid meet" viewBox="3495 116  23 8" xmlns="http://www.w3.org/2000/svg">
  <path d="M 787 509.5  L 1076 509.5  A 5 5 0 0 0 1081.5 504.5 L 1081.5 13  A 5 5 0 0 1 1086 8.5 L 2397 8.5  A 3 3 0 0 1 2400 5.5 A 3 3 0 0 1 2403 8.5 L 3495 8.5  A 5 5 0 0 1 3500.5 13 L 3500.5 33  A 3 3 0 0 1 3503.5 36 A 3 3 0 0 1 3500.5 39 L 3500.5 40  A 3 3 0 0 1 3503.5 43 A 3 3 0 0 1 3500.5 46 L 3500.5 115  A 5 5 0 0 0 3505.5 120.5 L 3508 120.5  A 5 5 0 0 0 3513.5 115.5 L 3513.5 95  " stroke-width="1" stroke-dasharray="1,1" stroke="#ff0000" fill="none" />
  <path d="M 3508 96  L 3519 96  L 3519 95  L 3508 95  L 3508 96  Z " fill-rule="nonzero" fill="#ff0000" stroke="none" />
</svg>