<?xml version="1.0" encoding="utf-8"?>
<svg version="1.1" xmlns:xlink="http://www.w3.org/1999/xlink" width="23px" height="10px" preserveAspectRatio="xMinYMid meet" viewBox="3495 436  23 8" xmlns="http://www.w3.org/2000/svg">
  <path d="M 1792.5 196  L 1792.5 95  A 5 5 0 0 1 1797.5 90.5 L 2395 90.5  A 5 5 0 0 0 2400.5 85.5 L 2400.5 5  A 5 5 0 0 1 2405.5 0.5 L 3495 0.5  A 5 5 0 0 1 3500.5 5.5 L 3500.5 435  A 5 5 0 0 0 3505.5 440.5 L 3508 440.5  A 5 5 0 0 0 3513.5 435.5 L 3513.5 419  " stroke-width="1" stroke-dasharray="1,1" stroke="#ff0000" fill="none" />
  <path d="M 3508 420  L 3519 420  L 3519 419  L 3508 419  L 3508 420  Z " fill-rule="nonzero" fill="#ff0000" stroke="none" />
</svg>