<?xml version="1.0" encoding="utf-8"?>
<svg version="1.1" xmlns:xlink="http://www.w3.org/1999/xlink" width="10px" height="664px" preserveAspectRatio="xMidYMin meet" viewBox="3499 38  8 664" xmlns="http://www.w3.org/2000/svg">
  <path d="M 1912.5 499  L 1912.5 93  A 3 3 0 0 0 1915.5 90 A 3 3 0 0 0 1912.5 87 L 1912.5 48  A 5 5 0 0 1 1917 43.5 L 2397 43.5  A 3 3 0 0 1 2400 40.5 A 3 3 0 0 1 2403 43.5 L 3498 43.5  A 5 5 0 0 1 3503.5 48 L 3503.5 437  A 3 3 0 0 1 3506.5 440 A 3 3 0 0 1 3503.5 443 L 3503.5 702  " stroke-width="1" stroke-dasharray="1,1" stroke="#ff0000" fill="none" />
  <path d="M 3509 701  L 3498 701  L 3498 702  L 3509 702  L 3509 701  Z " fill-rule="nonzero" fill="#ff0000" stroke="none" />
</svg>