<?xml version="1.0" encoding="utf-8"?>
<svg version="1.1" xmlns:xlink="http://www.w3.org/1999/xlink" width="10px" height="24px" preserveAspectRatio="xMidYMin meet" viewBox="2497 875  8 24" xmlns="http://www.w3.org/2000/svg">
  <path d="M 2501.5 899  L 2501.5 885  A 5 5 0 0 1 2506.5 880.5 L 3455 880.5  A 5 5 0 0 1 3460.5 885 L 3460.5 947  A 3 3 0 0 1 3463.5 950 A 3 3 0 0 1 3460.5 953 L 3460.5 1237  A 3 3 0 0 1 3463.5 1240 A 3 3 0 0 1 3460.5 1243 L 3460.5 1437  A 3 3 0 0 1 3463.5 1440 A 3 3 0 0 1 3460.5 1443 L 3460.5 1875  A 5 5 0 0 0 3465.5 1880.5 L 3473 1880.5  A 5 5 0 0 0 3478.5 1875.5 L 3478.5 1859  " stroke-width="1" stroke-dasharray="1,1" stroke="#ff0000" fill="none" />
  <path d="M 3473 1860  L 3484 1860  L 3484 1859  L 3473 1859  L 3473 1860  Z " fill-rule="nonzero" fill="#ff0000" stroke="none" />
</svg>