<?xml version="1.0" encoding="utf-8"?>
<svg version="1.1" xmlns:xlink="http://www.w3.org/1999/xlink" width="10px" height="27px" preserveAspectRatio="xMidYMin meet" viewBox="1922 1225  8 27" xmlns="http://www.w3.org/2000/svg">
  <path d="M 1926.5 1252  L 1926.5 1235  A 5 5 0 0 1 1931 1230.5 L 2233 1230.5  A 3 3 0 0 1 2236 1227.5 A 3 3 0 0 1 2239 1230.5 L 2385 1230.5  A 5 5 0 0 1 2390.5 1235 L 2390.5 1294  A 3 3 0 0 1 2393.5 1297 A 3 3 0 0 1 2390.5 1300 L 2390.5 1991  A 5 5 0 0 0 2395.5 1996.5 L 3478 1996.5  " stroke-width="1" stroke-dasharray="1,1" stroke="#ff0000" fill="none" />
  <path d="M 3477 1991  L 3477 2002  L 3478 2002  L 3478 1991  L 3477 1991  Z " fill-rule="nonzero" fill="#ff0000" stroke="none" />
</svg>