<?xml version="1.0" encoding="utf-8"?>
<svg version="1.1" xmlns:xlink="http://www.w3.org/1999/xlink" width="10px" height="800px" preserveAspectRatio="xMidYMin meet" viewBox="2386 1225  8 800" xmlns="http://www.w3.org/2000/svg">
  <path d="M 1926.5 1252  L 1926.5 1235  A 5 5 0 0 1 1931 1230.5 L 2233 1230.5  A 3 3 0 0 1 2236 1227.5 A 3 3 0 0 1 2239 1230.5 L 2385 1230.5  A 5 5 0 0 1 2390.5 1235 L 2390.5 1294  A 3 3 0 0 1 2393.5 1297 A 3 3 0 0 1 2390.5 1300 L 2390.5 2015  A 5 5 0 0 0 2395.5 2020.5 L 3473 2020.5  A 5 5 0 0 0 3478.5 2015.5 L 3478.5 1996  " stroke-width="1" stroke-dasharray="1,1" stroke="#ff0000" fill="none" />
  <path d="M 3473 1997  L 3484 1997  L 3484 1996  L 3473 1996  L 3473 1997  Z " fill-rule="nonzero" fill="#ff0000" stroke="none" />
</svg>