<?xml version="1.0" encoding="utf-8"?>
<svg version="1.1" xmlns:xlink="http://www.w3.org/1999/xlink" width="26px" height="10px" preserveAspectRatio="xMinYMid meet" viewBox="3465 1726  26 8" xmlns="http://www.w3.org/2000/svg">
  <path d="M 3146.5 1268  L 3146.5 1245  A 5 5 0 0 1 3151.5 1240.5 L 3465 1240.5  A 5 5 0 0 1 3470.5 1245 L 3470.5 1427  A 3 3 0 0 1 3473.5 1430 A 3 3 0 0 1 3470.5 1433 L 3470.5 1725  A 5 5 0 0 0 3475.5 1730.5 L 3481 1730.5  A 5 5 0 0 0 3486.5 1725.5 L 3486.5 1713  " stroke-width="1" stroke-dasharray="1,1" stroke="#ff0000" fill="none" />
  <path d="M 3481 1714  L 3492 1714  L 3492 1713  L 3481 1713  L 3481 1714  Z " fill-rule="nonzero" fill="#ff0000" stroke="none" />
</svg>