<?xml version="1.0" encoding="utf-8"?>
<svg version="1.1" xmlns:xlink="http://www.w3.org/1999/xlink" width="10px" height="470px" preserveAspectRatio="xMidYMin meet" viewBox="2386 975  8 470" xmlns="http://www.w3.org/2000/svg">
  <path d="M 1882.5 1015  L 1882.5 985  A 5 5 0 0 1 1887 980.5 L 2008 980.5  A 3 3 0 0 1 2011 977.5 A 3 3 0 0 1 2014 980.5 L 2356 980.5  A 3 3 0 0 1 2359 977.5 A 3 3 0 0 1 2362 980.5 L 2385 980.5  A 5 5 0 0 1 2390.5 985 L 2390.5 1104  A 3 3 0 0 1 2393.5 1107 A 3 3 0 0 1 2390.5 1110 L 2390.5 1294  A 3 3 0 0 1 2393.5 1297 A 3 3 0 0 1 2390.5 1300 L 2390.5 1435  A 5 5 0 0 0 2395.5 1440.5 L 3481 1440.5  A 5 5 0 0 0 3486.5 1435.5 L 3486.5 1419  " stroke-width="1" stroke-dasharray="1,1" stroke="#ff0000" fill="none" />
  <path d="M 3481 1420  L 3492 1420  L 3492 1419  L 3481 1419  L 3481 1420  Z " fill-rule="nonzero" fill="#ff0000" stroke="none" />
</svg>