<?xml version="1.0" encoding="utf-8"?>
<svg version="1.1" xmlns:xlink="http://www.w3.org/1999/xlink" width="1544px" height="10px" preserveAspectRatio="xMinYMid meet" viewBox="1921 1626  1544 8" xmlns="http://www.w3.org/2000/svg">
  <path d="M 1926.5 1656  L 1926.5 1635  A 5 5 0 0 1 1931 1630.5 L 2387 1630.5  A 3 3 0 0 1 2390 1627.5 A 3 3 0 0 1 2393 1630.5 L 3455 1630.5  A 5 5 0 0 1 3460.5 1635 L 3460.5 1993  A 3 3 0 0 1 3463.5 1996 A 3 3 0 0 1 3460.5 1999 L 3460.5 2165  A 5 5 0 0 0 3465.5 2170.5 L 3473 2170.5  A 5 5 0 0 0 3478.5 2165.5 L 3478.5 2151  " stroke-width="1" stroke-dasharray="1,1" stroke="#ff0000" fill="none" />
  <path d="M 3473 2152  L 3484 2152  L 3484 2151  L 3473 2151  L 3473 2152  Z " fill-rule="nonzero" fill="#ff0000" stroke="none" />
</svg>