<?xml version="1.0" encoding="utf-8"?>
<svg version="1.1" xmlns:xlink="http://www.w3.org/1999/xlink" width="10px" height="41px" preserveAspectRatio="xMidYMin meet" viewBox="3155 945  8 41" xmlns="http://www.w3.org/2000/svg">
  <path d="M 3159.5 986  L 3159.5 955  A 5 5 0 0 1 3164.5 950.5 L 3465 950.5  A 5 5 0 0 1 3470.5 955 L 3470.5 1427  A 3 3 0 0 1 3473.5 1430 A 3 3 0 0 1 3470.5 1433 L 3470.5 1585  A 5 5 0 0 0 3475.5 1590.5 L 3481 1590.5  A 5 5 0 0 0 3486.5 1585.5 L 3486.5 1571  " stroke-width="1" stroke-dasharray="1,1" stroke="#ff0000" fill="none" />
  <path d="M 3481 1572  L 3492 1572  L 3492 1571  L 3481 1571  L 3481 1572  Z " fill-rule="nonzero" fill="#ff0000" stroke="none" />
</svg>