<?xml version="1.0" encoding="utf-8"?>
<svg version="1.1" xmlns:xlink="http://www.w3.org/1999/xlink" width="10px" height="531px" preserveAspectRatio="xMidYMin meet" viewBox="3499 31  8 531" xmlns="http://www.w3.org/2000/svg">
  <path d="M 1808.5 287  L 1808.5 93  A 3 3 0 0 0 1811.5 90 A 3 3 0 0 0 1808.5 87 L 1808.5 41  A 5 5 0 0 1 1813 36.5 L 2397 36.5  A 3 3 0 0 1 2400 33.5 A 3 3 0 0 1 2403 36.5 L 3498 36.5  A 5 5 0 0 1 3503.5 41 L 3503.5 437  A 3 3 0 0 1 3506.5 440 A 3 3 0 0 1 3503.5 443 L 3503.5 562  " stroke-width="1" stroke-dasharray="1,1" stroke="#ff0000" fill="none" />
  <path d="M 3509 561  L 3498 561  L 3498 562  L 3509 562  L 3509 561  Z " fill-rule="nonzero" fill="#ff0000" stroke="none" />
</svg>