<?xml version="1.0" encoding="utf-8"?>
<svg version="1.1" xmlns:xlink="http://www.w3.org/1999/xlink" width="10px" height="50px" preserveAspectRatio="xMidYMin meet" viewBox="3509 265  8 50" xmlns="http://www.w3.org/2000/svg">
  <path d="M 1289.5 160  L 1289.5 22  A 5 5 0 0 1 1294 17.5 L 2397 17.5  A 3 3 0 0 1 2400 14.5 A 3 3 0 0 1 2403 17.5 L 3495 17.5  A 5 5 0 0 1 3500.5 22 L 3500.5 33  A 3 3 0 0 1 3503.5 36 A 3 3 0 0 1 3500.5 39 L 3500.5 40  A 3 3 0 0 1 3503.5 43 A 3 3 0 0 1 3500.5 46 L 3500.5 305  A 5 5 0 0 0 3505.5 310.5 L 3508 310.5  A 5 5 0 0 0 3513.5 305.5 L 3513.5 265  " stroke-width="1" stroke-dasharray="1,1" stroke="#ff0000" fill="none" />
  <path d="M 3508 266  L 3519 266  L 3519 265  L 3508 265  L 3508 266  Z " fill-rule="nonzero" fill="#ff0000" stroke="none" />
</svg>