<?xml version="1.0" encoding="utf-8"?>
<svg version="1.1" xmlns:xlink="http://www.w3.org/1999/xlink" width="10px" height="207px" preserveAspectRatio="xMidYMin meet" viewBox="2232 1095  8 207" xmlns="http://www.w3.org/2000/svg">
  <path d="M 2886 1281  L 2881 1281  A 5 5 0 0 0 2876 1286 L 2876 1292  A 5 5 0 0 1 2871 1297 L 2241 1297  A 5 5 0 0 1 2236 1292 L 2236 1105  A 5 5 0 0 0 2231 1100 L 2216 1100  " stroke-width="2" stroke-dasharray="6,2" stroke="#0099cc" fill="none" />
  <path d="M 2221.10710678119 1104.29289321881  L 2216.81421356237 1100  L 2221.10710678119 1095.70710678119  L 2219.69289321881 1094.29289321881  L 2214.69289321881 1099.29289321881  L 2213.98578643763 1100  L 2214.69289321881 1100.70710678119  L 2219.69289321881 1105.70710678119  L 2221.10710678119 1104.29289321881  Z " fill-rule="nonzero" fill="#0099cc" stroke="none" />
</svg>