<?xml version="1.0" encoding="utf-8"?>
<svg version="1.1" xmlns:xlink="http://www.w3.org/1999/xlink" width="44px" height="44px" xmlns="http://www.w3.org/2000/svg">
  <g transform="matrix(1 0 0 1 -1529 -322 )">
    <path d="M 34.2890625 25.1223958333334  C 34.6519097222222 24.7595486111111  34.8333333333335 24.3298611111111  34.8333333333335 23.8333333333334  L 34.8333333333335 20.1666666666666  C 34.8333333333335 19.6701388888889  34.6519097222222 19.2404513888889  34.2890625 18.8776041666666  C 33.9262152777778 18.5147569444445  33.4965277777778 18.3333333333334  33 18.3333333333334  L 25.6666666666665 18.3333333333334  L 25.6666666666665 11  C 25.6666666666665 10.5034722222222  25.4852430555557 10.0737847222222  25.1223958333335 9.7109375  C 24.7595486111113 9.34809027777777  24.3298611111113 9.16666666666663  23.8333333333335 9.16666666666663  L 20.1666666666665 9.16666666666663  C 19.6701388888887 9.16666666666663  19.2404513888887 9.34809027777777  18.8776041666665 9.7109375  C 18.5147569444443 10.0737847222222  18.3333333333335 10.5034722222222  18.3333333333335 11  L 18.3333333333335 18.3333333333334  L 11 18.3333333333334  C 10.5034722222222 18.3333333333334  10.0737847222222 18.5147569444445  9.7109375 18.8776041666666  C 9.34809027777783 19.2404513888889  9.16666666666652 19.6701388888889  9.16666666666652 20.1666666666666  L 9.16666666666652 23.8333333333334  C 9.16666666666652 24.3298611111111  9.34809027777783 24.7595486111111  9.7109375 25.1223958333334  C 10.0737847222222 25.4852430555555  10.5034722222222 25.6666666666666  11 25.6666666666666  L 18.3333333333335 25.6666666666666  L 18.3333333333335 33  C 18.3333333333335 33.4965277777778  18.5147569444443 33.9262152777778  18.8776041666665 34.2890625  C 19.2404513888887 34.6519097222222  19.6701388888887 34.8333333333334  20.1666666666665 34.8333333333334  L 23.8333333333335 34.8333333333334  C 24.3298611111113 34.8333333333334  24.7595486111113 34.6519097222222  25.1223958333335 34.2890625  C 25.4852430555557 33.9262152777778  25.6666666666665 33.4965277777778  25.6666666666665 33  L 25.6666666666665 25.6666666666666  L 33 25.6666666666666  C 33.4965277777778 25.6666666666666  33.9262152777778 25.4852430555555  34.2890625 25.1223958333334  Z M 41.0494791666665 10.95703125  C 43.0164930555557 14.3276909722222  44 18.0086805555555  44 22  C 44 25.9913194444445  43.0164930555557 29.6723090277778  41.0494791666665 33.04296875  C 39.0824652777778 36.4136284722222  36.4136284722222 39.0824652777778  33.04296875 41.0494791666666  C 29.6723090277778 43.0164930555555  25.9913194444443 44  22 44  C 18.0086805555557 44  14.3276909722222 43.0164930555555  10.95703125 41.0494791666666  C 7.58637152777783 39.0824652777778  4.91753472222217 36.4136284722222  2.95052083333348 33.04296875  C 0.983506944444343 29.6723090277778  0 25.9913194444445  0 22  C 0 18.0086805555555  0.983506944444343 14.3276909722222  2.95052083333348 10.95703125  C 4.91753472222217 7.58637152777777  7.58637152777783 4.91753472222223  10.95703125 2.95052083333337  C 14.3276909722222 0.983506944444457  18.0086805555557 0  22 0  C 25.9913194444443 0  29.6723090277778 0.983506944444457  33.04296875 2.95052083333337  C 36.4136284722222 4.91753472222223  39.0824652777778 7.58637152777777  41.0494791666665 10.95703125  Z " fill-rule="nonzero" fill="#e4e4e4" stroke="none" transform="matrix(1 0 0 1 1529 322 )" />
  </g>
</svg>