<?xml version="1.0" encoding="utf-8"?>
<svg version="1.1" xmlns:xlink="http://www.w3.org/1999/xlink" width="358px" height="10px" preserveAspectRatio="xMinYMid meet" viewBox="2006 975  358 8" xmlns="http://www.w3.org/2000/svg">
  <path d="M 2001 1079  L 2006 1079  A 5 5 0 0 0 2011 1074 L 2011 984  A 5 5 0 0 1 2016 979 L 2354 979  A 5 5 0 0 1 2359 984 L 2359 1102  A 5 5 0 0 0 2364 1107 L 2400 1107  " stroke-width="2" stroke-dasharray="6,2" stroke="#0099cc" fill="none" />
  <path d="M 2394.89289321881 1102.70710678119  L 2399.18578643763 1107  L 2394.89289321881 1111.29289321881  L 2396.30710678119 1112.70710678119  L 2401.30710678119 1107.70710678119  L 2402.01421356237 1107  L 2401.30710678119 1106.29289321881  L 2396.30710678119 1101.29289321881  L 2394.89289321881 1102.70710678119  Z " fill-rule="nonzero" fill="#0099cc" stroke="none" />
</svg>