<?xml version="1.0" encoding="utf-8"?>
<svg version="1.1" xmlns:xlink="http://www.w3.org/1999/xlink" width="10px" height="23px" preserveAspectRatio="xMidYMin meet" viewBox="1561 202  8 23" xmlns="http://www.w3.org/2000/svg">
  <path d="M 266.5 105  L 266.5 58  A 3 3 0 0 0 269.5 55 A 3 3 0 0 0 266.5 52 L 266.5 45  A 5 5 0 0 1 271.5 40.5 L 1545 40.5  A 5 5 0 0 1 1550.5 45.5 L 1550.5 215  A 5 5 0 0 0 1555.5 220.5 L 1560 220.5  A 5 5 0 0 0 1565.5 215.5 L 1565.5 202  " stroke-width="1" stroke-dasharray="1,1" stroke="#ff0000" fill="none" />
  <path d="M 1560 203  L 1571 203  L 1571 202  L 1560 202  L 1560 203  Z " fill-rule="nonzero" fill="#ff0000" stroke="none" />
</svg>