<?xml version="1.0" encoding="utf-8"?>
<svg version="1.1" xmlns:xlink="http://www.w3.org/1999/xlink" width="10px" height="910px" preserveAspectRatio="xMidYMin meet" viewBox="1506 35  8 910" xmlns="http://www.w3.org/2000/svg">
  <path d="M 1397.5 76  L 1397.5 58  A 3 3 0 0 0 1400.5 55 A 3 3 0 0 0 1397.5 52 L 1397.5 45  A 5 5 0 0 1 1402.5 40.5 L 1505 40.5  A 5 5 0 0 1 1510.5 45 L 1510.5 52  A 3 3 0 0 1 1513.5 55 A 3 3 0 0 1 1510.5 58 L 1510.5 196  A 3 3 0 0 1 1513.5 199 A 3 3 0 0 1 1510.5 202 L 1510.5 417  A 3 3 0 0 1 1513.5 420 A 3 3 0 0 1 1510.5 423 L 1510.5 601  A 3 3 0 0 1 1513.5 604 A 3 3 0 0 1 1510.5 607 L 1510.5 677  A 3 3 0 0 1 1513.5 680 A 3 3 0 0 1 1510.5 683 L 1510.5 935  A 5 5 0 0 0 1515.5 940.5 L 1523 940.5  A 5 5 0 0 0 1528.5 935.5 L 1528.5 920  " stroke-width="1" stroke-dasharray="1,1" stroke="#ff0000" fill="none" />
  <path d="M 1523 921  L 1534 921  L 1534 920  L 1523 920  L 1523 921  Z " fill-rule="nonzero" fill="#ff0000" stroke="none" />
</svg>