<?xml version="1.0" encoding="utf-8"?>
<svg version="1.1" xmlns:xlink="http://www.w3.org/1999/xlink" width="10px" height="23px" preserveAspectRatio="xMidYMin meet" viewBox="1460 782  8 23" xmlns="http://www.w3.org/2000/svg">
  <path d="M 1048.5 66  L 1048.5 62  A 3 3 0 0 0 1051.5 59 A 3 3 0 0 0 1048.5 56 L 1048.5 45  A 5 5 0 0 1 1053.5 40.5 L 1445 40.5  A 5 5 0 0 1 1450.5 45 L 1450.5 56  A 3 3 0 0 1 1453.5 59 A 3 3 0 0 1 1450.5 62 L 1450.5 287  A 3 3 0 0 1 1453.5 290 A 3 3 0 0 1 1450.5 293 L 1450.5 795  A 5 5 0 0 0 1455.5 800.5 L 1459 800.5  A 5 5 0 0 0 1464.5 795.5 L 1464.5 782  " stroke-width="1" stroke-dasharray="1,1" stroke="#ff0000" fill="none" />
  <path d="M 1459 783  L 1470 783  L 1470 782  L 1459 782  L 1459 783  Z " fill-rule="nonzero" fill="#ff0000" stroke="none" />
</svg>