<?xml version="1.0" encoding="utf-8"?>
<svg version="1.1" xmlns:xlink="http://www.w3.org/1999/xlink" width="18px" height="18px" preserveAspectRatio="xMinYMid meet" viewBox="1455 623  18 16" xmlns="http://www.w3.org/2000/svg">
  <path d="M 1063.5 126  L 1063.5 95  A 5 5 0 0 1 1068.5 90.5 L 1445 90.5  A 5 5 0 0 1 1450.5 95 L 1450.5 287  A 3 3 0 0 1 1453.5 290 A 3 3 0 0 1 1450.5 293 L 1450.5 645  A 5 5 0 0 0 1455.5 650.5 L 1459 650.5  A 5 5 0 0 0 1464.5 645.5 L 1464.5 630  " stroke-width="1" stroke-dasharray="1,1" stroke="#ff0000" fill="none" />
  <path d="M 1459 631  L 1470 631  L 1470 630  L 1459 630  L 1459 631  Z " fill-rule="nonzero" fill="#ff0000" stroke="none" />
</svg>