<?xml version="1.0" encoding="utf-8"?>
<svg version="1.1" xmlns:xlink="http://www.w3.org/1999/xlink" width="25px" height="10px" preserveAspectRatio="xMinYMid meet" viewBox="1345 1736  25 8" xmlns="http://www.w3.org/2000/svg">
  <path d="M 1184.5 741  L 1184.5 725  A 5 5 0 0 1 1189.5 720.5 L 1345 720.5  A 5 5 0 0 1 1350.5 725 L 1350.5 787  A 3 3 0 0 1 1353.5 790 A 3 3 0 0 1 1350.5 793 L 1350.5 847  A 3 3 0 0 1 1353.5 850 A 3 3 0 0 1 1350.5 853 L 1350.5 1467  A 3 3 0 0 1 1353.5 1470 A 3 3 0 0 1 1350.5 1473 L 1350.5 1735  A 5 5 0 0 0 1355.5 1740.5 L 1360 1740.5  A 5 5 0 0 0 1365.5 1735.5 L 1365.5 1719  " stroke-width="1" stroke-dasharray="1,1" stroke="#ff0000" fill="none" />
  <path d="M 1360 1720  L 1371 1720  L 1371 1719  L 1360 1719  L 1360 1720  Z " fill-rule="nonzero" fill="#ff0000" stroke="none" />
</svg>