<?xml version="1.0" encoding="utf-8"?>
<svg version="1.1" xmlns:xlink="http://www.w3.org/1999/xlink" width="25px" height="10px" preserveAspectRatio="xMinYMid meet" viewBox="1345 1596  25 8" xmlns="http://www.w3.org/2000/svg">
  <path d="M 1138.5 1089  L 1138.5 1075  A 5 5 0 0 1 1143 1070.5 L 1327 1070.5  A 3 3 0 0 1 1330 1067.5 A 3 3 0 0 1 1333 1070.5 L 1345 1070.5  A 5 5 0 0 1 1350.5 1075 L 1350.5 1467  A 3 3 0 0 1 1353.5 1470 A 3 3 0 0 1 1350.5 1473 L 1350.5 1595  A 5 5 0 0 0 1355.5 1600.5 L 1360 1600.5  A 5 5 0 0 0 1365.5 1595.5 L 1365.5 1582  " stroke-width="1" stroke-dasharray="1,1" stroke="#ff0000" fill="none" />
  <path d="M 1360 1583  L 1371 1583  L 1371 1582  L 1360 1582  L 1360 1583  Z " fill-rule="nonzero" fill="#ff0000" stroke="none" />
</svg>