<?xml version="1.0" encoding="utf-8"?>
<svg version="1.1" xmlns:xlink="http://www.w3.org/1999/xlink" width="34px" height="34px" xmlns="http://www.w3.org/2000/svg">
  <g transform="matrix(1 0 0 1 -525 -3133 )">
    <path d="M 33.1986531986532 25.4141414141413  C 33.732884399551 25.9483726150393  34 26.5970819304152  34 27.3602693602693  C 34 28.1234567901233  33.732884399551 28.7721661054993  33.1986531986532 29.3063973063972  L 29.3063973063973 33.1986531986531  C 28.7721661054994 33.732884399551  28.1234567901234 34  27.3602693602693 34  C 26.5970819304152 34  25.9483726150393 33.732884399551  25.4141414141414 33.1986531986531  L 17 24.7845117845118  L 8.5858585858586 33.1986531986531  C 8.05162738496074 33.732884399551  7.40291806958476 34  6.63973063973066 34  C 5.87654320987656 34  5.22783389450058 33.732884399551  4.69360269360271 33.1986531986531  L 0.801346801346824 29.3063973063972  C 0.26711560044896 28.7721661054993  0 28.1234567901233  0 27.3602693602693  C 0 26.5970819304152  0.26711560044896 25.9483726150393  0.801346801346824 25.4141414141413  L 9.21548821548822 17  L 0.801346801346824 8.58585858585866  C 0.26711560044896 8.05162738496074  0 7.40291806958476  0 6.63973063973071  C 0 5.87654320987667  0.26711560044896 5.22783389450069  0.801346801346824 4.69360269360277  L 4.69360269360271 0.801346801346881  C 5.22783389450058 0.26711560044896  5.87654320987656 0  6.63973063973066 0  C 7.40291806958476 0  8.05162738496074 0.26711560044896  8.5858585858586 0.801346801346881  L 17 9.21548821548822  L 25.4141414141414 0.801346801346881  C 25.9483726150393 0.26711560044896  26.5970819304152 0  27.3602693602693 0  C 28.1234567901234 0  28.7721661054994 0.26711560044896  29.3063973063973 0.801346801346881  L 33.1986531986532 4.69360269360277  C 33.732884399551 5.22783389450069  34 5.87654320987667  34 6.63973063973071  C 34 7.40291806958476  33.732884399551 8.05162738496074  33.1986531986532 8.58585858585866  L 24.7845117845118 17  L 33.1986531986532 25.4141414141413  Z " fill-rule="nonzero" fill="#333333" stroke="none" transform="matrix(1 0 0 1 525 3133 )" />
  </g>
</svg>