<?xml version="1.0" encoding="utf-8"?>
<svg version="1.1" xmlns:xlink="http://www.w3.org/1999/xlink" width="129px" height="55px" xmlns="http://www.w3.org/2000/svg">
  <g transform="matrix(1 0 0 1 -560 -1139 )">
    <path d="M 560 1157.85714285714  C 560 1147.44263043176  568.442630431762 1139  578.857142857143 1139  C 578.857142857143 1139  670.142857142857 1139  670.142857142857 1139  C 680.557369568238 1139  689 1147.44263043176  689 1157.85714285714  C 689 1168.27165528252  680.557369568238 1176.71428571429  670.142857142857 1176.71428571429  C 670.142857142857 1176.71428571429  599.677272727273 1176.71428571429  599.677272727273 1176.71428571429  C 599.677272727273 1176.71428571429  598.329745596869 1193.90476190476  598.329745596869 1193.90476190476  C 598.329745596869 1193.90476190476  579.386904005086 1176.71428571429  579.386904005086 1176.71428571429  C 579.386904005086 1176.71428571429  578.857142857143 1176.71428571429  578.857142857143 1176.71428571429  C 568.442630431762 1176.71428571429  560 1168.27165528252  560 1157.85714285714  Z " fill-rule="nonzero" fill="#d7d7d7" stroke="none" />
  </g>
</svg>