<?xml version="1.0" encoding="utf-8"?>
<svg version="1.1" xmlns:xlink="http://www.w3.org/1999/xlink" width="60px" height="60px" xmlns="http://www.w3.org/2000/svg">
  <g transform="matrix(1 0 0 1 -445 -1057 )">
    <path d="M 475 1059  C 490.68 1059  503 1071.32  503 1087  C 503 1102.68  490.68 1115  475 1115  C 459.32 1115  447 1102.68  447 1087  C 447 1071.32  459.32 1059  475 1059  Z " fill-rule="nonzero" fill="#ffffff" stroke="none" fill-opacity="0" />
    <path d="M 475 1058.5  C 490.96 1058.5  503.5 1071.04  503.5 1087  C 503.5 1102.96  490.96 1115.5  475 1115.5  C 459.04 1115.5  446.5 1102.96  446.5 1087  C 446.5 1071.04  459.04 1058.5  475 1058.5  Z " stroke-width="3" stroke="#ec808d" fill="none" />
  </g>
</svg>