<?xml version="1.0" encoding="utf-8"?>
<svg version="1.1" xmlns:xlink="http://www.w3.org/1999/xlink" width="15px" height="9px" xmlns="http://www.w3.org/2000/svg">
  <g transform="matrix(1 0 0 1 -416 -155 )">
    <path d="M 14.7216796875001 0.296874999999986  C 14.9072265625 0.494791666666671  15 0.729166666666671  15 0.999999999999986  C 15 1.27083333333334  14.9072265625 1.50520833333334  14.7216796875001 1.70312499999999  L 8.1591796875 8.70312500000001  C 7.97363281249994 8.90104166666666  7.75390624999994 9  7.5 9  C 7.24609375000006 9  7.02636718750006 8.90104166666666  6.8408203125 8.70312500000001  L 0.278320312499938 1.70312499999999  C 0.092773437500032 1.50520833333334  0 1.27083333333334  0 0.999999999999986  C 0 0.729166666666671  0.092773437500032 0.494791666666671  0.278320312499938 0.296874999999986  C 0.463867187500002 0.0989583333333428  0.683593750000003 0  0.937499999999941 0  L 14.0625000000001 0  C 14.31640625 0  14.5361328125 0.0989583333333428  14.7216796875001 0.296874999999986  Z " fill-rule="nonzero" fill="#cccccc" stroke="none" transform="matrix(1 0 0 1 416 155 )" />
  </g>
</svg>