<?xml version="1.0" encoding="utf-8"?>
<svg version="1.1" xmlns:xlink="http://www.w3.org/1999/xlink" width="10px" height="65px" preserveAspectRatio="xMidYMin meet" viewBox="666 175  8 65" xmlns="http://www.w3.org/2000/svg">
  <path d="M 545 235.5  L 665 235.5  A 5 5 0 0 0 670.5 230.5 L 670.5 185  A 5 5 0 0 1 675.5 180.5 L 915 180.5  A 5 5 0 0 0 920.5 175.5 L 920.5 165  A 5 5 0 0 1 925.5 160.5 L 1395 160.5  A 5 5 0 0 1 1400.5 165.5 L 1400.5 317  A 5 5 0 0 0 1405.5 322.5 L 1419 322.5  " stroke-width="1" stroke-dasharray="1,1" stroke="#ff0000" fill="none" />
  <path d="M 1418 317  L 1418 328  L 1419 328  L 1419 317  L 1418 317  Z " fill-rule="nonzero" fill="#ff0000" stroke="none" />
</svg>