<?xml version="1.0" encoding="utf-8"?>
<svg version="1.1" xmlns:xlink="http://www.w3.org/1999/xlink" width="26px" height="10px" preserveAspectRatio="xMinYMid meet" viewBox="1375 766  26 8" xmlns="http://www.w3.org/2000/svg">
  <path d="M 605.5 304  L 605.5 285  A 5 5 0 0 1 610.5 280.5 L 1375 280.5  A 5 5 0 0 1 1380.5 285 L 1380.5 367  A 3 3 0 0 1 1383.5 370 A 3 3 0 0 1 1380.5 373 L 1380.5 765  A 5 5 0 0 0 1385.5 770.5 L 1391 770.5  A 5 5 0 0 0 1396.5 765.5 L 1396.5 748  " stroke-width="1" stroke-dasharray="1,1" stroke="#ff0000" fill="none" />
  <path d="M 1391 749  L 1402 749  L 1402 748  L 1391 748  L 1391 749  Z " fill-rule="nonzero" fill="#ff0000" stroke="none" />
</svg>