<?xml version="1.0" encoding="utf-8"?>
<svg version="1.1" xmlns:xlink="http://www.w3.org/1999/xlink" width="10px" height="28px" preserveAspectRatio="xMidYMin meet" viewBox="1425 187  8 28" xmlns="http://www.w3.org/2000/svg">
  <path d="M 613 176.5  L 915 176.5  A 5 5 0 0 0 920.5 171.5 L 920.5 165  A 5 5 0 0 1 925.5 160.5 L 1405 160.5  A 5 5 0 0 1 1410.5 165.5 L 1410.5 205  A 5 5 0 0 0 1415.5 210.5 L 1424 210.5  A 5 5 0 0 0 1429.5 205.5 L 1429.5 187  " stroke-width="1" stroke-dasharray="1,1" stroke="#ff0000" fill="none" />
  <path d="M 1424 188  L 1435 188  L 1435 187  L 1424 187  L 1424 188  Z " fill-rule="nonzero" fill="#ff0000" stroke="none" />
</svg>