<?xml version="1.0" encoding="utf-8"?>
<svg version="1.1" xmlns:xlink="http://www.w3.org/1999/xlink" width="10px" height="34px" preserveAspectRatio="xMidYMin meet" viewBox="886 341  8 34" xmlns="http://www.w3.org/2000/svg">
  <path d="M 794 346.5  L 885 346.5  A 5 5 0 0 1 890.5 351.5 L 890.5 365  A 5 5 0 0 0 895.5 370.5 L 1385 370.5  A 5 5 0 0 1 1390.5 375.5 L 1390.5 625  A 5 5 0 0 0 1395.5 630.5 L 1399 630.5  A 5 5 0 0 0 1404.5 625.5 L 1404.5 609  " stroke-width="1" stroke-dasharray="1,1" stroke="#ff0000" fill="none" />
  <path d="M 1399 610  L 1410 610  L 1410 609  L 1399 609  L 1399 610  Z " fill-rule="nonzero" fill="#ff0000" stroke="none" />
</svg>