<?xml version="1.0" encoding="utf-8"?>
<svg version="1.1" xmlns:xlink="http://www.w3.org/1999/xlink" width="100px" height="60px" xmlns="http://www.w3.org/2000/svg">
  <g transform="matrix(1 0 0 1 -1890 -89 )">
    <path d="M 1891 99  A 9 9 0 0 1 1900 90 L 1980 90  A 9 9 0 0 1 1989 99 L 1989 139  A 9 9 0 0 1 1980 148 L 1900 148  A 9 9 0 0 1 1891 139 L 1891 99  Z " fill-rule="nonzero" fill="#ffffff" stroke="none" />
    <path d="M 1890.5 99  A 9.5 9.5 0 0 1 1900 89.5 L 1980 89.5  A 9.5 9.5 0 0 1 1989.5 99 L 1989.5 139  A 9.5 9.5 0 0 1 1980 148.5 L 1900 148.5  A 9.5 9.5 0 0 1 1890.5 139 L 1890.5 99  Z " stroke-width="1" stroke-dasharray="3,1" stroke="#797979" fill="none" stroke-dashoffset="0.5" />
  </g>
</svg>