<?xml version="1.0" encoding="utf-8"?>
<svg version="1.1" xmlns:xlink="http://www.w3.org/1999/xlink" width="1250px" height="10px" preserveAspectRatio="xMinYMid meet" viewBox="35 6  1250 8" xmlns="http://www.w3.org/2000/svg">
  <path d="M 232 191.5  L 45 191.5  A 5 5 0 0 1 40.5 186.5 L 40.5 15  A 5 5 0 0 1 45.5 10.5 L 1275 10.5  A 5 5 0 0 1 1280.5 15.5 L 1280.5 955  A 5 5 0 0 0 1285.5 960.5 L 1293 960.5  A 5 5 0 0 0 1298.5 955.5 L 1298.5 935  " stroke-width="1" stroke-dasharray="1,1" stroke="#ff0000" fill="none" />
  <path d="M 1293 936  L 1304 936  L 1304 935  L 1293 935  L 1293 936  Z " fill-rule="nonzero" fill="#ff0000" stroke="none" />
</svg>