<?xml version="1.0" encoding="utf-8"?>
<svg version="1.1" xmlns:xlink="http://www.w3.org/1999/xlink" width="75px" height="10px" preserveAspectRatio="xMinYMid meet" viewBox="90 88  75 8" xmlns="http://www.w3.org/2000/svg">
  <path d="M 95 92.5  L 155 92.5  A 5 5 0 0 0 160.5 87.5 L 160.5 15  A 5 5 0 0 1 165.5 10.5 L 1295 10.5  A 5 5 0 0 1 1300.5 15.5 L 1300.5 575  A 5 5 0 0 0 1305.5 580.5 L 1315 580.5  A 5 5 0 0 0 1320.5 575.5 L 1320.5 558  " stroke-width="1" stroke-dasharray="1,1" stroke="#ff0000" fill="none" />
  <path d="M 1315 559  L 1326 559  L 1326 558  L 1315 558  L 1315 559  Z " fill-rule="nonzero" fill="#ff0000" stroke="none" />
</svg>