<?xml version="1.0" encoding="utf-8"?>
<svg version="1.1" xmlns:xlink="http://www.w3.org/1999/xlink" width="10px" height="7px" preserveAspectRatio="xMinYMid meet" viewBox="220 166  10 5" xmlns="http://www.w3.org/2000/svg">
  <path d="M 225.5 172.5  A 2 2 0 0 0 223.5 170.5 L 165 170.5  A 5 5 0 0 0 160.5 175 L 160.5 188  A 3 3 0 0 1 163.5 191 A 3 3 0 0 1 160.5 194 L 160.5 215  A 5 5 0 0 1 155.5 220.5 L 45 220.5  A 5 5 0 0 0 40.5 225.5 L 40.5 1495  A 5 5 0 0 0 45.5 1500.5 L 1265 1500.5  A 5 5 0 0 0 1270.5 1495.5 L 1270.5 1481  " stroke-width="1" stroke-dasharray="1,1" stroke="#ff0000" fill="none" />
  <path d="M 1265 1482  L 1276 1482  L 1276 1481  L 1265 1481  L 1265 1482  Z " fill-rule="nonzero" fill="#ff0000" stroke="none" />
</svg>