<?xml version="1.0" encoding="utf-8"?>
<svg version="1.1" xmlns:xlink="http://www.w3.org/1999/xlink" width="10px" height="98px" preserveAspectRatio="xMidYMin meet" viewBox="526 387  8 98" xmlns="http://www.w3.org/2000/svg">
  <path d="M 464 392.5  L 525 392.5  A 5 5 0 0 1 530.5 397.5 L 530.5 475  A 5 5 0 0 0 535.5 480.5 L 1225 480.5  A 5 5 0 0 1 1230.5 485 L 1230.5 1207  A 3 3 0 0 1 1233.5 1210 A 3 3 0 0 1 1230.5 1213 L 1230.5 1347  A 3 3 0 0 1 1233.5 1350 A 3 3 0 0 1 1230.5 1353 L 1230.5 1497  A 3 3 0 0 1 1233.5 1500 A 3 3 0 0 1 1230.5 1503 L 1230.5 2055  A 5 5 0 0 0 1235.5 2060.5 L 1243 2060.5  A 5 5 0 0 0 1248.5 2055.5 L 1248.5 2039  " stroke-width="1" stroke-dasharray="1,1" stroke="#ff0000" fill="none" />
  <path d="M 1243 2040  L 1254 2040  L 1254 2039  L 1243 2039  L 1243 2040  Z " fill-rule="nonzero" fill="#ff0000" stroke="none" />
</svg>