<?xml version="1.0" encoding="utf-8"?>
<svg version="1.1" xmlns:xlink="http://www.w3.org/1999/xlink" width="10px" height="1640px" preserveAspectRatio="xMidYMin meet" viewBox="1246 5  8 1640" xmlns="http://www.w3.org/2000/svg">
  <path d="M 728.5 181  L 728.5 15  A 5 5 0 0 1 733.5 10.5 L 1245 10.5  A 5 5 0 0 1 1250.5 15 L 1250.5 1207  A 3 3 0 0 1 1253.5 1210 A 3 3 0 0 1 1250.5 1213 L 1250.5 1347  A 3 3 0 0 1 1253.5 1350 A 3 3 0 0 1 1250.5 1353 L 1250.5 1497  A 3 3 0 0 1 1253.5 1500 A 3 3 0 0 1 1250.5 1503 L 1250.5 1635  A 5 5 0 0 0 1255.5 1640.5 L 1265 1640.5  A 5 5 0 0 0 1270.5 1635.5 L 1270.5 1617  " stroke-width="1" stroke-dasharray="1,1" stroke="#ff0000" fill="none" />
  <path d="M 1265 1618  L 1276 1618  L 1276 1617  L 1265 1617  L 1265 1618  Z " fill-rule="nonzero" fill="#ff0000" stroke="none" />
</svg>