<?xml version="1.0" encoding="utf-8"?>
<svg version="1.1" xmlns:xlink="http://www.w3.org/1999/xlink" width="284px" height="10px" preserveAspectRatio="xMinYMid meet" viewBox="35 231  284 8" xmlns="http://www.w3.org/2000/svg">
  <path d="M 314 235.5  L 45 235.5  A 5 5 0 0 1 40.5 230.5 L 40.5 15  A 5 5 0 0 1 45.5 10.5 L 1275 10.5  A 5 5 0 0 1 1280.5 15.5 L 1280.5 1085  A 5 5 0 0 0 1285.5 1090.5 L 1286 1090.5  A 5 5 0 0 0 1291.5 1085.5 L 1291.5 1064  " stroke-width="1" stroke-dasharray="1,1" stroke="#ff0000" fill="none" />
  <path d="M 1286 1065  L 1297 1065  L 1297 1064  L 1286 1064  L 1286 1065  Z " fill-rule="nonzero" fill="#ff0000" stroke="none" />
</svg>