<?xml version="1.0" encoding="utf-8"?>
<svg version="1.1" xmlns:xlink="http://www.w3.org/1999/xlink" width="10px" height="5px" preserveAspectRatio="xMinYMid meet" viewBox="1000 168  10 3" xmlns="http://www.w3.org/2000/svg">
  <path d="M 1005.5 172.5  A 5 5 0 0 1 1010.5 177.5 L 1010.5 205  A 5 5 0 0 0 1015.5 210.5 L 1245 210.5  A 5 5 0 0 1 1250.5 215 L 1250.5 1207  A 3 3 0 0 1 1253.5 1210 A 3 3 0 0 1 1250.5 1213 L 1250.5 1347  A 3 3 0 0 1 1253.5 1350 A 3 3 0 0 1 1250.5 1353 L 1250.5 1497  A 3 3 0 0 1 1253.5 1500 A 3 3 0 0 1 1250.5 1503 L 1250.5 1775  A 5 5 0 0 0 1255.5 1780.5 L 1257 1780.5  A 5 5 0 0 0 1262.5 1775.5 L 1262.5 1756  " stroke-width="1" stroke-dasharray="1,1" stroke="#ff0000" fill="none" />
  <path d="M 1257 1757  L 1268 1757  L 1268 1756  L 1257 1756  L 1257 1757  Z " fill-rule="nonzero" fill="#ff0000" stroke="none" />
</svg>