<?xml version="1.0" encoding="utf-8"?>
<svg version="1.1" xmlns:xlink="http://www.w3.org/1999/xlink" width="10px" height="202px" preserveAspectRatio="xMidYMin meet" viewBox="526 283  8 202" xmlns="http://www.w3.org/2000/svg">
  <path d="M 446 288.5  L 525 288.5  A 5 5 0 0 1 530.5 293.5 L 530.5 475  A 5 5 0 0 0 535.5 480.5 L 1235 480.5  A 5 5 0 0 1 1240.5 485 L 1240.5 1207  A 3 3 0 0 1 1243.5 1210 A 3 3 0 0 1 1240.5 1213 L 1240.5 1347  A 3 3 0 0 1 1243.5 1350 A 3 3 0 0 1 1240.5 1353 L 1240.5 1497  A 3 3 0 0 1 1243.5 1500 A 3 3 0 0 1 1240.5 1503 L 1240.5 1915  A 5 5 0 0 0 1245.5 1920.5 L 1250 1920.5  A 5 5 0 0 0 1255.5 1915.5 L 1255.5 1897  " stroke-width="1" stroke-dasharray="1,1" stroke="#ff0000" fill="none" />
  <path d="M 1250 1898  L 1261 1898  L 1261 1897  L 1250 1897  L 1250 1898  Z " fill-rule="nonzero" fill="#ff0000" stroke="none" />
</svg>