<?xml version="1.0" encoding="utf-8"?>
<svg version="1.1" xmlns:xlink="http://www.w3.org/1999/xlink" width="10px" height="5px" preserveAspectRatio="xMinYMid meet" viewBox="422 428  10 3" xmlns="http://www.w3.org/2000/svg">
  <path d="M 427 432.5  L 405 432.5  A 5 5 0 0 0 400.5 437.5 L 400.5 805  A 5 5 0 0 0 405.5 810.5 L 1225 810.5  A 5 5 0 0 1 1230.5 815 L 1230.5 1207  A 3 3 0 0 1 1233.5 1210 A 3 3 0 0 1 1230.5 1213 L 1230.5 1347  A 3 3 0 0 1 1233.5 1350 A 3 3 0 0 1 1230.5 1353 L 1230.5 1497  A 3 3 0 0 1 1233.5 1500 A 3 3 0 0 1 1230.5 1503 L 1230.5 2195  A 5 5 0 0 0 1235.5 2200.5 L 1243 2200.5  A 5 5 0 0 0 1248.5 2195.5 L 1248.5 2176  " stroke-width="1" stroke-dasharray="1,1" stroke="#ff0000" fill="none" />
  <path d="M 1243 2177  L 1254 2177  L 1254 2176  L 1243 2176  L 1243 2177  Z " fill-rule="nonzero" fill="#ff0000" stroke="none" />
</svg>