<?xml version="1.0" encoding="utf-8"?>
<svg version="1.1" xmlns:xlink="http://www.w3.org/1999/xlink" width="29px" height="25px" xmlns="http://www.w3.org/2000/svg">
  <g transform="matrix(1 0 0 1 -480 -2394 )">
    <path d="M 24.204449789537 13.7251420454545  C 24.4369613148928 13.8198390151515  24.5532170775707 13.9914772727273  24.5532170775707 14.2400568181818  L 24.5532170775707 19.8863636363636  C 24.5532170775707 21.2949810606061  24.0620364802566 22.4994081439394  23.0796752856284 23.4996448863636  C 22.0973140910002 24.4998816287879  20.9144117057527 25  19.5309681298858 25  L 5.02224894768491 25  C 3.638805371818 25  2.45590298657046 24.4998816287879  1.47354179194227 23.4996448863636  C 0.491180597314091 22.4994081439394  0 21.2949810606061  0 19.8863636363636  L 0 5.11363636363637  C 0 3.70501893939394  0.491180597314091 2.50059185606061  1.47354179194227 1.50035511363636  C 2.45590298657046 0.500118371212119  3.638805371818 0  5.02224894768491 0  L 19.5309681298858 0  C 20.2633794347565 0  20.9434756464221 0.147964015151514  21.5712567648827 0.443892045454544  C 21.7456404088996 0.526751893939392  21.8502705953097 0.662878787878787  21.885147324113 0.852272727272727  C 21.9200240529164 1.05350378787879  21.8677089597114 1.22514204545454  21.7282020444979 1.3671875  L 20.8737221888154 2.23721590909091  C 20.7574664261375 2.35558712121212  20.6237722990579 2.41477272727273  20.4726398075767 2.41477272727273  C 20.4377630787733 2.41477272727273  20.3854479855682 2.40293560606061  20.3156945279615 2.37926136363636  C 20.0483062738024 2.30823863636364  19.7867308077771 2.27272727272727  19.5309681298858 2.27272727272727  L 5.02224894768491 2.27272727272727  C 4.25496091401082 2.27272727272727  3.59811585488074 2.55089962121212  3.05171377029465 3.10724431818182  C 2.50531168570856 3.66358901515151  2.23211064341551 4.33238636363637  2.23211064341551 5.11363636363637  L 2.23211064341551 19.8863636363636  C 2.23211064341551 20.6676136363636  2.50531168570856 21.3364109848485  3.05171377029465 21.8927556818182  C 3.59811585488074 22.4491003787879  4.25496091401082 22.7272727272727  5.02224894768491 22.7272727272727  L 19.5309681298858 22.7272727272727  C 20.2982561635598 22.7272727272727  20.9551012226899 22.4491003787879  21.501503307276 21.8927556818182  C 22.0479053918621 21.3364109848485  22.3211064341551 20.6676136363636  22.3211064341551 19.8863636363636  L 22.3211064341551 15.3764204545455  C 22.3211064341551 15.2225378787879  22.3734215273602 15.0923295454545  22.4780517137703 14.9857954545455  L 23.5941070354781 13.8494318181818  C 23.7103627981559 13.7310606060606  23.8440569252355 13.671875  23.9951894167168 13.671875  C 24.0649428743235 13.671875  24.1346963319302 13.6896306818182  24.204449789537 13.7251420454545  Z M 29 4.54545454545454  C 29 4.93607954545454  28.8604930847865 5.2734375  28.5814792543596 5.55752840909091  L 14.3866506313891 20.0106534090909  C 14.1076368009621 20.2947443181818  13.7763078773301 20.4367897727273  13.3926638604931 20.4367897727273  C 13.009019843656 20.4367897727273  12.6776909200241 20.2947443181818  12.3986770895971 20.0106534090909  L 4.90018039687312 12.3757102272727  C 4.62116656644618 12.0916193181818  4.48165965123271 11.7542613636364  4.48165965123271 11.3636363636364  C 4.48165965123271 10.9730113636364  4.62116656644618 10.6356534090909  4.90018039687312 10.3515625  L 6.81840048105833 8.3984375  C 7.09741431148527 8.11434659090909  7.42874323511726 7.97230113636363  7.8123872519543 7.97230113636363  C 8.19603126879134 7.97230113636363  8.52736019242333 8.11434659090909  8.80637402285027 8.3984375  L 13.3926638604931 13.0681818181818  L 24.6752856283824 1.58025568181818  C 24.9542994588094 1.29616477272727  25.2856283824414 1.15411931818182  25.6692723992784 1.15411931818182  C 26.0529164161155 1.15411931818182  26.3842453397474 1.29616477272727  26.6632591701744 1.58025568181818  L 28.5814792543596 3.53338068181818  C 28.8604930847865 3.81747159090909  29 4.15482954545454  29 4.54545454545454  Z " fill-rule="nonzero" fill="#d7d7d7" stroke="none" transform="matrix(1 0 0 1 480 2394 )" />
  </g>
</svg>