<?xml version="1.0" encoding="utf-8"?>
<svg version="1.1" xmlns:xlink="http://www.w3.org/1999/xlink" width="27px" height="25px" xmlns="http://www.w3.org/2000/svg">
  <g transform="matrix(1 0 0 1 -193 -215 )">
    <path d="M 3.61027644230768 10.44921875  C 4.63251201923077 11.3606770833333  5.90625 11.9737413194445  7.43149038461539 12.2884114583333  C 6.9545026998567 11.2409722857214  6.61962789285653 10.1029936483213  6.42686596361486 8.874475546133  C 6.42686043452113 8.87444030761657  6.23076923076923 7.16645637238244  6.23076923076923 6.25  L 2.07692307692307 6.25  L 2.07692307692307 7.8125  C 2.07692307692307 8.65885416666666  2.58804086538461 9.53776041666666  3.61027644230768 10.44921875  Z M 23.3897235576923 10.44921875  C 24.4119591346154 9.53776041666666  24.9230769230769 8.65885416666666  24.9230769230769 7.8125  L 24.9230769230769 6.25  L 20.7692307692308 6.25  C 20.7692307692308 8.19461340610582  20.4749378465777 9.95173413647228  19.8863520012715 11.5213621910995  C 19.788532973191 11.7822238682465  19.6825855112287 12.0379069573245  19.5685096153846 12.2884114583333  C 21.09375 11.9737413194445  22.3674879807692 11.3606770833333  23.3897235576923 10.44921875  Z M 26.5456730769231 4.62239583333334  C 26.8485576923077 4.92621527777777  27 5.29513888888889  27 5.72916666666666  L 27 7.8125  C 27 8.58289930555554  26.7755408653846 9.35872395833334  26.3266225961538 10.1399739583333  C 25.8777043269231 10.9212239583333  25.2719350961538 11.6265190972222  24.5093149038462 12.255859375  C 23.7466947115385 12.8851996527778  22.8109975961538 13.4141710069445  21.7022235576923 13.8427734375  C 20.5934495192308 14.2713758680555  19.4278846153846 14.5128038194445  18.2055288461538 14.5670572916667  C 17.7512019230769 15.1529947916667  17.2373798076923 15.6684027777778  16.6640625 16.11328125  C 16.2530048076923 16.4822048611111  15.9690504807692 16.8755425347222  15.8121995192308 17.2932942708333  C 15.6553485576923 17.7110460069445  15.5769230769231 18.1966145833333  15.5769230769231 18.75  C 15.5769230769231 19.3359375  15.7418870192308 19.8296440972222  16.0718149038462 20.2311197916667  C 16.4017427884615 20.6325954861111  16.9290865384615 20.8333333333333  17.6538461538462 20.8333333333333  C 18.4651442307692 20.8333333333333  19.1871995192308 21.0801866319445  19.8200120192308 21.5738932291667  C 20.4528245192308 22.0675998263889  20.7692307692308 22.6888020833333  20.7692307692308 23.4375  L 20.7692307692308 24.4791666666667  C 20.7692307692308 24.6310763888889  20.7205528846154 24.755859375  20.6231971153846 24.853515625  C 20.5258413461538 24.951171875  20.4014423076923 25  20.25 25  L 6.75 25  C 6.59855769230768 25  6.47415865384616 24.951171875  6.37680288461539 24.853515625  C 6.27944711538461 24.755859375  6.23076923076923 24.6310763888889  6.23076923076923 24.4791666666667  L 6.23076923076923 23.4375  C 6.23076923076923 22.6888020833333  6.54717548076923 22.0675998263889  7.17998798076923 21.5738932291667  C 7.81280048076923 21.0801866319445  8.53485576923077 20.8333333333333  9.34615384615384 20.8333333333333  C 10.0709134615385 20.8333333333333  10.5982572115385 20.6325954861111  10.9281850961538 20.2311197916667  C 11.2581129807692 19.8296440972222  11.4230769230769 19.3359375  11.4230769230769 18.75  C 11.4230769230769 18.1966145833333  11.3446514423077 17.7110460069445  11.1878004807692 17.2932942708333  C 11.0309495192308 16.8755425347222  10.7469951923077 16.4822048611111  10.3359375 16.11328125  C 9.76262019230768 15.6684027777778  9.24879807692307 15.1529947916667  8.79447115384616 14.5670572916667  C 7.57211538461539 14.5128038194445  6.40655048076923 14.2713758680555  5.29777644230768 13.8427734375  C 4.18900240384616 13.4141710069445  3.25330528846155 12.8851996527778  2.49068509615384 12.255859375  C 1.72806490384616 11.6265190972222  1.12229567307693 10.9212239583333  0.67337740384616 10.1399739583333  C 0.224459134615387 9.35872395833334  0 8.58289930555554  0 7.8125  L 0 5.72916666666666  C 0 5.29513888888889  0.151442307692321 4.92621527777777  0.454326923076934 4.62239583333334  C 0.757211538461547 4.31857638888889  1.125 4.16666666666666  1.55769230769232 4.16666666666666  L 6.23076923076923 4.16666666666666  L 6.23076923076923 2.60416666666666  C 6.23076923076923 1.88802083333334  6.48497596153845 1.27495659722223  6.99338942307693 0.764973958333343  C 7.50180288461539 0.254991319444429  8.11298076923077 0  8.82692307692307 0  L 18.1730769230769 0  C 18.8870192307692 0  19.4981971153846 0.254991319444429  20.0066105769231 0.764973958333343  C 20.5150240384615 1.27495659722223  20.7692307692308 1.88802083333334  20.7692307692308 2.60416666666666  L 20.7692307692308 4.16666666666666  L 25.4423076923077 4.16666666666666  C 25.875 4.16666666666666  26.2427884615385 4.31857638888889  26.5456730769231 4.62239583333334  Z " fill-rule="nonzero" fill="#aaaaaa" stroke="none" transform="matrix(1 0 0 1 193 215 )" />
  </g>
</svg>