<?xml version="1.0" encoding="utf-8"?>
<svg version="1.1" xmlns:xlink="http://www.w3.org/1999/xlink" width="42px" height="42px" xmlns="http://www.w3.org/2000/svg">
  <g transform="matrix(1 0 0 1 -711 -140 )">
    <path d="M 732 140  C 743.76 140  753 149.24  753 161  C 753 172.76  743.76 182  732 182  C 720.24 182  711 172.76  711 161  C 711 149.24  720.24 140  732 140  Z " fill-rule="nonzero" fill="#f2f2f2" stroke="none" />
    <path d="M 732 140.5  C 743.48 140.5  752.5 149.52  752.5 161  C 752.5 172.48  743.48 181.5  732 181.5  C 720.52 181.5  711.5 172.48  711.5 161  C 711.5 149.52  720.52 140.5  732 140.5  Z " stroke-width="1" stroke="#797979" fill="none" />
  </g>
</svg>