<?xml version="1.0" encoding="utf-8"?>
<svg version="1.1" xmlns:xlink="http://www.w3.org/1999/xlink" width="75px" height="75px" xmlns="http://www.w3.org/2000/svg">
  <g transform="matrix(1 0 0 1 -625 -191 )">
    <path d="M 662.5 191  C 683.5 191  700 207.5  700 228.5  C 700 249.5  683.5 266  662.5 266  C 641.5 266  625 249.5  625 228.5  C 625 207.5  641.5 191  662.5 191  Z " fill-rule="nonzero" fill="#ffffff" stroke="none" />
    <path d="M 662.5 191.5  C 683.22 191.5  699.5 207.78  699.5 228.5  C 699.5 249.22  683.22 265.5  662.5 265.5  C 641.78 265.5  625.5 249.22  625.5 228.5  C 625.5 207.78  641.78 191.5  662.5 191.5  Z " stroke-width="1" stroke="#797979" fill="none" />
  </g>
</svg>