<?xml version="1.0" encoding="utf-8"?>
<svg version="1.1" xmlns:xlink="http://www.w3.org/1999/xlink" width="40px" height="40px" xmlns="http://www.w3.org/2000/svg">
  <g transform="matrix(1 0 0 1 -226 -147 )">
    <path d="M 246 147  C 257.2 147  266 155.8  266 167  C 266 178.2  257.2 187  246 187  C 234.8 187  226 178.2  226 167  C 226 155.8  234.8 147  246 147  Z " fill-rule="nonzero" fill="#ffffff" stroke="none" />
    <path d="M 246 147.5  C 256.92 147.5  265.5 156.08  265.5 167  C 265.5 177.92  256.92 186.5  246 186.5  C 235.08 186.5  226.5 177.92  226.5 167  C 226.5 156.08  235.08 147.5  246 147.5  Z " stroke-width="1" stroke="#797979" fill="none" />
  </g>
</svg>