<?xml version="1.0" encoding="utf-8"?>
<svg version="1.1" xmlns:xlink="http://www.w3.org/1999/xlink" width="10px" height="1010px" preserveAspectRatio="xMidYMin meet" viewBox="2556 755  8 1010" xmlns="http://www.w3.org/2000/svg">
  <path d="M 2253.5 786  L 2253.5 765  A 5 5 0 0 1 2258 760.5 L 2517 760.5  A 3 3 0 0 1 2520 757.5 A 3 3 0 0 1 2523 760.5 L 2555 760.5  A 5 5 0 0 1 2560.5 765 L 2560.5 1047  A 3 3 0 0 1 2563.5 1050 A 3 3 0 0 1 2560.5 1053 L 2560.5 1337  A 3 3 0 0 1 2563.5 1340 A 3 3 0 0 1 2560.5 1343 L 2560.5 1755  A 5 5 0 0 0 2565.5 1760.5 L 2571 1760.5  A 5 5 0 0 0 2576.5 1755.5 L 2576.5 1734  " stroke-width="1" stroke-dasharray="1,1" stroke="#ff0000" fill="none" />
  <path d="M 2571 1735  L 2582 1735  L 2582 1734  L 2571 1734  L 2571 1735  Z " fill-rule="nonzero" fill="#ff0000" stroke="none" />
</svg>