<?xml version="1.0" encoding="utf-8"?>
<svg version="1.1" xmlns:xlink="http://www.w3.org/1999/xlink" width="10px" height="26px" preserveAspectRatio="xMidYMin meet" viewBox="2565 2149  8 26" xmlns="http://www.w3.org/2000/svg">
  <path d="M 712.5 1080  L 712.5 1065  A 5 5 0 0 1 717 1060.5 L 794 1060.5  A 3 3 0 0 1 797 1057.5 A 3 3 0 0 1 800 1060.5 L 825 1060.5  A 5 5 0 0 1 830.5 1065.5 L 830.5 2165  A 5 5 0 0 0 835.5 2170.5 L 2564 2170.5  A 5 5 0 0 0 2569.5 2165.5 L 2569.5 2149  " stroke-width="1" stroke-dasharray="1,1" stroke="#ff0000" fill="none" />
  <path d="M 2564 2150  L 2575 2150  L 2575 2149  L 2564 2149  L 2564 2150  Z " fill-rule="nonzero" fill="#ff0000" stroke="none" />
</svg>