<?xml version="1.0" encoding="utf-8"?>
<svg version="1.1" xmlns:xlink="http://www.w3.org/1999/xlink" width="1210px" height="10px" preserveAspectRatio="xMinYMid meet" viewBox="1371 622  1210 8" xmlns="http://www.w3.org/2000/svg">
  <path d="M 1376.5 872  L 1376.5 631  A 5 5 0 0 1 1381 626.5 L 2517 626.5  A 3 3 0 0 1 2520 623.5 A 3 3 0 0 1 2523 626.5 L 2557 626.5  A 3 3 0 0 1 2560 623.5 A 3 3 0 0 1 2563 626.5 L 2571 626.5  A 5 5 0 0 1 2576.5 631.5 L 2576.5 1182  " stroke-width="1" stroke-dasharray="1,1" stroke="#ff0000" fill="none" />
  <path d="M 2582 1181  L 2571 1181  L 2571 1182  L 2582 1182  L 2582 1181  Z " fill-rule="nonzero" fill="#ff0000" stroke="none" />
</svg>