<?xml version="1.0" encoding="utf-8"?>
<svg version="1.1" xmlns:xlink="http://www.w3.org/1999/xlink" width="10px" height="811px" preserveAspectRatio="xMidYMin meet" viewBox="2556 665  8 811" xmlns="http://www.w3.org/2000/svg">
  <path d="M 1759.5 688  L 1759.5 675  A 5 5 0 0 1 1764 670.5 L 2517 670.5  A 3 3 0 0 1 2520 667.5 A 3 3 0 0 1 2523 670.5 L 2555 670.5  A 5 5 0 0 1 2560.5 675 L 2560.5 1047  A 3 3 0 0 1 2563.5 1050 A 3 3 0 0 1 2560.5 1053 L 2560.5 1337  A 3 3 0 0 1 2563.5 1340 A 3 3 0 0 1 2560.5 1343 L 2560.5 1466  A 5 5 0 0 0 2565.5 1471.5 L 2571.5 1471.5  A 4.5 4.5 0 0 0 2576.5 1467 L 2576.5 1462  " stroke-width="1" stroke-dasharray="1,1" stroke="#ff0000" fill="none" />
  <path d="M 2571 1463  L 2582 1463  L 2582 1462  L 2571 1462  L 2571 1463  Z " fill-rule="nonzero" fill="#ff0000" stroke="none" />
</svg>