<?xml version="1.0" encoding="utf-8"?>
<svg version="1.1" xmlns:xlink="http://www.w3.org/1999/xlink" width="10px" height="26px" preserveAspectRatio="xMidYMin meet" viewBox="2572 1599  8 26" xmlns="http://www.w3.org/2000/svg">
  <path d="M 2156.5 702  L 2156.5 685  A 5 5 0 0 1 2161 680.5 L 2517 680.5  A 3 3 0 0 1 2520 677.5 A 3 3 0 0 1 2523 680.5 L 2555 680.5  A 5 5 0 0 1 2560.5 685 L 2560.5 1047  A 3 3 0 0 1 2563.5 1050 A 3 3 0 0 1 2560.5 1053 L 2560.5 1337  A 3 3 0 0 1 2563.5 1340 A 3 3 0 0 1 2560.5 1343 L 2560.5 1615  A 5 5 0 0 0 2565.5 1620.5 L 2571 1620.5  A 5 5 0 0 0 2576.5 1615.5 L 2576.5 1599  " stroke-width="1" stroke-dasharray="1,1" stroke="#ff0000" fill="none" />
  <path d="M 2571 1600  L 2582 1600  L 2582 1599  L 2571 1599  L 2571 1600  Z " fill-rule="nonzero" fill="#ff0000" stroke="none" />
</svg>