<?xml version="1.0" encoding="utf-8"?>
<svg version="1.1" xmlns:xlink="http://www.w3.org/1999/xlink" width="203px" height="191px" xmlns="http://www.w3.org/2000/svg">
  <g transform="matrix(1 0 0 1 -301 -185 )">
    <path d="M 37 139  L 56 139  L 56 156  L 37 156  L 37 139  Z M 37 35  L 56 35  L 56 52  L 37 52  L 37 35  Z M 147 35  L 166 35  L 166 52  L 147 52  L 147 35  Z M 19 121  L 19 173  L 74 173  L 74 121  L 19 121  Z M 19 18  L 19 70  L 74 70  L 74 18  L 19 18  Z M 129 18  L 129 70  L 184 70  L 184 18  L 129 18  Z M 0 104  L 93 104  L 93 191  L 0 191  L 0 104  Z M 147 173  L 166 173  L 166 191  L 147 191  L 147 173  Z M 184 173  L 203 173  L 203 191  L 184 191  L 184 173  Z M 184 104  L 203 104  L 203 156  L 147 156  L 147 139  L 129 139  L 129 191  L 110 191  L 110 104  L 166 104  L 166 121  L 184 121  L 184 104  Z M 0 0  L 93 0  L 93 87  L 0 87  L 0 0  Z M 110 0  L 203 0  L 203 87  L 110 87  L 110 0  Z " fill-rule="nonzero" fill="#d7d7d7" stroke="none" transform="matrix(1 0 0 1 301 185 )" />
  </g>
</svg>