<?xml version="1.0" encoding="utf-8"?>
<svg version="1.1" xmlns:xlink="http://www.w3.org/1999/xlink" width="24px" height="63px" xmlns="http://www.w3.org/2000/svg">
  <g transform="matrix(1 0 0 1 -1396 -875 )">
    <path d="M 23.5876288659788 30.0480961923847  C 23.8625429553263 30.4689378757516  24 30.9529058116232  24 31.5  C 24 32.0470941883768  23.8625429553263 32.5310621242484  23.5876288659788 32.9519038076153  L 4.37113402061868 62.3687374749497  C 4.09621993127121 62.7895791583167  3.78006872852256 63  3.42268041237094 63  C 3.06529209621931 63  2.74914089347067 62.7895791583167  2.47422680412319 62.3687374749497  L 0.412371134020304 59.2124248496996  C 0.137457044673738 58.7915831663327  0 58.3076152304607  0 57.7605210420843  C 0 57.2134268537072  0.137457044673738 56.7294589178357  0.412371134020304 56.308617234469  L 16.6185567010316 31.5  L 0.412371134020304 6.69138276553099  C 0.137457044673738 6.2705410821643  0 5.78657314629277  0 5.23947895791571  C 0 4.69238476953933  0.137457044673738 4.20841683366734  0.412371134020304 3.78757515030043  L 2.47422680412319 0.631262525050261  C 2.74914089347067 0.210420841683344  3.06529209621931 0  3.42268041237094 0  C 3.78006872852256 0  4.09621993127121 0.210420841683344  4.37113402061868 0.631262525050261  L 23.5876288659788 30.0480961923847  Z " fill-rule="nonzero" fill="#d7d7d7" stroke="none" transform="matrix(1 0 0 1 1396 875 )" />
  </g>
</svg>