<?xml version="1.0" encoding="utf-8"?>
<svg version="1.1" xmlns:xlink="http://www.w3.org/1999/xlink" width="20px" height="20px" preserveAspectRatio="xMinYMid meet" viewBox="1660 901  20 18" xmlns="http://www.w3.org/2000/svg">
  <path d="M 1420 907  L 1425 907  A 5 5 0 0 0 1430 902 L 1430 842  A 5 5 0 0 1 1435 837 L 1655 837  A 5 5 0 0 1 1660 842 L 1660 905  A 5 5 0 0 0 1665 910 L 1670 910  " stroke-width="2" stroke-dasharray="6,2" stroke="#0099cc" fill="none" />
  <path d="M 1664.89289321881 905.707106781187  L 1669.18578643763 910  L 1664.89289321881 914.292893218813  L 1666.30710678119 915.707106781187  L 1671.30710678119 910.707106781187  L 1672.01421356237 910  L 1671.30710678119 909.292893218813  L 1666.30710678119 904.292893218813  L 1664.89289321881 905.707106781187  Z " fill-rule="nonzero" fill="#0099cc" stroke="none" />
</svg>