<?xml version="1.0" encoding="utf-8"?>
<svg version="1.1" xmlns:xlink="http://www.w3.org/1999/xlink" width="39px" height="39px" xmlns="http://www.w3.org/2000/svg">
  <g transform="matrix(1 0 0 1 -1712 -683 )">
    <path d="M 21.9375 32.65234375  C 22.3776041666667 32.65234375  22.7584635416667 32.4915364583334  23.080078125 32.169921875  L 25.669921875 29.580078125  C 25.9915364583333 29.2584635416666  26.15234375 28.8776041666666  26.15234375 28.4375  C 26.15234375 27.9973958333334  25.9915364583333 27.6165364583334  25.669921875 27.294921875  L 17.875 19.5  L 25.669921875 11.705078125  C 25.9915364583333 11.3834635416666  26.15234375 11.0026041666666  26.15234375 10.5625  C 26.15234375 10.1223958333334  25.9915364583333 9.74153645833337  25.669921875 9.419921875  L 23.080078125 6.830078125  C 22.7584635416667 6.50846354166663  22.3776041666667 6.34765625  21.9375 6.34765625  C 21.4973958333333 6.34765625  21.1165364583333 6.50846354166663  20.794921875 6.830078125  L 9.267578125 18.357421875  C 8.94596354166669 18.6790364583334  8.78515625 19.0598958333334  8.78515625 19.5  C 8.78515625 19.9401041666666  8.94596354166669 20.3209635416666  9.267578125 20.642578125  L 20.794921875 32.169921875  C 21.1165364583333 32.4915364583334  21.4973958333333 32.65234375  21.9375 32.65234375  Z M 36.384765625 9.7119140625  C 38.1282552083333 12.6995442708334  39 15.9622395833334  39 19.5  C 39 23.0377604166666  38.1282552083333 26.3004557291666  36.384765625 29.2880859375  C 34.6412760416667 32.2757161458334  32.2757161458333 34.6412760416666  29.2880859375 36.384765625  C 26.3004557291667 38.1282552083334  23.0377604166667 39  19.5 39  C 15.9622395833333 39  12.6995442708333 38.1282552083334  9.7119140625 36.384765625  C 6.72428385416669 34.6412760416666  4.35872395833331 32.2757161458334  2.615234375 29.2880859375  C 0.871744791666686 26.3004557291666  0 23.0377604166666  0 19.5  C 0 15.9622395833334  0.871744791666686 12.6995442708334  2.615234375 9.7119140625  C 4.35872395833331 6.72428385416663  6.72428385416669 4.35872395833337  9.7119140625 2.615234375  C 12.6995442708333 0.871744791666629  15.9622395833333 0  19.5 0  C 23.0377604166667 0  26.3004557291667 0.871744791666629  29.2880859375 2.615234375  C 32.2757161458333 4.35872395833337  34.6412760416667 6.72428385416663  36.384765625 9.7119140625  Z " fill-rule="nonzero" fill="#d7d7d7" stroke="none" transform="matrix(1 0 0 1 1712 683 )" />
  </g>
</svg>