<?xml version="1.0" encoding="utf-8"?>
<svg version="1.1" xmlns:xlink="http://www.w3.org/1999/xlink" width="18px" height="18px" preserveAspectRatio="xMinYMid meet" viewBox="1334 1998  18 16" xmlns="http://www.w3.org/2000/svg">
  <path d="M 1198 782.5  L 1325 782.5  A 5 5 0 0 1 1330.5 787 L 1330.5 907  A 3 3 0 0 1 1333.5 910 A 3 3 0 0 1 1330.5 913 L 1330.5 927  A 3 3 0 0 1 1333.5 930 A 3 3 0 0 1 1330.5 933 L 1330.5 1077  A 3 3 0 0 1 1333.5 1080 A 3 3 0 0 1 1330.5 1083 L 1330.5 1317  A 3 3 0 0 1 1333.5 1320 A 3 3 0 0 1 1330.5 1323 L 1330.5 2025  A 5 5 0 0 0 1335.5 2030.5 L 1338 2030.5  A 5 5 0 0 0 1343.5 2025.5 L 1343.5 2005  " stroke-width="1" stroke-dasharray="1,1" stroke="#ff0000" fill="none" />
  <path d="M 1338 2006  L 1349 2006  L 1349 2005  L 1338 2005  L 1338 2006  Z " fill-rule="nonzero" fill="#ff0000" stroke="none" />
</svg>