<?xml version="1.0" encoding="utf-8"?>
<svg version="1.1" xmlns:xlink="http://www.w3.org/1999/xlink" width="891px" height="10px" preserveAspectRatio="xMinYMid meet" viewBox="304 46  891 8" xmlns="http://www.w3.org/2000/svg">
  <path d="M 309.5 69  L 309.5 55  A 5 5 0 0 1 314.5 50.5 L 1185 50.5  A 5 5 0 0 1 1190.5 55 L 1190.5 257  A 3 3 0 0 1 1193.5 260 A 3 3 0 0 1 1190.5 263 L 1190.5 525  A 5 5 0 0 0 1195.5 530.5 L 1205 530.5  A 5 5 0 0 0 1210.5 525.5 L 1210.5 509  " stroke-width="1" stroke-dasharray="1,1" stroke="#ff0000" fill="none" />
  <path d="M 1205 510  L 1216 510  L 1216 509  L 1205 509  L 1205 510  Z " fill-rule="nonzero" fill="#ff0000" stroke="none" />
</svg>