<?xml version="1.0" encoding="utf-8"?>
<svg version="1.1" xmlns:xlink="http://www.w3.org/1999/xlink" width="10px" height="130px" preserveAspectRatio="xMidYMin meet" viewBox="1146 805  8 130" xmlns="http://www.w3.org/2000/svg">
  <path d="M 605.5 837  L 605.5 815  A 5 5 0 0 1 610.5 810.5 L 1145 810.5  A 5 5 0 0 1 1150.5 815.5 L 1150.5 925  A 5 5 0 0 0 1155.5 930.5 L 1365 930.5  A 5 5 0 0 1 1370.5 935.5 L 1370.5 1345  A 5 5 0 0 0 1375.5 1350.5 L 1379 1350.5  A 5 5 0 0 0 1384.5 1345.5 L 1384.5 1324  " stroke-width="1" stroke-dasharray="1,1" stroke="#ff0000" fill="none" />
  <path d="M 1379 1325  L 1390 1325  L 1390 1324  L 1379 1324  L 1379 1325  Z " fill-rule="nonzero" fill="#ff0000" stroke="none" />
</svg>