<?xml version="1.0" encoding="utf-8"?>
<svg version="1.1" xmlns:xlink="http://www.w3.org/1999/xlink" width="66px" height="10px" preserveAspectRatio="xMinYMid meet" viewBox="465 866  66 8" xmlns="http://www.w3.org/2000/svg">
  <path d="M 526.5 890  L 526.5 875  A 5 5 0 0 0 521.5 870.5 L 475 870.5  A 5 5 0 0 0 470.5 875.5 L 470.5 905  A 5 5 0 0 0 475 910.5 L 1147 910.5  A 3 3 0 0 1 1150 907.5 A 3 3 0 0 1 1153 910.5 L 1355 910.5  A 5 5 0 0 1 1360.5 915 L 1360.5 927  A 3 3 0 0 1 1363.5 930 A 3 3 0 0 1 1360.5 933 L 1360.5 1475  A 5 5 0 0 0 1365.5 1480.5 L 1371 1480.5  A 5 5 0 0 0 1376.5 1475.5 L 1376.5 1459  " stroke-width="1" stroke-dasharray="1,1" stroke="#ff0000" fill="none" />
  <path d="M 1371 1460  L 1382 1460  L 1382 1459  L 1371 1459  L 1371 1460  Z " fill-rule="nonzero" fill="#ff0000" stroke="none" />
</svg>