<?xml version="1.0" encoding="utf-8"?>
<svg version="1.1" xmlns:xlink="http://www.w3.org/1999/xlink" width="28px" height="28px" xmlns="http://www.w3.org/2000/svg">
  <g transform="matrix(1 0 0 1 -1166 -788 )">
    <path d="M 27.3400673400674 20.929292929293  C 27.7800224466891 21.3692480359147  28 21.9034792368126  28 22.5319865319865  C 28 23.1604938271605  27.7800224466891 23.6947250280583  27.3400673400674 24.1346801346801  L 24.1346801346801 27.3400673400673  C 23.6947250280584 27.7800224466891  23.1604938271605 28  22.5319865319866 28  C 21.9034792368125 28  21.3692480359148 27.7800224466891  20.9292929292928 27.3400673400673  L 14 20.4107744107744  L 7.07070707070716 27.3400673400673  C 6.63075196408522 27.7800224466891  6.09652076318753 28  5.4680134680134 28  C 4.83950617283949 28  4.30527497194157 27.7800224466891  3.86531986531986 27.3400673400673  L 0.659932659932565 24.1346801346801  C 0.219977553310855 23.6947250280583  0 23.1604938271605  0 22.5319865319865  C 0 21.9034792368126  0.219977553310855 21.3692480359147  0.659932659932565 20.929292929293  L 7.58922558922563 14  L 0.659932659932565 7.07070707070704  C 0.219977553310855 6.63075196408533  0 6.09652076318741  0 5.46801346801351  C 0 4.83950617283949  0.219977553310855 4.30527497194169  0.659932659932565 3.86531986531986  L 3.86531986531986 0.659932659932679  C 4.30527497194157 0.219977553310855  4.83950617283949 0  5.4680134680134 0  C 6.09652076318753 0  6.63075196408522 0.219977553310855  7.07070707070716 0.659932659932679  L 14 7.58922558922563  L 20.9292929292928 0.659932659932679  C 21.3692480359148 0.219977553310855  21.9034792368125 0  22.5319865319866 0  C 23.1604938271605 0  23.6947250280584 0.219977553310855  24.1346801346801 0.659932659932679  L 27.3400673400674 3.86531986531986  C 27.7800224466891 4.30527497194169  28 4.83950617283949  28 5.46801346801351  C 28 6.09652076318741  27.7800224466891 6.63075196408533  27.3400673400674 7.07070707070704  L 20.4107744107744 14  L 27.3400673400674 20.929292929293  Z " fill-rule="nonzero" fill="#d7d7d7" stroke="none" transform="matrix(1 0 0 1 1166 788 )" />
  </g>
</svg>