<?xml version="1.0" encoding="utf-8"?>
<svg version="1.1" xmlns:xlink="http://www.w3.org/1999/xlink" width="62px" height="62px" xmlns="http://www.w3.org/2000/svg">
  <g transform="matrix(1 0 0 1 -2343 -217 )">
    <path d="M 2374 217  C 2391.36 217  2405 230.64  2405 248  C 2405 265.36  2391.36 279  2374 279  C 2356.64 279  2343 265.36  2343 248  C 2343 230.64  2356.64 217  2374 217  Z " fill-rule="nonzero" fill="#ffffff" stroke="none" />
    <path d="M 2374 217.5  C 2391.08 217.5  2404.5 230.92  2404.5 248  C 2404.5 265.08  2391.08 278.5  2374 278.5  C 2356.92 278.5  2343.5 265.08  2343.5 248  C 2343.5 230.92  2356.92 217.5  2374 217.5  Z " stroke-width="1" stroke="#797979" fill="none" />
  </g>
</svg>