<?xml version="1.0" encoding="utf-8"?>
<svg version="1.1" xmlns:xlink="http://www.w3.org/1999/xlink" width="22px" height="19px" xmlns="http://www.w3.org/2000/svg">
  <g transform="matrix(1 0 0 1 -21 -20 )">
    <path d="M 21.7278645833333 15.48203125  C 21.9092881944445 15.6700520833333  22 15.8927083333333  22 16.15  L 22 18.05  C 22 18.3072916666667  21.9092881944445 18.5299479166667  21.7278645833333 18.71796875  C 21.5464409722222 18.9059895833333  21.3315972222222 19  21.0833333333333 19  L 0.916666666666671 19  C 0.668402777777771 19  0.453559027777771 18.9059895833333  0.272135416666671 18.71796875  C 0.0907118055555571 18.5299479166667  0 18.3072916666667  0 18.05  L 0 16.15  C 0 15.8927083333333  0.0907118055555571 15.6700520833333  0.272135416666671 15.48203125  C 0.453559027777771 15.2940104166667  0.668402777777771 15.2  0.916666666666671 15  L 21.0833333333333 15  C 21.3315972222222 15.2  21.5464409722222 15.2940104166667  21.7278645833333 15.48203125  Z M 21.7278645833333 7.88203125  C 21.9092881944445 8.07005208333332  22 8.29270833333332  22 8.55  L 22 10.45  C 22 10.7072916666667  21.9092881944445 10.9299479166667  21.7278645833333 11.11796875  C 21.5464409722222 11.3059895833333  21.3315972222222 11.4  21.0833333333333 11.4  L 0.916666666666671 11.4  C 0.668402777777771 11.4  0.453559027777771 11.3059895833333  0.272135416666671 11.11796875  C 0.0907118055555571 10.9299479166667  0 10.7072916666667  0 10.45  L 0 8.55  C 0 8.29270833333332  0.0907118055555571 8.07005208333332  0.272135416666671 7.88203125  C 0.453559027777771 7.69401041666667  0.668402777777771 7.60000000000001  0.916666666666671 7.60000000000001  L 21.0833333333333 7.60000000000001  C 21.3315972222222 7.60000000000001  21.5464409722222 7.69401041666667  21.7278645833333 7.88203125  Z M 21.7278645833333 0.282031250000003  C 21.9092881944445 0.470052083333343  22 0.692708333333343  22 0.950000000000003  L 22 2.85000000000001  C 22 3.10729166666667  21.9092881944445 3.32994791666667  21.7278645833333 3.51796875000001  C 21.5464409722222 3.70598958333333  21.3315972222222 3.8  21.0833333333333 4  L 0.916666666666671 4  C 0.668402777777771 3.8  0.453559027777771 3.70598958333333  0.272135416666671 3.51796875000001  C 0.0907118055555571 3.32994791666667  0 3.10729166666667  0 2.85000000000001  L 0 0.950000000000003  C 0 0.692708333333343  0.0907118055555571 0.470052083333343  0.272135416666671 0.282031250000003  C 0.453559027777771 0.0940104166666629  0.668402777777771 0  0.916666666666671 0  L 21.0833333333333 0  C 21.3315972222222 0  21.5464409722222 0.0940104166666629  21.7278645833333 0.282031250000003  Z " fill-rule="nonzero" fill="#a1a1a1" stroke="none" transform="matrix(1 0 0 1 21 20 )" />
  </g>
</svg>