<?xml version="1.0" encoding="utf-8"?>
<svg version="1.1" xmlns:xlink="http://www.w3.org/1999/xlink" width="24px" height="20px" xmlns="http://www.w3.org/2000/svg">
  <g transform="matrix(1 0 0 1 -334 -20 )">
    <path d="M 9.76530612244898 18.2890625  C 9.75510204081633 18.3463541666667  9.76530612244898 18.4166666666667  9.79591836734693 18.5  C 9.79591836734693 18.5416666666667  9.80102040816325 18.6458333333333  9.8112244897959 18.8125  C 9.82142857142856 18.9791666666667  9.82397959183675 19.1171875  9.81887755102042 19.2265625  C 9.8137755102041 19.3359375  9.79846938775512 19.4583333333333  9.77295918367349 19.59375  C 9.74744897959181 19.7291666666667  9.69642857142856 19.8307291666667  9.61989795918367 19.8984375  C 9.54336734693879 19.9661458333333  9.4387755102041 20  9.30612244897958 20  L 4.40816326530614 20  C 3.19387755102042 20  2.15561224489795 19.5598958333333  1.29336734693879 18.6796875  C 0.431122448979579 17.7994791666667  0 16.7395833333333  0 15.5  L 0 4.50000000000001  C 0 3.26041666666666  0.431122448979579 2.20052083333333  1.29336734693879 1.3203125  C 2.15561224489795 0.440104166666662  3.19387755102042 0  4.40816326530614 0  L 9.30612244897958 0  C 9.4387755102041 0  9.55357142857144 0.0494791666666584  9.65051020408163 0.148437499999989  C 9.74744897959181 0.247395833333335  9.79591836734693 0.36458333333333  9.79591836734693 0.49999999999999  C 9.79591836734693 0.541666666666668  9.80102040816325 0.645833333333333  9.8112244897959 0.812500000000002  C 9.82142857142856 0.97916666666667  9.82397959183675 1.1171875  9.81887755102042 1.2265625  C 9.8137755102041 1.33593750000001  9.79846938775512 1.45833333333334  9.77295918367349 1.59374999999999  C 9.74744897959181 1.72916666666667  9.69642857142856 1.83072916666666  9.61989795918367 1.8984375  C 9.54336734693879 1.96614583333333  9.4387755102041 2  9.30612244897958 2  L 4.40816326530614 2  C 3.73469387755102 2  3.15816326530614 2.24479166666666  2.67857142857144 2.734375  C 2.19897959183675 3.22395833333333  1.9591836734694 3.8125  2 4.50000000000001  L 2 15.5  C 1.9591836734694 16.1875  2.19897959183675 16.7760416666667  2.67857142857144 17.265625  C 3.15816326530614 17.7552083333333  3.73469387755102 18  4.40816326530614 18  L 8.81632653061223 18  L 8.98469387755102 18  L 9.18367346938777 18  C 9.18367346938777 18  9.24234693877548 18.0052083333333  9.35969387755102 18.015625  C 9.47704081632651 18.0260416666667  9.53571428571428 18.0416666666667  9.53571428571428 18.0625  C 9.53571428571428 18.0833333333333  9.57653061224488 18.1119791666667  9.65816326530614 18.1484375  C 9.73979591836735 18.1848958333333  9.77551020408163 18.2317708333333  9.76530612244898 18.2890625  Z M 23.7091836734694 9.296875  C 23.9030612244898 9.49479166666666  24 9.72916666666667  24 10  C 24 10.2708333333333  23.9030612244898 10.5052083333333  23.7091836734694 10.703125  L 15.3826530612245 19.203125  C 15.188775510204 19.4010416666667  14.9591836734694 19.5  14.6938775510204 19.5  C 14.4285714285714 19.5  14.1989795918367 19.4010416666667  14.0051020408163 19.203125  C 13.8112244897959 19.0052083333333  13.7142857142857 18.7708333333333  13.7142857142857 18.5  L 13.7142857142857 14  L 6.85714285714283 14  C 6.59183673469386 14  6.36224489795916 13.9010416666667  6.16836734693879 13.703125  C 5.97448979591837 13.5052083333333  5.87755102040813 13.2708333333333  5.87755102040813 13  L 5.87755102040813 7  C 5.87755102040813 6.72916666666666  5.97448979591837 6.49479166666666  6.16836734693879 6.296875  C 6.36224489795916 6.09895833333334  6.59183673469386 6.00000000000001  6.85714285714283 6.00000000000001  L 13.7142857142857 6.00000000000001  L 13.7142857142857 1.5  C 13.7142857142857 1.22916666666666  13.8112244897959 0.99479166666666  14.0051020408163 0.796874999999997  C 14.1989795918367 0.598958333333335  14.4285714285714 0.49999999999999  14.6938775510204 0.49999999999999  C 14.9591836734694 0.49999999999999  15.188775510204 0.598958333333335  15.3826530612245 0.796874999999997  L 23.7091836734694 9.296875  Z " fill-rule="nonzero" fill="#a1a1a1" stroke="none" transform="matrix(1 0 0 1 334 20 )" />
  </g>
</svg>