<?xml version="1.0" encoding="utf-8"?>
<svg version="1.1" xmlns:xlink="http://www.w3.org/1999/xlink" width="19px" height="18px" xmlns="http://www.w3.org/2000/svg">
  <g transform="matrix(1 0 0 1 -330 -12 )">
    <path d="M 18.1238586330191 0  C 18.501152448213 0  18.7661564374578 0.166193181818073  18.9188706007503 0.49857954545422  C 19.0715847640438 0.848011363636715  19.0087024615113 1.14630681818221  18.7302236931528 1.39346590909076  L 12.0871575899058 7.69602272727235  L 12.0871575899058 17.1818181818178  C 12.0871575899058 17.5397727272725  11.9119854614231 17.7911931818181  11.5616412044566 17.9360795454548  C 11.444859785467 17.9786931818186  11.3325699595168 18  11.2247717266038 18  C 10.9822257025504 18  10.7801040158391 17.9190340909096  10.6184066664702 17.7571022727275  L 7.16886321326251 14.484375  C 6.998182677817 14.3224431818179  6.91284241009424 14.1306818181814  6.91284241009424 13.9090909090913  L 6.91284241009424 7.69602272727235  L 0.269776306847234 1.39346590909076  C -0.00870246151129095 1.14630681818221  -0.0715847640437914 0.848011363636715  0.0811293992497326 0.49857954545422  C 0.233843562542177 0.166193181818073  0.49884755178698 0  0.876141366980903 0  L 18.1238586330191 0  Z " fill-rule="nonzero" fill="#bcbcbc" stroke="none" transform="matrix(1 0 0 1 330 12 )" />
  </g>
</svg>