<?xml version="1.0" encoding="utf-8"?>
<svg version="1.1" xmlns:xlink="http://www.w3.org/1999/xlink" width="757px" height="10px" preserveAspectRatio="xMinYMid meet" viewBox="928 256  757 8" xmlns="http://www.w3.org/2000/svg">
  <path d="M 933.5 292  L 933.5 274  A 3 3 0 0 0 936.5 271 A 3 3 0 0 0 933.5 268 L 933.5 265  A 5 5 0 0 1 938.5 260.5 L 1675 260.5  A 5 5 0 0 1 1680.5 265.5 L 1680.5 429  A 5 5 0 0 0 1685.5 434.5 L 1686 434.5  A 5 5 0 0 0 1691.5 429.5 L 1691.5 421  " stroke-width="1" stroke-dasharray="1,1" stroke="#ff0000" fill="none" />
  <path d="M 1686 422  L 1697 422  L 1697 421  L 1686 421  L 1686 422  Z " fill-rule="nonzero" fill="#ff0000" stroke="none" />
</svg>