<?xml version="1.0" encoding="utf-8"?>
<svg version="1.1" xmlns:xlink="http://www.w3.org/1999/xlink" width="31px" height="31px" xmlns="http://www.w3.org/2000/svg">
  <g transform="matrix(1 0 0 1 -1108 -1008 )">
    <path d="M 22.341796875 18.7291666666667  C 22.341796875 18.9040798611111  22.2745225694445 19.0588107638889  22.1399739583334 19.193359375  L 19.193359375 22.1399739583333  C 19.0588107638889 22.2745225694444  18.9040798611111 22.341796875  18.7291666666666 22.341796875  C 18.5542534722222 22.341796875  18.3995225694445 22.2745225694444  18.2649739583334 22.1399739583333  L 15.5 19.375  L 12.7350260416666 22.1399739583333  C 12.6004774305555 22.2745225694444  12.4457465277778 22.341796875  12.2708333333334 22.341796875  C 12.0959201388889 22.341796875  11.9411892361111 22.2745225694444  11.806640625 22.1399739583333  L 8.86002604166663 19.193359375  C 8.72547743055554 19.0588107638889  8.658203125 18.9040798611111  8.658203125 18.7291666666667  C 8.658203125 18.5542534722222  8.72547743055554 18.3995225694444  8.86002604166663 18.2649739583333  L 11.625 15.5  L 8.86002604166663 12.7350260416667  C 8.72547743055554 12.6004774305556  8.658203125 12.4457465277778  8.658203125 12.2708333333333  C 8.658203125 12.0959201388889  8.72547743055554 11.9411892361111  8.86002604166663 11.806640625  L 11.806640625 8.86002604166667  C 11.9411892361111 8.72547743055556  12.0959201388889 8.658203125  12.2708333333334 8.658203125  C 12.4457465277778 8.658203125  12.6004774305555 8.72547743055556  12.7350260416666 8.86002604166667  L 15.5 11.625  L 18.2649739583334 8.86002604166667  C 18.3995225694445 8.72547743055556  18.5542534722222 8.658203125  18.7291666666666 8.658203125  C 18.9040798611111 8.658203125  19.0588107638889 8.72547743055556  19.193359375 8.86002604166667  L 22.1399739583334 11.806640625  C 22.2745225694445 11.9411892361111  22.341796875 12.0959201388889  22.341796875 12.2708333333333  C 22.341796875 12.4457465277778  22.2745225694445 12.6004774305556  22.1399739583334 12.7350260416667  L 19.375 15.5  L 22.1399739583334 18.2649739583333  C 22.2745225694445 18.3995225694444  22.341796875 18.5542534722222  22.341796875 18.7291666666667  Z M 25.005859375 21.009765625  C 25.9880642361111 19.3279079861111  26.4791666666666 17.4913194444444  26.4791666666666 15.5  C 26.4791666666666 13.5086805555556  25.9880642361111 11.6720920138889  25.005859375 9.990234375  C 24.0236545138889 8.30837673611111  22.6916232638889 6.97634548611111  21.009765625 5.994140625  C 19.3279079861111 5.01193576388889  17.4913194444445 4.52083333333333  15.5 4.52083333333333  C 13.5086805555555 4.52083333333333  11.6720920138889 5.01193576388889  9.990234375 5.994140625  C 8.30837673611109 6.97634548611111  6.97634548611109 8.30837673611111  5.994140625 9.990234375  C 5.01193576388891 11.6720920138889  4.52083333333337 13.5086805555556  4.52083333333337 15.5  C 4.52083333333337 17.4913194444444  5.01193576388891 19.3279079861111  5.994140625 21.009765625  C 6.97634548611109 22.6916232638889  8.30837673611109 24.0236545138889  9.990234375 25.005859375  C 11.6720920138889 25.9880642361111  13.5086805555555 26.4791666666667  15.5 26.4791666666667  C 17.4913194444445 26.4791666666667  19.3279079861111 25.9880642361111  21.009765625 25.005859375  C 22.6916232638889 24.0236545138889  24.0236545138889 22.6916232638889  25.005859375 21.009765625  Z M 28.9212239583334 7.7197265625  C 30.3070746527778 10.0945095486111  31 12.6879340277778  31 15.5  C 31 18.3120659722222  30.3070746527778 20.9054904513889  28.9212239583334 23.2802734375  C 27.5353732638889 25.6550564236111  25.6550564236111 27.5353732638889  23.2802734375 28.9212239583333  C 20.9054904513889 30.3070746527778  18.3120659722222 31  15.5 31  C 12.6879340277778 31  10.0945095486111 30.3070746527778  7.7197265625 28.9212239583333  C 5.34494357638891 27.5353732638889  3.46462673611109 25.6550564236111  2.07877604166663 23.2802734375  C 0.692925347222172 20.9054904513889  0 18.3120659722222  0 15.5  C 0 12.6879340277778  0.692925347222172 10.0945095486111  2.07877604166663 7.7197265625  C 3.46462673611109 5.34494357638889  5.34494357638891 3.46462673611111  7.7197265625 2.07877604166667  C 10.0945095486111 0.692925347222214  12.6879340277778 0  15.5 0  C 18.3120659722222 0  20.9054904513889 0.692925347222214  23.2802734375 2.07877604166667  C 25.6550564236111 3.46462673611111  27.5353732638889 5.34494357638889  28.9212239583334 7.7197265625  Z " fill-rule="nonzero" fill="#bcbcbc" stroke="none" transform="matrix(1 0 0 1 1108 1008 )" />
  </g>
</svg>