<?xml version="1.0" encoding="utf-8"?>
<svg version="1.1" xmlns:xlink="http://www.w3.org/1999/xlink" width="10px" height="22px" preserveAspectRatio="xMidYMin meet" viewBox="1344 353  8 22" xmlns="http://www.w3.org/2000/svg">
  <path d="M 628.5 213  L 628.5 195  A 5 5 0 0 1 633 190.5 L 996 190.5  A 3 3 0 0 1 999 187.5 A 3 3 0 0 1 1002 190.5 L 1325 190.5  A 5 5 0 0 1 1330.5 195.5 L 1330.5 365  A 5 5 0 0 0 1335.5 370.5 L 1343 370.5  A 5 5 0 0 0 1348.5 365.5 L 1348.5 353  " stroke-width="1" stroke-dasharray="1,1" stroke="#ff0000" fill="none" />
  <path d="M 1343 354  L 1354 354  L 1354 353  L 1343 353  L 1343 354  Z " fill-rule="nonzero" fill="#ff0000" stroke="none" />
</svg>