<?xml version="1.0" encoding="utf-8"?>
<svg version="1.1" xmlns:xlink="http://www.w3.org/1999/xlink" width="266px" height="10px" preserveAspectRatio="xMinYMid meet" viewBox="629 318  266 8" xmlns="http://www.w3.org/2000/svg">
  <path d="M 634 322.5  L 885 322.5  A 5 5 0 0 1 890.5 327.5 L 890.5 375  A 5 5 0 0 0 895.5 380.5 L 1305 380.5  A 5 5 0 0 1 1310.5 385.5 L 1310.5 775  A 5 5 0 0 0 1315.5 780.5 L 1323 780.5  A 5 5 0 0 0 1328.5 775.5 L 1328.5 760  " stroke-width="1" stroke-dasharray="1,1" stroke="#ff0000" fill="none" />
  <path d="M 1323 761  L 1334 761  L 1334 760  L 1323 760  L 1323 761  Z " fill-rule="nonzero" fill="#ff0000" stroke="none" />
</svg>