<?xml version="1.0" encoding="utf-8"?>
<svg version="1.1" xmlns:xlink="http://www.w3.org/1999/xlink" width="18px" height="18px" preserveAspectRatio="xMinYMid meet" viewBox="1310 903  18 16" xmlns="http://www.w3.org/2000/svg">
  <path d="M 820 393.5  L 855 393.5  A 5 5 0 0 1 860.5 398.5 L 860.5 445  A 5 5 0 0 0 865.5 450.5 L 1295 450.5  A 5 5 0 0 1 1300.5 455.5 L 1300.5 925  A 5 5 0 0 0 1305.5 930.5 L 1314 930.5  A 5 5 0 0 0 1319.5 925.5 L 1319.5 910  " stroke-width="1" stroke-dasharray="1,1" stroke="#ff0000" fill="none" />
  <path d="M 1314 911  L 1325 911  L 1325 910  L 1314 910  L 1314 911  Z " fill-rule="nonzero" fill="#ff0000" stroke="none" />
</svg>