<?xml version="1.0" encoding="utf-8"?>
<svg version="1.1" xmlns:xlink="http://www.w3.org/1999/xlink" width="10px" height="5px" preserveAspectRatio="xMinYMid meet" viewBox="523 251  10 3" xmlns="http://www.w3.org/2000/svg">
  <path d="M 528 255.5  L 665 255.5  A 5 5 0 0 0 670.5 250 L 670.5 193  A 3 3 0 0 0 673.5 190 A 3 3 0 0 0 670.5 187 L 670.5 185  A 5 5 0 0 1 675.5 180.5 L 915 180.5  A 5 5 0 0 0 920.5 175.5 L 920.5 165  A 5 5 0 0 1 925 160.5 L 996 160.5  A 3 3 0 0 1 999 157.5 A 3 3 0 0 1 1002 160.5 L 1315 160.5  A 5 5 0 0 1 1320.5 165 L 1320.5 187  A 3 3 0 0 1 1323.5 190 A 3 3 0 0 1 1320.5 193 L 1320.5 483  A 5 5 0 0 0 1325.5 488.5 L 1340 488.5  " stroke-width="1" stroke-dasharray="1,1" stroke="#ff0000" fill="none" />
  <path d="M 1339 483  L 1339 494  L 1340 494  L 1340 483  L 1339 483  Z " fill-rule="nonzero" fill="#ff0000" stroke="none" />
</svg>