<?xml version="1.0" encoding="utf-8"?>
<svg version="1.1" xmlns:xlink="http://www.w3.org/1999/xlink" width="60px" height="60px" xmlns="http://www.w3.org/2000/svg">
  <g transform="matrix(1 0 0 1 -253 -1686 )">
    <path d="M 283 1688  C 298.68 1688  311 1700.32  311 1716  C 311 1731.68  298.68 1744  283 1744  C 267.32 1744  255 1731.68  255 1716  C 255 1700.32  267.32 1688  283 1688  Z " fill-rule="nonzero" fill="#ffffff" stroke="none" fill-opacity="0" />
    <path d="M 283 1687.5  C 298.96 1687.5  311.5 1700.04  311.5 1716  C 311.5 1731.96  298.96 1744.5  283 1744.5  C 267.04 1744.5  254.5 1731.96  254.5 1716  C 254.5 1700.04  267.04 1687.5  283 1687.5  Z " stroke-width="3" stroke="#95f204" fill="none" />
  </g>
</svg>