<?xml version="1.0" encoding="utf-8"?>
<svg version="1.1" xmlns:xlink="http://www.w3.org/1999/xlink" width="32px" height="32px" xmlns="http://www.w3.org/2000/svg">
  <g transform="matrix(1 0 0 1 -489 -200 )">
    <path d="M 5.81818181818181 23.2727272727273  L 8.72727272727272 23.2727272727273  L 8.72727272727272 26.1818181818182  L 5.81818181818181 26.1818181818182  L 5.81818181818181 23.2727272727273  Z M 5.81818181818181 5.81818181818181  L 8.72727272727272 5.81818181818181  L 8.72727272727272 8.72727272727275  L 5.81818181818181 8.72727272727275  L 5.81818181818181 5.81818181818181  Z M 23.2727272727273 5.81818181818181  L 26.1818181818182 5.81818181818181  L 26.1818181818182 8.72727272727275  L 23.2727272727273 8.72727272727275  L 23.2727272727273 5.81818181818181  Z M 2.90909090909091 20.3636363636364  L 2.90909090909091 29.0681818181818  L 11.6363636363636 29.0681818181818  L 11.6363636363636 20.3636363636364  L 2.90909090909091 20.3636363636364  Z M 2.90909090909091 2.90909090909093  L 2.90909090909091 11.6363636363636  L 11.6363636363636 11.6363636363636  L 11.6363636363636 2.90909090909093  L 2.90909090909091 2.90909090909093  Z M 20.3636363636364 2.90909090909093  L 20.3636363636364 11.6363636363636  L 29.0909090909091 11.6363636363636  L 29.0909090909091 2.90909090909093  L 20.3636363636364 2.90909090909093  Z M 0 17  L 15 17  L 15 32  L 0 32  L 0 17  Z M 23.2727272727273 29.0909090909091  L 26.1818181818182 29.0909090909091  L 26.1818181818182 32  L 23.2727272727273 32  L 23.2727272727273 29.0909090909091  Z M 29.0909090909091 29.0909090909091  L 32 29.0909090909091  L 32 32  L 29.0909090909091 32  L 29.0909090909091 29.0909090909091  Z M 29.0909090909091 17.4545454545454  L 32 17.4545454545454  L 32 26.1818181818182  L 23.2727272727273 26.1818181818182  L 23.2727272727273 23.2727272727273  L 20.3636363636364 23.2727272727273  L 20.3636363636364 32  L 17 32  L 17 17.4545454545454  L 26.1818181818182 17.4545454545454  L 26.1818181818182 20.3636363636364  L 29.0909090909091 20.3636363636364  L 29.0909090909091 17.4545454545454  Z M 0 0  L 15 0  L 15 15  L 0 15  L 0 0  Z M 17 0  L 32 0  L 32 15  L 17 15  L 17 0  Z " fill-rule="nonzero" fill="#333333" stroke="none" transform="matrix(1 0 0 1 489 200 )" />
  </g>
</svg>