<?xml version="1.0" encoding="utf-8"?>
<svg version="1.1" xmlns:xlink="http://www.w3.org/1999/xlink" width="92px" height="52px" xmlns="http://www.w3.org/2000/svg">
  <g transform="matrix(1 0 0 1 -2230 -452 )">
    <path d="M 2276 452  C 2301.76 452  2322 463.44  2322 478  C 2322 492.56  2301.76 504  2276 504  C 2250.24 504  2230 492.56  2230 478  C 2230 463.44  2250.24 452  2276 452  Z " fill-rule="nonzero" fill="#ffffff" stroke="none" />
    <path d="M 2276 452.5  C 2301.48 452.5  2321.5 463.72  2321.5 478  C 2321.5 492.28  2301.48 503.5  2276 503.5  C 2250.52 503.5  2230.5 492.28  2230.5 478  C 2230.5 463.72  2250.52 452.5  2276 452.5  Z " stroke-width="1" stroke="#797979" fill="none" />
  </g>
</svg>