<?xml version="1.0" encoding="utf-8"?>
<svg version="1.1" xmlns:xlink="http://www.w3.org/1999/xlink" width="92px" height="52px" xmlns="http://www.w3.org/2000/svg">
  <g transform="matrix(1 0 0 1 -1981 -379 )">
    <path d="M 2027 379  C 2052.76 379  2073 390.44  2073 405  C 2073 419.56  2052.76 431  2027 431  C 2001.24 431  1981 419.56  1981 405  C 1981 390.44  2001.24 379  2027 379  Z " fill-rule="nonzero" fill="#000000" stroke="none" />
    <path d="M 2027 379.5  C 2052.48 379.5  2072.5 390.72  2072.5 405  C 2072.5 419.28  2052.48 430.5  2027 430.5  C 2001.52 430.5  1981.5 419.28  1981.5 405  C 1981.5 390.72  2001.52 379.5  2027 379.5  Z " stroke-width="1" stroke="#797979" fill="none" />
  </g>
</svg>