<?xml version="1.0" encoding="utf-8"?>
<svg version="1.1" xmlns:xlink="http://www.w3.org/1999/xlink" width="12px" height="12px" viewBox="2787 1299.5  12 12" xmlns="http://www.w3.org/2000/svg">
  <path d="M 2793 1299.5  C 2796.36 1299.5  2799 1302.14  2799 1305.5  C 2799 1308.86  2796.36 1311.5  2793 1311.5  C 2789.64 1311.5  2787 1308.86  2787 1305.5  C 2787 1302.14  2789.64 1299.5  2793 1299.5  Z " fill-rule="nonzero" fill="#ffffff" stroke="none" />
  <path d="M 2793 1300  C 2796.08 1300  2798.5 1302.42  2798.5 1305.5  C 2798.5 1308.58  2796.08 1311  2793 1311  C 2789.92 1311  2787.5 1308.58  2787.5 1305.5  C 2787.5 1302.42  2789.92 1300  2793 1300  Z " stroke-width="1" stroke="#797979" fill="none" />
  <path d="M 2793 1308.5  C 2791.32 1308.5  2790 1307.18  2790 1305.5  C 2790 1303.82  2791.32 1302.5  2793 1302.5  C 2794.68 1302.5  2796 1303.82  2796 1305.5  C 2796 1307.18  2794.68 1308.5  2793 1308.5  " fill-rule="nonzero" fill="#797979" stroke="none" />
</svg>