<?xml version="1.0" encoding="utf-8"?>
<svg version="1.1" xmlns:xlink="http://www.w3.org/1999/xlink" width="12px" height="12px" viewBox="2787 1271.5  12 12" xmlns="http://www.w3.org/2000/svg">
  <path d="M 2793 1271.5  C 2796.36 1271.5  2799 1274.14  2799 1277.5  C 2799 1280.86  2796.36 1283.5  2793 1283.5  C 2789.64 1283.5  2787 1280.86  2787 1277.5  C 2787 1274.14  2789.64 1271.5  2793 1271.5  Z " fill-rule="nonzero" fill="#ffffff" stroke="none" />
  <path d="M 2793 1272  C 2796.08 1272  2798.5 1274.42  2798.5 1277.5  C 2798.5 1280.58  2796.08 1283  2793 1283  C 2789.92 1283  2787.5 1280.58  2787.5 1277.5  C 2787.5 1274.42  2789.92 1272  2793 1272  Z " stroke-width="1" stroke="#797979" fill="none" />
  <path d="M 2793 1280.5  C 2791.32 1280.5  2790 1279.18  2790 1277.5  C 2790 1275.82  2791.32 1274.5  2793 1274.5  C 2794.68 1274.5  2796 1275.82  2796 1277.5  C 2796 1279.18  2794.68 1280.5  2793 1280.5  " fill-rule="nonzero" fill="#797979" stroke="none" />
</svg>