<?xml version="1.0" encoding="utf-8"?>
<svg version="1.1" xmlns:xlink="http://www.w3.org/1999/xlink" width="21px" height="25px" xmlns="http://www.w3.org/2000/svg">
  <g transform="matrix(1 0 0 1 -3031 -1188 )">
    <path d="M 20.5050505050505 18.6868686868687  C 20.8350168350168 19.0796857463524  21 19.5566778900112  21 20.1178451178451  C 21 20.679012345679  20.8350168350168 21.1560044893378  20.5050505050505 21.5488215488215  L 18.1010101010101 24.4107744107744  C 17.7710437710438 24.8035914702581  17.3703703703704 25  16.8989898989899 25  C 16.4276094276094 25  16.026936026936 24.8035914702581  15.6969696969697 24.4107744107744  L 10.5 18.2239057239057  L 5.3030303030303 24.4107744107744  C 4.97306397306397 24.8035914702581  4.57239057239057 25  4.1010101010101 25  C 3.62962962962963 25  3.22895622895623 24.8035914702581  2.8989898989899 24.4107744107744  L 0.494949494949495 21.5488215488215  C 0.164983164983165 21.1560044893378  0 20.679012345679  0 20.1178451178451  C 0 19.5566778900112  0.164983164983165 19.0796857463524  0.494949494949495 18.6868686868687  L 5.69191919191919 12.5  L 0.494949494949495 6.31313131313131  C 0.164983164983165 5.92031425364759  0 5.44332210998878  0 4.88215488215488  C 0 4.32098765432099  0.164983164983165 3.84399551066217  0.494949494949495 3.45117845117845  L 2.8989898989899 0.589225589225589  C 3.22895622895623 0.196408529741862  3.62962962962963 0  4.1010101010101 0  C 4.57239057239057 0  4.97306397306397 0.196408529741862  5.3030303030303 0.589225589225589  L 10.5 6.77609427609428  L 15.6969696969697 0.589225589225589  C 16.026936026936 0.196408529741862  16.4276094276094 0  16.8989898989899 0  C 17.3703703703704 0  17.7710437710438 0.196408529741862  18.1010101010101 0.589225589225589  L 20.5050505050505 3.45117845117845  C 20.8350168350168 3.84399551066217  21 4.32098765432099  21 4.88215488215488  C 21 5.44332210998878  20.8350168350168 5.92031425364759  20.5050505050505 6.31313131313131  L 15.3080808080808 12.5  L 20.5050505050505 18.6868686868687  Z " fill-rule="nonzero" fill="#d7d7d7" stroke="none" transform="matrix(1 0 0 1 3031 1188 )" />
  </g>
</svg>