<?xml version="1.0" encoding="utf-8"?>
<svg version="1.1" xmlns:xlink="http://www.w3.org/1999/xlink" width="106px" height="46px" xmlns="http://www.w3.org/2000/svg">
  <defs>
    <filter x="1133px" y="29px" width="106px" height="46px" filterUnits="userSpaceOnUse" id="filter1125">
      <feOffset dx="0" dy="0" in="SourceAlpha" result="shadowOffsetInner" />
      <feGaussianBlur stdDeviation="1.5" in="shadowOffsetInner" result="shadowGaussian" />
      <feComposite in2="shadowGaussian" operator="atop" in="SourceAlpha" result="shadowComposite" />
      <feColorMatrix type="matrix" values="0 0 0 0 0  0 0 0 0 0.6  0 0 0 0 1  0 0 0 1 0  " in="shadowComposite" />
    </filter>
    <g id="widget1126">
      <path d="M 1186 33  C 1213.44 33  1235 41.36  1235 52  C 1235 62.64  1213.44 71  1186 71  C 1158.56 71  1137 62.64  1137 52  C 1137 41.36  1158.56 33  1186 33  Z " fill-rule="nonzero" fill="#0099ff" stroke="none" fill-opacity="0.0980392156862745" />
      <path d="M 1186 33  C 1213.44 33  1235 41.36  1235 52  C 1235 62.64  1213.44 71  1186 71  C 1158.56 71  1137 62.64  1137 52  C 1137 41.36  1158.56 33  1186 33  Z " stroke-width="2" stroke="#0099ff" fill="none" />
    </g>
  </defs>
  <g transform="matrix(1 0 0 1 -1133 -29 )">
    <use xlink:href="#widget1126" filter="url(#filter1125)" />
    <use xlink:href="#widget1126" />
  </g>
</svg>