<?xml version="1.0" encoding="utf-8"?>
<svg version="1.1" xmlns:xlink="http://www.w3.org/1999/xlink" width="25px" height="19px" xmlns="http://www.w3.org/2000/svg">
  <g transform="matrix(1 0 0 1 -589 -1674 )">
    <path d="M 24.5483870967742 2.62289562289561  C 24.8494623655914 2.92143658810323  25 3.28395061728395  25 3.71043771043776  C 25 4.13692480359146  24.8494623655914 4.49943883277217  24.5483870967742 4.79797979797979  L 12.8709677419355 16.3771043771044  L 10.6774193548387 18.5521885521886  C 10.3763440860215 18.8507295173962  10.010752688172 19  9.58064516129036 19  C 9.15053763440858 19  8.78494623655911 18.8507295173962  8.48387096774195 18.5521885521886  L 6.29032258064512 16.3771043771044  L 0.45161290322585 10.587542087542  C 0.150537634408579 10.2890011223344  0 9.92648709315381  0 9.5  C 0 9.07351290684619  0.150537634408579 8.71099887766559  0.45161290322585 8.41245791245797  L 2.64516129032256 6.23737373737379  C 2.94623655913983 5.93883277216605  3.31182795698919 5.78956228956224  3.74193548387098 5.78956228956224  C 4.17204301075265 5.78956228956224  4.53763440860212 5.93883277216605  4.83870967741939 6.23737373737379  L 9.58064516129036 10.9553872053872  L 20.1612903225806 0.447811447811432  C 20.4623655913979 0.149270482603811  20.8279569892474 0  21.258064516129 0  C 21.6881720430108 0  22.0537634408602 0.149270482603811  22.3548387096774 0.447811447811432  L 24.5483870967742 2.62289562289561  Z " fill-rule="nonzero" fill="#bcbcbc" stroke="none" transform="matrix(1 0 0 1 589 1674 )" />
  </g>
</svg>