<?xml version="1.0" encoding="utf-8"?>
<svg version="1.1" xmlns:xlink="http://www.w3.org/1999/xlink" width="19px" height="19px" xmlns="http://www.w3.org/2000/svg">
  <g transform="matrix(1 0 0 1 -591 -1703 )">
    <path d="M 18.5521885521886 14.2020202020203  C 18.8507295173962 14.5005611672279  19 14.8630751964083  19 15.2895622895624  C 19 15.7160493827159  18.8507295173962 16.0785634118968  18.5521885521886 16.3771043771044  L 16.3771043771044 18.5521885521885  C 16.0785634118968 18.8507295173963  15.7160493827161 19  15.2895622895624 19  C 14.8630751964085 19  14.5005611672278 18.8507295173963  14.2020202020202 18.5521885521885  L 9.5 13.8501683501684  L 4.79797979797979 18.5521885521885  C 4.49943883277217 18.8507295173963  4.13692480359146 19  3.71043771043765 19  C 3.28395061728395 19  2.92143658810323 18.8507295173963  2.62289562289561 18.5521885521885  L 0.447811447811432 16.3771043771044  C 0.149270482603811 16.0785634118968  0 15.7160493827159  0 15.2895622895624  C 0 14.8630751964083  0.149270482603811 14.5005611672279  0.447811447811432 14.2020202020203  L 5.14983164983164 9.5  L 0.447811447811432 4.79797979797979  C 0.149270482603811 4.49943883277217  0 4.13692480359146  0 3.71043771043776  C 0 3.28395061728395  0.149270482603811 2.92143658810323  0.447811447811432 2.62289562289573  L 2.62289562289561 0.447811447811432  C 2.92143658810323 0.149270482603811  3.28395061728395 0  3.71043771043765 0  C 4.13692480359146 0  4.49943883277217 0.149270482603811  4.79797979797979 0.447811447811432  L 9.5 5.14983164983164  L 14.2020202020202 0.447811447811432  C 14.5005611672278 0.149270482603811  14.8630751964085 0  15.2895622895624 0  C 15.7160493827161 0  16.0785634118968 0.149270482603811  16.3771043771044 0.447811447811432  L 18.5521885521886 2.62289562289573  C 18.8507295173962 2.92143658810323  19 3.28395061728395  19 3.71043771043776  C 19 4.13692480359146  18.8507295173962 4.49943883277217  18.5521885521886 4.79797979797979  L 13.8501683501684 9.5  L 18.5521885521886 14.2020202020203  Z " fill-rule="nonzero" fill="#bcbcbc" stroke="none" transform="matrix(1 0 0 1 591 1703 )" />
  </g>
</svg>