<?xml version="1.0" encoding="utf-8"?>
<svg version="1.1" xmlns:xlink="http://www.w3.org/1999/xlink" width="126px" height="126px" xmlns="http://www.w3.org/2000/svg">
  <g transform="matrix(1 0 0 1 -897 -522 )">
    <path d="M 23 91  L 35 91  L 35 103  L 23 103  L 23 91  Z M 23 23  L 35 23  L 35 35  L 23 35  L 23 23  Z M 91 23  L 103 23  L 103 35  L 91 35  L 91 23  Z M 12 80  L 12 114  L 46 114  L 46 80  L 12 80  Z M 12 12  L 12 46  L 46 46  L 46 12  L 12 12  Z M 80 12  L 80 46  L 114 46  L 114 12  L 80 12  Z M 0 68  L 58 68  L 58 126  L 0 126  L 0 68  Z M 91 114  L 103 114  L 103 126  L 91 126  L 91 114  Z M 114 114  L 126 114  L 126 126  L 114 126  L 114 114  Z M 114 68  L 126 68  L 126 103  L 91 103  L 91 91  L 80 91  L 80 126  L 68 126  L 68 68  L 103 68  L 103 80  L 114 80  L 114 68  Z M 0 0  L 58 0  L 58 58  L 0 58  L 0 0  Z M 68 0  L 126 0  L 126 58  L 68 58  L 68 0  Z " fill-rule="nonzero" fill="#bcbcbc" stroke="none" transform="matrix(1 0 0 1 897 522 )" />
  </g>
</svg>