<?xml version="1.0" encoding="utf-8"?>
<svg version="1.1" xmlns:xlink="http://www.w3.org/1999/xlink" width="238px" height="145px" xmlns="http://www.w3.org/2000/svg">
  <g transform="matrix(1 0 0 1 -539 -629 )">
    <path d="M 227.5875 80.7901278409091  C 234.529166666667 87.9646070075758  238 96.1860795454545  238 105.454545454545  C 238 116.370738636364  233.3515625 125.690696022727  224.0546875 133.414417613636  C 214.7578125 141.138139204545  203.539583333333 145  190.4 145  L 55.5333333333333 145  C 40.2451388888889 145  27.1675347222222 140.485913825758  16.3005208333333 131.457741477273  C 5.43350694444444 122.429569128788  0 111.564867424242  0 98.8636363636364  C 0 89.8011363636364  2.93368055555556 81.5110085227273  8.80104166666667 73.9932528409091  C 14.6684027777778 66.4754971590909  22.3951388888889 60.8629261363636  31.98125 57.1555397727273  C 31.8159722222222 55.2331912878788  31.7333333333333 53.7571022727273  31.7333333333333 52.7272727272727  C 31.7333333333333 38.1723484848485  37.93125 25.7457386363636  50.3270833333333 15.4474431818182  C 62.7229166666667 5.14914772727273  77.6805555555556 0  95.2 0  C 108.256944444444 0  120.094965277778 3.02083333333332  130.7140625 9.0625  C 141.333159722222 15.1041666666666  149.080555555556 22.9995265151515  153.95625 32.7485795454545  C 159.740972222222 28.4919507575757  166.6 26.3636363636364  174.533333333333 26.3636363636364  C 183.293055555556 26.3636363636364  190.771875 28.9382102272727  196.969791666667 34.0873579545455  C 203.167708333333 39.2365056818182  206.266666666667 45.4498106060606  206.266666666667 52.7272727272727  C 206.266666666667 57.8764204545455  204.572569444444 62.6136363636364  201.184375 66.9389204545455  C 211.844791666667 68.9985795454545  220.645833333333 73.6156486742424  227.5875 80.7901278409091  Z " fill-rule="nonzero" fill="#d7d7d7" stroke="none" transform="matrix(1 0 0 1 539 629 )" />
  </g>
</svg>