<?xml version="1.0" encoding="utf-8"?>
<svg version="1.1" xmlns:xlink="http://www.w3.org/1999/xlink" width="211px" height="156px" xmlns="http://www.w3.org/2000/svg">
  <g transform="matrix(1 0 0 1 -142 -624 )">
    <path d="M 201.76875 86.9190340909091  C 207.922916666667 94.6377840909091  211 103.482954545455  211 113.454545454545  C 211 125.198863636364  206.87890625 135.225852272727  198.63671875 143.535511363636  C 190.39453125 151.845170454545  180.448958333333 156  168.8 156  L 49.2333333333333 156  C 35.6795138888889 156  24.0855034722222 151.143465909091  14.4513020833333 141.430397727273  C 4.81710069444444 131.717329545455  0 120.028409090909  0 106.363636363636  C 0 96.6136363636364  2.60086805555556 87.6946022727273  7.80260416666667 79.6065340909091  C 13.0043402777778 71.5184659090909  19.8545138888889 65.4801136363636  28.353125 61.4914772727273  C 28.2065972222222 59.4232954545454  28.1333333333333 57.8352272727273  28.1333333333333 56.7272727272727  C 28.1333333333333 41.0681818181818  33.628125 27.6988636363636  44.6177083333333 16.6193181818182  C 55.6072916666667 5.53977272727273  68.8680555555556 0  84.4 0  C 95.9756944444444 0  106.470746527778 3.24999999999999  115.88515625 9.75  C 125.299565972222 16.25  132.168055555556 24.7443181818182  136.490625 35.2329545454545  C 141.619097222222 30.6534090909091  147.7 28.3636363636364  154.733333333333 28.3636363636364  C 162.499305555556 28.3636363636364  169.1296875 31.1335227272727  174.624479166667 36.6732954545455  C 180.119270833333 42.2130681818182  182.866666666667 48.8977272727273  182.866666666667 56.7272727272727  C 182.866666666667 62.2670454545455  181.364756944444 67.3636363636364  178.3609375 72.0170454545455  C 187.811979166667 74.2329545454545  195.614583333333 79.2002840909091  201.76875 86.9190340909091  Z " fill-rule="nonzero" fill="#d7d7d7" stroke="none" transform="matrix(1 0 0 1 142 624 )" />
  </g>
</svg>